DBRep_DrawableShape

CASCADE Topology V1, (c) Matra-Datavision
Locations 0
Curve2ds 12
1 0 0 1 0 
1 0.51373719851529775 0 0 1 
1 0.51373719851529775 0 0 1 
1 0 1 1 0 
1 0 0 0 1 
1 0.00031082132765498905 0 0 1 
1 0 0 1 0 
1 1 0 0 1 
1 0 0 0 1 
1 0 1 1 0 
1 0 0 1 0 
7 0 0  1 2 2  0 1  0.00031082132765498905 1 
 0 2 0.00019317898835326171 2
Curves 9
7 0 0  3 103 101  0.21972885845648749 0.00080865437198834357 -0.49999973649990176  0.21968977127725312 0.0008250355458485582 -0.49999973649990176  0.21953358676492526 0.00089049142688972082 -0.49999973649990176  0.21918250492979952 0.0010370992703396655 -0.49999973649990176  0.21859895810589394 0.0012792826340978286 -0.49999973649990176  0.21778375858988713 0.001614387866626713 -0.49999973649990176  0.21674059369399559 0.0020377938917988279 -0.49999973649990176  0.21547149430659585 0.0025447899472267272 -0.49999973649990176  0.21398123526107696 0.00312886434808444 -0.49999973649990176  0.21227402685454899 0.003783180571113375 -0.49999973649990176  0.21035553836252957 0.0044998485405042601 -0.49999973649990176  0.20823193048583144 0.0052704491148631736 -0.49999973649990176  0.20591024385288204 0.0060859943559506101 -0.49999973649990176  0.20339828316497599 0.006937097815202335 -0.49999973649990176  0.20070464294941948 0.0078140817679495031 -0.49999973649990176  0.19783869441595178 0.0087070947080418598 -0.49999973649990176  0.19481057290126272 0.0096062210178969199 -0.49999973649990176  0.19163115968612213 0.01050158458407255 -0.49999973649990176  0.18831205940093459 0.011383445706345493 -0.49999973649990176  0.18486557345356419 0.012242291581798164 -0.49999973649990176  0.18130466983054044 0.013068921115761125 -0.49999973649990176  0.17764294990312729 0.013854525206907088 -0.49999973649990176  0.17389460993250078 0.014590763504699943 -0.49999973649990176  0.17007440683440367 0.015269841112766617 -0.49999973649990176  0.1661975916296401 0.015884573858097061 -0.49999973649990176  0.16227991874050396 0.016428503895317571 -0.49999973649990176  0.15833744549270895 0.016895798440947782 -0.49999973649990176  0.15438677267727807 0.017282014747915204 -0.49999973649990176  0.15044435838341663 0.017581542723384649 -0.49999973649990176  0.14649527189374575 0.017799255408472599 -0.49999973649990176  0.14254570793445551 0.017908036959158644 -0.49999973649990176  0.13861369144028998 0.017848118833691324 -0.49999973649990176  0.13475204263694471 0.017636232074478345 -0.49999973649990176  0.130988888810155 0.01727537209453768 -0.49999973649990176  0.12734350671016903 0.016775384972791466 -0.49999973649990176  0.1238344700156473 0.016146954382389445 -0.49999973649990176  0.12047934608052971 0.015402885978294272 -0.49999973649990176  0.11729455429659828 0.014557473675867429 -0.49999973649990176  0.11429519181211781 0.013626282068246983 -0.49999973649990176  0.11149491760924778 0.012625800135627313 -0.49999973649990176  0.10890586727376579 0.011573097624414358 -0.49999973649990176  0.10653860189554439 0.01048546743532747 -0.49999973649990176  0.10440208503388791 0.0093800653710824512 -0.49999973649990176  0.10250367814693256 0.0082735501901368882 -0.49999973649990176  0.10084914294173686 0.0071817248579333533 -0.49999973649990176  0.099442620625588146 0.0061191579818745592 -0.49999973649990176  0.098286599841695632 0.0050987329077231292 -0.49999973649990176  0.097381775991331618 0.0041310231223615299 -0.49999973649990176  0.096727260350752436 0.003222861138391207 -0.49999973649990176  0.096321871274341886 0.0023756171185446151 -0.49999973649990176  0.096172227359496903 0.0015823085167770718 -0.49999973649990176  0.096303177772550014 0.0008565168508392287 -0.49999973649990176  0.096705868682277235 0.00024033958865345541 -0.49999973649990176  0.097350557020402254 -0.00023663885640992275 -0.49999973649990176  0.098207750583856654 -0.00058846815195609374 -0.49999973649990176  0.099274878430997637 -0.00083205694587329122 -0.49999973649990176  0.10055006619936593 -0.00097561259638190897 -0.49999973649990176  0.10202893429345344 -0.0010255847095786454 -0.49999973649990176  0.10370493440907799 -0.00098848914664872284 -0.49999973649990176  0.10557019923984817 -0.00087169540025990684 -0.49999973649990176  0.10761606357811848 -0.00068345081158425135 -0.49999973649990176  0.10983338086064884 -0.00043282259161130012 -0.49999973649990176  0.11221275027419612 -0.00012958599394192745 -0.49999973649990176  0.11474467806375063 0.00021589306738896733 -0.49999973649990176  0.11741969944886226 0.00059277683082415626 -0.49999973649990176  0.12022846436902224 0.00098987557168451318 -0.49999973649990176  0.1231617882279535 0.0013957699477178164 -0.49999973649990176  0.12621066691077207 0.0017989336870923014 -0.49999973649990176  0.12936626146755945 0.0021878811140880051 -0.49999973649990176  0.13261982815685086 0.0025512266319552518 -0.49999973649990176  0.13596268205787881 0.0028781813426094673 -0.49999973649990176  0.13938600047200456 0.0031572747071523287 -0.49999973649990176  0.14288909757536636 0.0033827610313432429 -0.49999973649990176  0.1464947907351962 0.0035322454119917652 -0.49999973649990176  0.15018942386152198 0.0036520664380313029 -0.49999973649990176  0.15395155396612814 0.0037588245148034655 -0.49999973649990176  0.15773565831506572 0.0038411514927853552 -0.49999973649990176  0.16152772168706958 0.0038973163994363361 -0.49999973649990176  0.16531380224332115 0.0039242518490406088 -0.49999973649990176  0.1690795517386493 0.003920302483653138 -0.49999973649990176  0.17281056103616149 0.003884538421493007 -0.49999973649990176  0.17649227982017898 0.0038169403388192179 -0.49999973649990176  0.18011014513983245 0.0037183327431170752 -0.49999973649990176  0.18364963031691345 0.0035903476299165779 -0.49999973649990176  0.18709632467403348 0.0034353558691978927 -0.49999973649990176  0.19043600574981184 0.0032563832275595969 -0.49999973649990176  0.19365471352142888 0.0030570123689829679 -0.49999973649990176  0.19673882378880672 0.0028412752739015498 -0.49999973649990176  0.19967512096098389 0.0026135401437958729 -0.49999973649990176  0.20245087020084959 0.0023783967172597942 -0.49999973649990176  0.20505388911565037 0.0021405435398760071 -0.49999973649990176  0.20747261828930325 0.0019046803270587904 -0.49999973649990176  0.20969619754532143 0.0016754069625786873 -0.49999973649990176  0.21171450589293556 0.0014571362592025094 -0.49999973649990176  0.21351835624074308 0.0012539970983635159 -0.49999973649990176  0.21509915601000151 0.0010698164262951551 -0.49999973649990176  0.21645001421350815 0.00090792711459429564 -0.49999973649990176  0.21756365515865464 0.00077139212613495532 -0.49999973649990176  0.21843602090857456 0.00066251755018526437 -0.49999973649990176  0.21906163649729105 0.00058340410289218624 -0.49999973649990176  0.21943848432905338 0.00053534764846795493 -0.49999973649990176  0.21960625369906064 0.00051384937501756001 -0.49999973649990176  0.21964824700940025 0.00050846827583512556 -0.49999973649990176 
 0 4 0.00049739984301800169 1 0.00198741502815918 1 0.0044635102977900153 1 0.0079148522906514057 1 0.012326395880791562 1 0.017679001628741791 1 0.023949581151797125 1 0.031111266611454625 1 0.039133600095283015 1 0.047982738444039219 1 0.057621669037433883 1 0.068010432190637585 1 0.079106346111928252 1 0.090864230813156949 1 0.10323662793382841 1 0.11617401412241497 1 0.129625006399325 1 0.14353655878335592 1 0.15785415036621575 1 0.17252196592359864 1 0.18748307099874312 1 0.20267958411747308 1 0.21805284932105037 1 0.2335436124699419 1 0.24909220473126328 1 0.26463873629818824 1 0.28012330272223812 1 0.29548620533261971 1 0.31104957869740602 1 0.3264784133363568 1 0.34162084310623081 1 0.35642269447770392 1 0.37082983330862862 1 0.38478841506599898 1 0.39824519846949297 1 0.41114792049166898 1 0.4234457334204193 1 0.43508970918060325 1 0.44603342303631127 1 0.45623363983425413 1 0.46565114465521051 1 0.47425179342967533 1 0.48200792301895584 1 0.48890038732574265 1 0.49492174892025381 1 0.50008171570891213 1 0.5044170938122049 1 0.50801066881149448 1 0.51102448248994026 1 0.51373719851529775 1 0.51644948617691111 1 0.51945299174717252 1 0.52300710312720133 1 0.52725421012781593 1 0.53225968459411821 1 0.5380450386039779 1 0.54460658329338163 1 0.55192538423716675 1 0.55997284499919975 1 0.56871411270903072 1 0.57811034666456584 1 0.58812034627883336 1 0.59870177875637987 1 0.60981212356491643 1 0.62140938996361605 1 0.63345263395937756 1 0.64590228737462307 1 0.65872030704952556 1 0.6718701528262635 1 0.68531660670748029 1 0.6990254509944126 1 0.7130608787820506 1 0.72766469754508867 1 0.74240472119014456 1 0.75722816342908195 1 0.7720813709306984 1 0.78690993897978068 1 0.8016588405242876 1 0.8162725697230786 1 0.83069530104595679 1 0.84487106493198205 1 0.85874394092667017 1 0.87225826905527759 1 0.88535887992530748 1 0.89799134367799749 1 0.91010223742768348 1 0.92163943024868977 1 0.93255238410553998 1 0.94279246839147035 1 0.9523132849642475 1 0.96107099977450028 1 0.96902467640447243 1 0.976136606116213 1 0.98237262839640516 1 0.98770243553302772 1 0.99209985451897442 1 0.995543099595391 1 0.99801498905577624 1 0.99950312054529189 1 1 4
7 0 0  1 2 2  0.096346943485097397 0.00087397835844016684 -0.49999973649990181  -4.1823685739184914e-10 -1.4484016846408754e-10 0 
 0 2 1 2
7 0 0  3 103 101  0.076683216216699907 9.3328144071871727e-05 0  0.076658905346204648 0.0001034667862028215 0  0.076561763993795662 0.00014397876409999035 0  0.076343403836220083 0.00023471597627029519 0  0.075980460521242285 0.0003846020355194775 0  0.075473441780180686 0.00059198855149407436 0  0.07482464433205438 0.0008540074797122743 0  0.074035335508558966 0.0011677332367426626 0  0.073108489986659697 0.0015291239255738644 0  0.0720467319307459 0.0019339351459346918 0  0.070853593419092517 0.0023772692873489927 0  0.069532912530202662 0.0028539004529964237 0  0.068089074844174327 0.0033582501880288639 0  0.066526941252926242 0.0038844931886601367 0  0.064851863849645294 0.0044266239773054937 0  0.063069677632378585 0.0049785299124471567 0  0.061186692581625839 0.0055340593360839376 0  0.05920968224702429 0.0060870859521521947 0  0.05714586959947305 0.0066315690320021903 0  0.055002910418031271 0.0071616096223574366 0  0.052788874428993014 0.0076715032234191266 0  0.050512224588365746 0.0081557896508574479 0  0.04818179307361916 0.0086093006995808033 0  0.045806759922801643 0.0090272077785190693 0  0.043396611602481393 0.0094050624038736989 0  0.040961146660088175 0.0097388680584691804 0  0.03851035122219483 0.010025017036403207 0  0.036054547675878672 0.010260766143801723 0  0.033603970984673534 0.01044264651433696 0  0.031149336262600399 0.010573670586935818 0  0.028694523030068326 0.010636992306219726 0  0.026250798849012616 0.010595484466327413 0  0.023850973878954265 0.010459602919410935 0  0.021512526269606681 0.010231239877301233 0  0.01924742603444245 0.0099165357050451704 0  0.01706720531143022 0.0095221505780635988 0  0.014982768493883919 0.0090560624132449714 0  0.013004304889207679 0.0085271728507397004 0  0.011141180637395234 0.0079451718349155265 0  0.0094018670398231287 0.0073203222652357819 0  0.0077938879607371081 0.0066632463398087977 0  0.006323788456544392 0.0059847032403999014 0  0.0049971208505749541 0.0052953652068592691 0  0.0038184422831182125 0.0046055938218129344 0  0.0027913165614410818 0.0039252170471234362 0  0.001918301675181235 0.0032632939192602721 0  0.0012009303574901417 0.0026278342732092182 0  0.00063962333026203568 0.0020254103960775484 0  0.00023382082591728487 0.0014602678009518661 0  -1.7213047882345722e-05 0.00093325677560147631 0  -0.00010935718452216255 0.00044004477921884538 0  -2.7182310592342987e-05 -1.0900160284735187e-05 0  0.00022376312985385944 -0.00039342363856387122 0  0.00062496139687259441 -0.00068917091977452208 0  0.0011580980295091241 -0.00090690603173483391 0  0.0018215935146376691 -0.001057140665975907 0  0.0026142918253316823 -0.0011449778157191499 0  0.0035334779982278295 -0.0011744307322909247 0  0.0045750892668432238 -0.0011495561993217407 0  0.0057342440176732269 -0.0010749429730451305 0  0.0070055656861515358 -0.0009557262677875963 0  0.0083833794301415229 -0.00079755137800866091 0  0.0098618531570421504 -0.00060650393000990881 0  0.011435097651122463 -0.00038903675259287809 0  0.01309724221682026 -0.00015189590125950708 0  0.014842487840258926 9.7953944266223741e-05 0  0.016665138594549753 0.00035340557415324035 0  0.018559610839939594 0.00060728551663044496 0  0.02052042354435625 0.00085244571011544481 0  0.022542154740140475 0.0010818003964949243 0  0.024619418369608497 0.0012886347359415272 0  0.026746743484597206 0.0014658100922055645 0  0.028923710075230789 0.0016097547120057008 0  0.031164523682067555 0.0017065746973189688 0  0.033460646603579933 0.0017850551406636025 0  0.035798733779863756 0.0018554900911263036 0  0.038150504697275163 0.0019107647115969295 0  0.040507250628692038 0.0019497879714512124 0  0.042860309905588867 0.0019706383250065354 0  0.045200766740938397 0.0019722713754089594 0  0.047519666715388757 0.0019540935507032491 0  0.049807966677114582 0.0019160770469976364 0  0.052056614705431346 0.0018587184965845999 0  0.054256580546984096 0.0017830164333630014 0  0.056398905242107319 0.0016904287353169975 0  0.058474746098472467 0.0015828205098062864 0  0.060475422927553604 0.0014624032665866476 0  0.06239246377043671 0.0013316681347973404 0  0.064217650258071982 0.0011933156519960278 0  0.065943062574464278 0.0010501845652102777 0  0.067561124135435621 0.00090518184580876441 0  0.069064645542029957 0.00076121586844749055 0  0.07044687208835064 0.0006211337203818958 0  0.071701508683186921 0.00048766702465609862 0  0.072822840971715291 0.00036337195175522989 0  0.073805524422667676 0.0002506176616196103 0  0.074645272597952672 0.00015146808868784671 0  0.075337560254039704 6.7818998727381565e-05 0  0.075879862837685469 1.0992454627031961e-06 0  0.076268775320216961 -4.7391497064251691e-05 0  0.076503042338226315 -7.6850025790556185e-05 0  0.076607336085562819 -9.00293174969473e-05 0  0.076633441206528236 -9.3328144071871727e-05 0 
 0 4 0.00049739984301800169 1 0.00198741502815918 1 0.0044635102977900153 1 0.0079148522906514057 1 0.012326395880791562 1 0.017679001628741791 1 0.023949581151797125 1 0.031111266611454625 1 0.039133600095283015 1 0.047982738444039219 1 0.057621669037433883 1 0.068010432190637585 1 0.079106346111928252 1 0.090864230813156949 1 0.10323662793382841 1 0.11617401412241497 1 0.129625006399325 1 0.14353655878335592 1 0.15785415036621575 1 0.17252196592359864 1 0.18748307099874312 1 0.20267958411747308 1 0.21805284932105037 1 0.2335436124699419 1 0.24909220473126328 1 0.26463873629818824 1 0.28012330272223812 1 0.29548620533261971 1 0.31104957869740602 1 0.3264784133363568 1 0.34162084310623081 1 0.35642269447770392 1 0.37082983330862862 1 0.38478841506599898 1 0.39824519846949297 1 0.41114792049166898 1 0.4234457334204193 1 0.43508970918060325 1 0.44603342303631127 1 0.45623363983425413 1 0.46565114465521051 1 0.47425179342967533 1 0.48200792301895584 1 0.48890038732574265 1 0.49492174892025381 1 0.50008171570891213 1 0.5044170938122049 1 0.50801066881149448 1 0.51102448248994026 1 0.51373719851529775 1 0.51644948617691111 1 0.51945299174717252 1 0.52300710312720133 1 0.52725421012781593 1 0.53225968459411821 1 0.5380450386039779 1 0.54460658329338163 1 0.55192538423716675 1 0.55997284499919975 1 0.56871411270903072 1 0.57811034666456584 1 0.58812034627883336 1 0.59870177875637987 1 0.60981212356491643 1 0.62140938996361605 1 0.63345263395937756 1 0.64590228737462307 1 0.65872030704952556 1 0.6718701528262635 1 0.68531660670748029 1 0.6990254509944126 1 0.7130608787820506 1 0.72766469754508867 1 0.74240472119014456 1 0.75722816342908195 1 0.7720813709306984 1 0.78690993897978068 1 0.8016588405242876 1 0.8162725697230786 1 0.83069530104595679 1 0.84487106493198205 1 0.85874394092667017 1 0.87225826905527759 1 0.88535887992530748 1 0.89799134367799749 1 0.91010223742768348 1 0.92163943024868977 1 0.93255238410553998 1 0.94279246839147035 1 0.9523132849642475 1 0.96107099977450028 1 0.96902467640447243 1 0.976136606116213 1 0.98237262839640516 1 0.98770243553302772 1 0.99209985451897442 1 0.995543099595391 1 0.99801498905577624 1 0.99950312054529189 1 1 4
7 0 0  1 2 2  0.21972885845648749 0.00080865437198834357 -0.49999973649990176  0.076683216216699907 9.3328144071871727e-05 0 
 0 2 1 2
7 0 0  3 103 101  0.21972885845648749 0.00080865437198834357 -0.49999973649990176  0.21968977127725312 0.0008250355458485582 -0.49999973649990176  0.21953358676492526 0.00089049142688972082 -0.49999973649990176  0.21918250492979952 0.0010370992703396655 -0.49999973649990176  0.21859895810589394 0.0012792826340978286 -0.49999973649990176  0.21778375858988713 0.001614387866626713 -0.49999973649990176  0.21674059369399559 0.0020377938917988279 -0.49999973649990176  0.21547149430659585 0.0025447899472267272 -0.49999973649990176  0.21398123526107696 0.00312886434808444 -0.49999973649990176  0.21227402685454899 0.003783180571113375 -0.49999973649990176  0.21035553836252957 0.0044998485405042601 -0.49999973649990176  0.20823193048583144 0.0052704491148631736 -0.49999973649990176  0.20591024385288204 0.0060859943559506101 -0.49999973649990176  0.20339828316497599 0.006937097815202335 -0.49999973649990176  0.20070464294941948 0.0078140817679495031 -0.49999973649990176  0.19783869441595178 0.0087070947080418598 -0.49999973649990176  0.19481057290126272 0.0096062210178969199 -0.49999973649990176  0.19163115968612213 0.01050158458407255 -0.49999973649990176  0.18831205940093459 0.011383445706345493 -0.49999973649990176  0.18486557345356419 0.012242291581798164 -0.49999973649990176  0.18130466983054044 0.013068921115761125 -0.49999973649990176  0.17764294990312729 0.013854525206907088 -0.49999973649990176  0.17389460993250078 0.014590763504699943 -0.49999973649990176  0.17007440683440367 0.015269841112766617 -0.49999973649990176  0.1661975916296401 0.015884573858097061 -0.49999973649990176  0.16227991874050396 0.016428503895317571 -0.49999973649990176  0.15833744549270895 0.016895798440947782 -0.49999973649990176  0.15438677267727807 0.017282014747915204 -0.49999973649990176  0.15044435838341663 0.017581542723384649 -0.49999973649990176  0.14649527189374575 0.017799255408472599 -0.49999973649990176  0.14254570793445551 0.017908036959158644 -0.49999973649990176  0.13861369144028998 0.017848118833691324 -0.49999973649990176  0.13475204263694471 0.017636232074478345 -0.49999973649990176  0.130988888810155 0.01727537209453768 -0.49999973649990176  0.12734350671016903 0.016775384972791466 -0.49999973649990176  0.1238344700156473 0.016146954382389445 -0.49999973649990176  0.12047934608052971 0.015402885978294272 -0.49999973649990176  0.11729455429659828 0.014557473675867429 -0.49999973649990176  0.11429519181211781 0.013626282068246983 -0.49999973649990176  0.11149491760924778 0.012625800135627313 -0.49999973649990176  0.10890586727376579 0.011573097624414358 -0.49999973649990176  0.10653860189554439 0.01048546743532747 -0.49999973649990176  0.10440208503388791 0.0093800653710824512 -0.49999973649990176  0.10250367814693256 0.0082735501901368882 -0.49999973649990176  0.10084914294173686 0.0071817248579333533 -0.49999973649990176  0.099442620625588146 0.0061191579818745592 -0.49999973649990176  0.098286599841695632 0.0050987329077231292 -0.49999973649990176  0.097381775991331618 0.0041310231223615299 -0.49999973649990176  0.096727260350752436 0.003222861138391207 -0.49999973649990176  0.096321871274341886 0.0023756171185446151 -0.49999973649990176  0.096172227359496903 0.0015823085167770718 -0.49999973649990176  0.096303177772550014 0.0008565168508392287 -0.49999973649990176  0.096705868682277235 0.00024033958865345541 -0.49999973649990176  0.097350557020402254 -0.00023663885640992275 -0.49999973649990176  0.098207750583856654 -0.00058846815195609374 -0.49999973649990176  0.099274878430997637 -0.00083205694587329122 -0.49999973649990176  0.10055006619936593 -0.00097561259638190897 -0.49999973649990176  0.10202893429345344 -0.0010255847095786454 -0.49999973649990176  0.10370493440907799 -0.00098848914664872284 -0.49999973649990176  0.10557019923984817 -0.00087169540025990684 -0.49999973649990176  0.10761606357811848 -0.00068345081158425135 -0.49999973649990176  0.10983338086064884 -0.00043282259161130012 -0.49999973649990176  0.11221275027419612 -0.00012958599394192745 -0.49999973649990176  0.11474467806375063 0.00021589306738896733 -0.49999973649990176  0.11741969944886226 0.00059277683082415626 -0.49999973649990176  0.12022846436902224 0.00098987557168451318 -0.49999973649990176  0.1231617882279535 0.0013957699477178164 -0.49999973649990176  0.12621066691077207 0.0017989336870923014 -0.49999973649990176  0.12936626146755945 0.0021878811140880051 -0.49999973649990176  0.13261982815685086 0.0025512266319552518 -0.49999973649990176  0.13596268205787881 0.0028781813426094673 -0.49999973649990176  0.13938600047200456 0.0031572747071523287 -0.49999973649990176  0.14288909757536636 0.0033827610313432429 -0.49999973649990176  0.1464947907351962 0.0035322454119917652 -0.49999973649990176  0.15018942386152198 0.0036520664380313029 -0.49999973649990176  0.15395155396612814 0.0037588245148034655 -0.49999973649990176  0.15773565831506572 0.0038411514927853552 -0.49999973649990176  0.16152772168706958 0.0038973163994363361 -0.49999973649990176  0.16531380224332115 0.0039242518490406088 -0.49999973649990176  0.1690795517386493 0.003920302483653138 -0.49999973649990176  0.17281056103616149 0.003884538421493007 -0.49999973649990176  0.17649227982017898 0.0038169403388192179 -0.49999973649990176  0.18011014513983245 0.0037183327431170752 -0.49999973649990176  0.18364963031691345 0.0035903476299165779 -0.49999973649990176  0.18709632467403348 0.0034353558691978927 -0.49999973649990176  0.19043600574981184 0.0032563832275595969 -0.49999973649990176  0.19365471352142888 0.0030570123689829679 -0.49999973649990176  0.19673882378880672 0.0028412752739015498 -0.49999973649990176  0.19967512096098389 0.0026135401437958729 -0.49999973649990176  0.20245087020084959 0.0023783967172597942 -0.49999973649990176  0.20505388911565037 0.0021405435398760071 -0.49999973649990176  0.20747261828930325 0.0019046803270587904 -0.49999973649990176  0.20969619754532143 0.0016754069625786873 -0.49999973649990176  0.21171450589293556 0.0014571362592025094 -0.49999973649990176  0.21351835624074308 0.0012539970983635159 -0.49999973649990176  0.21509915601000151 0.0010698164262951551 -0.49999973649990176  0.21645001421350815 0.00090792711459429564 -0.49999973649990176  0.21756365515865464 0.00077139212613495532 -0.49999973649990176  0.21843602090857456 0.00066251755018526437 -0.49999973649990176  0.21906163649729105 0.00058340410289218624 -0.49999973649990176  0.21943848432905338 0.00053534764846795493 -0.49999973649990176  0.21960625369906064 0.00051384937501756001 -0.49999973649990176  0.21964824700940025 0.00050846827583512556 -0.49999973649990176 
 0 4 0.00049739984301800169 1 0.00198741502815918 1 0.0044635102977900153 1 0.0079148522906514057 1 0.012326395880791562 1 0.017679001628741791 1 0.023949581151797125 1 0.031111266611454625 1 0.039133600095283015 1 0.047982738444039219 1 0.057621669037433883 1 0.068010432190637585 1 0.079106346111928252 1 0.090864230813156949 1 0.10323662793382841 1 0.11617401412241497 1 0.129625006399325 1 0.14353655878335592 1 0.15785415036621575 1 0.17252196592359864 1 0.18748307099874312 1 0.20267958411747308 1 0.21805284932105037 1 0.2335436124699419 1 0.24909220473126328 1 0.26463873629818824 1 0.28012330272223812 1 0.29548620533261971 1 0.31104957869740602 1 0.3264784133363568 1 0.34162084310623081 1 0.35642269447770392 1 0.37082983330862862 1 0.38478841506599898 1 0.39824519846949297 1 0.41114792049166898 1 0.4234457334204193 1 0.43508970918060325 1 0.44603342303631127 1 0.45623363983425413 1 0.46565114465521051 1 0.47425179342967533 1 0.48200792301895584 1 0.48890038732574265 1 0.49492174892025381 1 0.50008171570891213 1 0.5044170938122049 1 0.50801066881149448 1 0.51102448248994026 1 0.51373719851529775 1 0.51644948617691111 1 0.51945299174717252 1 0.52300710312720133 1 0.52725421012781593 1 0.53225968459411821 1 0.5380450386039779 1 0.54460658329338163 1 0.55192538423716675 1 0.55997284499919975 1 0.56871411270903072 1 0.57811034666456584 1 0.58812034627883336 1 0.59870177875637987 1 0.60981212356491643 1 0.62140938996361605 1 0.63345263395937756 1 0.64590228737462307 1 0.65872030704952556 1 0.6718701528262635 1 0.68531660670748029 1 0.6990254509944126 1 0.7130608787820506 1 0.72766469754508867 1 0.74240472119014456 1 0.75722816342908195 1 0.7720813709306984 1 0.78690993897978068 1 0.8016588405242876 1 0.8162725697230786 1 0.83069530104595679 1 0.84487106493198205 1 0.85874394092667017 1 0.87225826905527759 1 0.88535887992530748 1 0.89799134367799749 1 0.91010223742768348 1 0.92163943024868977 1 0.93255238410553998 1 0.94279246839147035 1 0.9523132849642475 1 0.96107099977450028 1 0.96902467640447243 1 0.976136606116213 1 0.98237262839640516 1 0.98770243553302772 1 0.99209985451897442 1 0.995543099595391 1 0.99801498905577624 1 0.99950312054529189 1 1 4
7 0 0  1 2 2  0.21964824700940025 0.00050846827583512556 -0.49999973649990176  0.076633441206528236 -9.3328144071871727e-05 0 
 0 2 1 2
7 0 0  3 103 101  0.076683216216699907 9.3328144071871727e-05 0  0.076658905346204648 0.0001034667862028215 0  0.076561763993795662 0.00014397876409999035 0  0.076343403836220083 0.00023471597627029519 0  0.075980460521242285 0.0003846020355194775 0  0.075473441780180686 0.00059198855149407436 0  0.07482464433205438 0.0008540074797122743 0  0.074035335508558966 0.0011677332367426626 0  0.073108489986659697 0.0015291239255738644 0  0.0720467319307459 0.0019339351459346918 0  0.070853593419092517 0.0023772692873489927 0  0.069532912530202662 0.0028539004529964237 0  0.068089074844174327 0.0033582501880288639 0  0.066526941252926242 0.0038844931886601367 0  0.064851863849645294 0.0044266239773054937 0  0.063069677632378585 0.0049785299124471567 0  0.061186692581625839 0.0055340593360839376 0  0.05920968224702429 0.0060870859521521947 0  0.05714586959947305 0.0066315690320021903 0  0.055002910418031271 0.0071616096223574366 0  0.052788874428993014 0.0076715032234191266 0  0.050512224588365746 0.0081557896508574479 0  0.04818179307361916 0.0086093006995808033 0  0.045806759922801643 0.0090272077785190693 0  0.043396611602481393 0.0094050624038736989 0  0.040961146660088175 0.0097388680584691804 0  0.03851035122219483 0.010025017036403207 0  0.036054547675878672 0.010260766143801723 0  0.033603970984673534 0.01044264651433696 0  0.031149336262600399 0.010573670586935818 0  0.028694523030068326 0.010636992306219726 0  0.026250798849012616 0.010595484466327413 0  0.023850973878954265 0.010459602919410935 0  0.021512526269606681 0.010231239877301233 0  0.01924742603444245 0.0099165357050451704 0  0.01706720531143022 0.0095221505780635988 0  0.014982768493883919 0.0090560624132449714 0  0.013004304889207679 0.0085271728507397004 0  0.011141180637395234 0.0079451718349155265 0  0.0094018670398231287 0.0073203222652357819 0  0.0077938879607371081 0.0066632463398087977 0  0.006323788456544392 0.0059847032403999014 0  0.0049971208505749541 0.0052953652068592691 0  0.0038184422831182125 0.0046055938218129344 0  0.0027913165614410818 0.0039252170471234362 0  0.001918301675181235 0.0032632939192602721 0  0.0012009303574901417 0.0026278342732092182 0  0.00063962333026203568 0.0020254103960775484 0  0.00023382082591728487 0.0014602678009518661 0  -1.7213047882345722e-05 0.00093325677560147631 0  -0.00010935718452216255 0.00044004477921884538 0  -2.7182310592342987e-05 -1.0900160284735187e-05 0  0.00022376312985385944 -0.00039342363856387122 0  0.00062496139687259441 -0.00068917091977452208 0  0.0011580980295091241 -0.00090690603173483391 0  0.0018215935146376691 -0.001057140665975907 0  0.0026142918253316823 -0.0011449778157191499 0  0.0035334779982278295 -0.0011744307322909247 0  0.0045750892668432238 -0.0011495561993217407 0  0.0057342440176732269 -0.0010749429730451305 0  0.0070055656861515358 -0.0009557262677875963 0  0.0083833794301415229 -0.00079755137800866091 0  0.0098618531570421504 -0.00060650393000990881 0  0.011435097651122463 -0.00038903675259287809 0  0.01309724221682026 -0.00015189590125950708 0  0.014842487840258926 9.7953944266223741e-05 0  0.016665138594549753 0.00035340557415324035 0  0.018559610839939594 0.00060728551663044496 0  0.02052042354435625 0.00085244571011544481 0  0.022542154740140475 0.0010818003964949243 0  0.024619418369608497 0.0012886347359415272 0  0.026746743484597206 0.0014658100922055645 0  0.028923710075230789 0.0016097547120057008 0  0.031164523682067555 0.0017065746973189688 0  0.033460646603579933 0.0017850551406636025 0  0.035798733779863756 0.0018554900911263036 0  0.038150504697275163 0.0019107647115969295 0  0.040507250628692038 0.0019497879714512124 0  0.042860309905588867 0.0019706383250065354 0  0.045200766740938397 0.0019722713754089594 0  0.047519666715388757 0.0019540935507032491 0  0.049807966677114582 0.0019160770469976364 0  0.052056614705431346 0.0018587184965845999 0  0.054256580546984096 0.0017830164333630014 0  0.056398905242107319 0.0016904287353169975 0  0.058474746098472467 0.0015828205098062864 0  0.060475422927553604 0.0014624032665866476 0  0.06239246377043671 0.0013316681347973404 0  0.064217650258071982 0.0011933156519960278 0  0.065943062574464278 0.0010501845652102777 0  0.067561124135435621 0.00090518184580876441 0  0.069064645542029957 0.00076121586844749055 0  0.07044687208835064 0.0006211337203818958 0  0.071701508683186921 0.00048766702465609862 0  0.072822840971715291 0.00036337195175522989 0  0.073805524422667676 0.0002506176616196103 0  0.074645272597952672 0.00015146808868784671 0  0.075337560254039704 6.7818998727381565e-05 0  0.075879862837685469 1.0992454627031961e-06 0  0.076268775320216961 -4.7391497064251691e-05 0  0.076503042338226315 -7.6850025790556185e-05 0  0.076607336085562819 -9.00293174969473e-05 0  0.076633441206528236 -9.3328144071871727e-05 0 
 0 4 0.00049739984301800169 1 0.00198741502815918 1 0.0044635102977900153 1 0.0079148522906514057 1 0.012326395880791562 1 0.017679001628741791 1 0.023949581151797125 1 0.031111266611454625 1 0.039133600095283015 1 0.047982738444039219 1 0.057621669037433883 1 0.068010432190637585 1 0.079106346111928252 1 0.090864230813156949 1 0.10323662793382841 1 0.11617401412241497 1 0.129625006399325 1 0.14353655878335592 1 0.15785415036621575 1 0.17252196592359864 1 0.18748307099874312 1 0.20267958411747308 1 0.21805284932105037 1 0.2335436124699419 1 0.24909220473126328 1 0.26463873629818824 1 0.28012330272223812 1 0.29548620533261971 1 0.31104957869740602 1 0.3264784133363568 1 0.34162084310623081 1 0.35642269447770392 1 0.37082983330862862 1 0.38478841506599898 1 0.39824519846949297 1 0.41114792049166898 1 0.4234457334204193 1 0.43508970918060325 1 0.44603342303631127 1 0.45623363983425413 1 0.46565114465521051 1 0.47425179342967533 1 0.48200792301895584 1 0.48890038732574265 1 0.49492174892025381 1 0.50008171570891213 1 0.5044170938122049 1 0.50801066881149448 1 0.51102448248994026 1 0.51373719851529775 1 0.51644948617691111 1 0.51945299174717252 1 0.52300710312720133 1 0.52725421012781593 1 0.53225968459411821 1 0.5380450386039779 1 0.54460658329338163 1 0.55192538423716675 1 0.55997284499919975 1 0.56871411270903072 1 0.57811034666456584 1 0.58812034627883336 1 0.59870177875637987 1 0.60981212356491643 1 0.62140938996361605 1 0.63345263395937756 1 0.64590228737462307 1 0.65872030704952556 1 0.6718701528262635 1 0.68531660670748029 1 0.6990254509944126 1 0.7130608787820506 1 0.72766469754508867 1 0.74240472119014456 1 0.75722816342908195 1 0.7720813709306984 1 0.78690993897978068 1 0.8016588405242876 1 0.8162725697230786 1 0.83069530104595679 1 0.84487106493198205 1 0.85874394092667017 1 0.87225826905527759 1 0.88535887992530748 1 0.89799134367799749 1 0.91010223742768348 1 0.92163943024868977 1 0.93255238410553998 1 0.94279246839147035 1 0.9523132849642475 1 0.96107099977450028 1 0.96902467640447243 1 0.976136606116213 1 0.98237262839640516 1 0.98770243553302772 1 0.99209985451897442 1 0.995543099595391 1 0.99801498905577624 1 0.99950312054529189 1 1 4
1 0.21964824700940025 0.00050846827583512556 -0.49999973649990176 0.25934979332155628 0.96578345642492047 0 
1 0.076633441206528236 -9.3328144071871727e-05 0 0.25766265056033705 0.96623493960124507 0 
Polygon3D 0
PolygonOnTriangulations 0
Surfaces 5
9 0 0 0 0 3 1 53 2 51 2 0.21972885845648749 0.00080865437198834357 -0.49999973649990176  0.076683216216699907 9.3328144071871727e-05 0  
0.21968977127725312 0.0008250355458485582 -0.49999973649990176  0.076658905346204648 0.0001034667862028215 0  
0.21953358676492526 0.00089049142688972082 -0.49999973649990176  0.076561763993795662 0.00014397876409999035 0  
0.21918250492979952 0.0010370992703396655 -0.49999973649990176  0.076343403836220083 0.00023471597627029519 0  
0.21859895810589394 0.0012792826340978286 -0.49999973649990176  0.075980460521242285 0.0003846020355194775 0  
0.21778375858988713 0.001614387866626713 -0.49999973649990176  0.075473441780180686 0.00059198855149407436 0  
0.21674059369399559 0.0020377938917988279 -0.49999973649990176  0.07482464433205438 0.0008540074797122743 0  
0.21547149430659585 0.0025447899472267272 -0.49999973649990176  0.074035335508558966 0.0011677332367426626 0  
0.21398123526107696 0.00312886434808444 -0.49999973649990176  0.073108489986659697 0.0015291239255738644 0  
0.21227402685454899 0.003783180571113375 -0.49999973649990176  0.0720467319307459 0.0019339351459346918 0  
0.21035553836252957 0.0044998485405042601 -0.49999973649990176  0.070853593419092517 0.0023772692873489927 0  
0.20823193048583144 0.0052704491148631736 -0.49999973649990176  0.069532912530202662 0.0028539004529964237 0  
0.20591024385288204 0.0060859943559506101 -0.49999973649990176  0.068089074844174327 0.0033582501880288639 0  
0.20339828316497599 0.006937097815202335 -0.49999973649990176  0.066526941252926242 0.0038844931886601367 0  
0.20070464294941948 0.0078140817679495031 -0.49999973649990176  0.064851863849645294 0.0044266239773054937 0  
0.19783869441595178 0.0087070947080418598 -0.49999973649990176  0.063069677632378585 0.0049785299124471567 0  
0.19481057290126272 0.0096062210178969199 -0.49999973649990176  0.061186692581625839 0.0055340593360839376 0  
0.19163115968612213 0.01050158458407255 -0.49999973649990176  0.05920968224702429 0.0060870859521521947 0  
0.18831205940093459 0.011383445706345493 -0.49999973649990176  0.05714586959947305 0.0066315690320021903 0  
0.18486557345356419 0.012242291581798164 -0.49999973649990176  0.055002910418031271 0.0071616096223574366 0  
0.18130466983054044 0.013068921115761125 -0.49999973649990176  0.052788874428993014 0.0076715032234191266 0  
0.17764294990312729 0.013854525206907088 -0.49999973649990176  0.050512224588365746 0.0081557896508574479 0  
0.17389460993250078 0.014590763504699943 -0.49999973649990176  0.04818179307361916 0.0086093006995808033 0  
0.17007440683440367 0.015269841112766617 -0.49999973649990176  0.045806759922801643 0.0090272077785190693 0  
0.1661975916296401 0.015884573858097061 -0.49999973649990176  0.043396611602481393 0.0094050624038736989 0  
0.16227991874050396 0.016428503895317571 -0.49999973649990176  0.040961146660088175 0.0097388680584691804 0  
0.15833744549270895 0.016895798440947782 -0.49999973649990176  0.03851035122219483 0.010025017036403207 0  
0.15438677267727807 0.017282014747915204 -0.49999973649990176  0.036054547675878672 0.010260766143801723 0  
0.15044435838341663 0.017581542723384649 -0.49999973649990176  0.033603970984673534 0.01044264651433696 0  
0.14649527189374575 0.017799255408472599 -0.49999973649990176  0.031149336262600399 0.010573670586935818 0  
0.14254570793445551 0.017908036959158644 -0.49999973649990176  0.028694523030068326 0.010636992306219726 0  
0.13861369144028998 0.017848118833691324 -0.49999973649990176  0.026250798849012616 0.010595484466327413 0  
0.13475204263694471 0.017636232074478345 -0.49999973649990176  0.023850973878954265 0.010459602919410935 0  
0.130988888810155 0.01727537209453768 -0.49999973649990176  0.021512526269606681 0.010231239877301233 0  
0.12734350671016903 0.016775384972791466 -0.49999973649990176  0.01924742603444245 0.0099165357050451704 0  
0.1238344700156473 0.016146954382389445 -0.49999973649990176  0.01706720531143022 0.0095221505780635988 0  
0.12047934608052971 0.015402885978294272 -0.49999973649990176  0.014982768493883919 0.0090560624132449714 0  
0.11729455429659828 0.014557473675867429 -0.49999973649990176  0.013004304889207679 0.0085271728507397004 0  
0.11429519181211781 0.013626282068246983 -0.49999973649990176  0.011141180637395234 0.0079451718349155265 0  
0.11149491760924778 0.012625800135627313 -0.49999973649990176  0.0094018670398231287 0.0073203222652357819 0  
0.10890586727376579 0.011573097624414358 -0.49999973649990176  0.0077938879607371081 0.0066632463398087977 0  
0.10653860189554439 0.01048546743532747 -0.49999973649990176  0.006323788456544392 0.0059847032403999014 0  
0.10440208503388791 0.0093800653710824512 -0.49999973649990176  0.0049971208505749541 0.0052953652068592691 0  
0.10250367814693256 0.0082735501901368882 -0.49999973649990176  0.0038184422831182125 0.0046055938218129344 0  
0.10084914294173686 0.0071817248579333533 -0.49999973649990176  0.0027913165614410818 0.0039252170471234362 0  
0.099442620625588146 0.0061191579818745592 -0.49999973649990176  0.001918301675181235 0.0032632939192602721 0  
0.098286599841695632 0.0050987329077231292 -0.49999973649990176  0.0012009303574901417 0.0026278342732092182 0  
0.097381775991331618 0.0041310231223615299 -0.49999973649990176  0.00063962333026203568 0.0020254103960775484 0  
0.096727260350752436 0.003222861138391207 -0.49999973649990176  0.00023382082591728487 0.0014602678009518661 0  
0.096321871274341886 0.0023756171185446151 -0.49999973649990176  -1.7213047882345722e-05 0.00093325677560147631 0  
0.096172227359496903 0.0015823085167770718 -0.49999973649990176  -0.00010935718452216255 0.00044004477921884538 0  
0.096261089512634998 0.0010897907105234109 -0.49999973649990176  -5.3593815312365161e-05 0.00013403628839592401 0  
0.096346943485097397 0.00087397835844016684 -0.49999973649990181  -4.1823685739184914e-10 -1.4484016846408754e-10 0  

0 4
0.00049739984301800169 1
0.00198741502815918 1
0.0044635102977900153 1
0.0079148522906514057 1
0.012326395880791562 1
0.017679001628741791 1
0.023949581151797125 1
0.031111266611454625 1
0.039133600095283015 1
0.047982738444039219 1
0.057621669037433883 1
0.068010432190637585 1
0.079106346111928252 1
0.090864230813156949 1
0.10323662793382841 1
0.11617401412241497 1
0.129625006399325 1
0.14353655878335592 1
0.15785415036621575 1
0.17252196592359864 1
0.18748307099874312 1
0.20267958411747308 1
0.21805284932105037 1
0.2335436124699419 1
0.24909220473126328 1
0.26463873629818824 1
0.28012330272223812 1
0.29548620533261971 1
0.31104957869740602 1
0.3264784133363568 1
0.34162084310623081 1
0.35642269447770392 1
0.37082983330862862 1
0.38478841506599898 1
0.39824519846949297 1
0.41114792049166898 1
0.4234457334204193 1
0.43508970918060325 1
0.44603342303631127 1
0.45623363983425413 1
0.46565114465521051 1
0.47425179342967533 1
0.48200792301895584 1
0.48890038732574265 1
0.49492174892025381 1
0.50008171570891213 1
0.5044170938122049 1
0.50801066881149448 1
0.51102448248994026 1
0.51373719851529775 4

0 2
1 2

9 0 0 0 0 3 1 53 2 51 2 0.096346943485097397 0.00087397835844016684 -0.49999973649990181  -4.1823685739184914e-10 -1.4484016846408754e-10 0  
0.096432783875769618 0.00065820014709609144 -0.49999973649990181  5.3584500555674201e-05 -0.00013401537399381603 0  
0.096705868682277235 0.00024033958865345541 -0.49999973649990176  0.00022376312985385944 -0.00039342363856387122 0  
0.097350557020402254 -0.00023663885640992275 -0.49999973649990176  0.00062496139687259441 -0.00068917091977452208 0  
0.098207750583856654 -0.00058846815195609374 -0.49999973649990176  0.0011580980295091241 -0.00090690603173483391 0  
0.099274878430997637 -0.00083205694587329122 -0.49999973649990176  0.0018215935146376691 -0.001057140665975907 0  
0.10055006619936593 -0.00097561259638190897 -0.49999973649990176  0.0026142918253316823 -0.0011449778157191499 0  
0.10202893429345344 -0.0010255847095786454 -0.49999973649990176  0.0035334779982278295 -0.0011744307322909247 0  
0.10370493440907799 -0.00098848914664872284 -0.49999973649990176  0.0045750892668432238 -0.0011495561993217407 0  
0.10557019923984817 -0.00087169540025990684 -0.49999973649990176  0.0057342440176732269 -0.0010749429730451305 0  
0.10761606357811848 -0.00068345081158425135 -0.49999973649990176  0.0070055656861515358 -0.0009557262677875963 0  
0.10983338086064884 -0.00043282259161130012 -0.49999973649990176  0.0083833794301415229 -0.00079755137800866091 0  
0.11221275027419612 -0.00012958599394192745 -0.49999973649990176  0.0098618531570421504 -0.00060650393000990881 0  
0.11474467806375063 0.00021589306738896733 -0.49999973649990176  0.011435097651122463 -0.00038903675259287809 0  
0.11741969944886226 0.00059277683082415626 -0.49999973649990176  0.01309724221682026 -0.00015189590125950708 0  
0.12022846436902224 0.00098987557168451318 -0.49999973649990176  0.014842487840258926 9.7953944266223741e-05 0  
0.1231617882279535 0.0013957699477178164 -0.49999973649990176  0.016665138594549753 0.00035340557415324035 0  
0.12621066691077207 0.0017989336870923014 -0.49999973649990176  0.018559610839939594 0.00060728551663044496 0  
0.12936626146755945 0.0021878811140880051 -0.49999973649990176  0.02052042354435625 0.00085244571011544481 0  
0.13261982815685086 0.0025512266319552518 -0.49999973649990176  0.022542154740140475 0.0010818003964949243 0  
0.13596268205787881 0.0028781813426094673 -0.49999973649990176  0.024619418369608497 0.0012886347359415272 0  
0.13938600047200456 0.0031572747071523287 -0.49999973649990176  0.026746743484597206 0.0014658100922055645 0  
0.14288909757536636 0.0033827610313432429 -0.49999973649990176  0.028923710075230789 0.0016097547120057008 0  
0.1464947907351962 0.0035322454119917652 -0.49999973649990176  0.031164523682067555 0.0017065746973189688 0  
0.15018942386152198 0.0036520664380313029 -0.49999973649990176  0.033460646603579933 0.0017850551406636025 0  
0.15395155396612814 0.0037588245148034655 -0.49999973649990176  0.035798733779863756 0.0018554900911263036 0  
0.15773565831506572 0.0038411514927853552 -0.49999973649990176  0.038150504697275163 0.0019107647115969295 0  
0.16152772168706958 0.0038973163994363361 -0.49999973649990176  0.040507250628692038 0.0019497879714512124 0  
0.16531380224332115 0.0039242518490406088 -0.49999973649990176  0.042860309905588867 0.0019706383250065354 0  
0.1690795517386493 0.003920302483653138 -0.49999973649990176  0.045200766740938397 0.0019722713754089594 0  
0.17281056103616149 0.003884538421493007 -0.49999973649990176  0.047519666715388757 0.0019540935507032491 0  
0.17649227982017898 0.0038169403388192179 -0.49999973649990176  0.049807966677114582 0.0019160770469976364 0  
0.18011014513983245 0.0037183327431170752 -0.49999973649990176  0.052056614705431346 0.0018587184965845999 0  
0.18364963031691345 0.0035903476299165779 -0.49999973649990176  0.054256580546984096 0.0017830164333630014 0  
0.18709632467403348 0.0034353558691978927 -0.49999973649990176  0.056398905242107319 0.0016904287353169975 0  
0.19043600574981184 0.0032563832275595969 -0.49999973649990176  0.058474746098472467 0.0015828205098062864 0  
0.19365471352142888 0.0030570123689829679 -0.49999973649990176  0.060475422927553604 0.0014624032665866476 0  
0.19673882378880672 0.0028412752739015498 -0.49999973649990176  0.06239246377043671 0.0013316681347973404 0  
0.19967512096098389 0.0026135401437958729 -0.49999973649990176  0.064217650258071982 0.0011933156519960278 0  
0.20245087020084959 0.0023783967172597942 -0.49999973649990176  0.065943062574464278 0.0010501845652102777 0  
0.20505388911565037 0.0021405435398760071 -0.49999973649990176  0.067561124135435621 0.00090518184580876441 0  
0.20747261828930325 0.0019046803270587904 -0.49999973649990176  0.069064645542029957 0.00076121586844749055 0  
0.20969619754532143 0.0016754069625786873 -0.49999973649990176  0.07044687208835064 0.0006211337203818958 0  
0.21171450589293556 0.0014571362592025094 -0.49999973649990176  0.071701508683186921 0.00048766702465609862 0  
0.21351835624074308 0.0012539970983635159 -0.49999973649990176  0.072822840971715291 0.00036337195175522989 0  
0.21509915601000151 0.0010698164262951551 -0.49999973649990176  0.073805524422667676 0.0002506176616196103 0  
0.21645001421350815 0.00090792711459429564 -0.49999973649990176  0.074645272597952672 0.00015146808868784671 0  
0.21756365515865464 0.00077139212613495532 -0.49999973649990176  0.075337560254039704 6.7818998727381565e-05 0  
0.21843602090857456 0.00066251755018526437 -0.49999973649990176  0.075879862837685469 1.0992454627031961e-06 0  
0.21906163649729105 0.00058340410289218624 -0.49999973649990176  0.076268775320216961 -4.7391497064251691e-05 0  
0.21943848432905338 0.00053534764846795493 -0.49999973649990176  0.076503042338226315 -7.6850025790556185e-05 0  
0.21960625369906064 0.00051384937501756001 -0.49999973649990176  0.076607336085562819 -9.00293174969473e-05 0  
0.21964824700940025 0.00050846827583512556 -0.49999973649990176  0.076633441206528236 -9.3328144071871727e-05 0  

0.51373719851529775 4
0.51644948617691111 1
0.51945299174717252 1
0.52300710312720133 1
0.52725421012781593 1
0.53225968459411821 1
0.5380450386039779 1
0.54460658329338163 1
0.55192538423716675 1
0.55997284499919975 1
0.56871411270903072 1
0.57811034666456584 1
0.58812034627883336 1
0.59870177875637987 1
0.60981212356491643 1
0.62140938996361605 1
0.63345263395937756 1
0.64590228737462307 1
0.65872030704952556 1
0.6718701528262635 1
0.68531660670748029 1
0.6990254509944126 1
0.7130608787820506 1
0.72766469754508867 1
0.74240472119014456 1
0.75722816342908195 1
0.7720813709306984 1
0.78690993897978068 1
0.8016588405242876 1
0.8162725697230786 1
0.83069530104595679 1
0.84487106493198205 1
0.85874394092667017 1
0.87225826905527759 1
0.88535887992530748 1
0.89799134367799749 1
0.91010223742768348 1
0.92163943024868977 1
0.93255238410553998 1
0.94279246839147035 1
0.9523132849642475 1
0.96107099977450028 1
0.96902467640447243 1
0.976136606116213 1
0.98237262839640516 1
0.98770243553302772 1
0.99209985451897442 1
0.995543099595391 1
0.99801498905577624 1
0.99950312054529189 1
1 4

0 2
1 2

9 0 0 0 0 1 1 2 2 2 2 0.21964824700940025 0.00050846827583512556 -0.49999973649990176  0.076633441206528236 -9.3328144071871727e-05 0  
0.21972885845648751 0.00080865437198834357 -0.49999973649990176  0.076683216216699907 9.3328144071871727e-05 0  

0 2
0.00031082132765498905 2

0 2
1 2

1 0.21972885845648749 0.00080865437198834357 -0.49999973649990176 -5.0960289558248534e-16 -5.5305494301205356e-15 -1 -0.99994138051503867 0.01082753590059622 4.4969080041855941e-16 0.01082753590059622 0.99994138051503867 -5.5357429758083558e-15 
1 0.076683216216699907 9.3328144071871727e-05 0 0 0 -1 -0.99995876582386478 0.0090811151304850974 0 0.0090811151304850974 0.99995876582386478 0 
Triangulations 0

TShapes 28
Ve
1e-07
0.219728858456487 0.000808654371988344 -0.499999736499902
0 0

0101101
*
Ve
1e-07
0.0963469441584386 0.000873978590309609 -0.499999736499902
0 0

0101101
*
Ed
 1e-07 1 1 0
1  1 0 0 0.513737198904424
2  1 1 0 0 0.513737198904424
0

0101000
+28 0 -27 0 *
Ve
1e-07
0 0 0
0 0

0101101
*
Ed
 1e-07 1 1 0
1  2 0 0 1
2  2 1 0 0 1
2  3 2 0 0 1
4 C1 1 0 2 0
0

0101000
+27 0 -25 0 *
Ve
1e-07
0.0766832162166999 9.33281440718717e-05 0
0 0

0101101
*
Ed
 1e-07 1 1 0
1  3 0 0 0.513737198904424
2  4 1 0 0 0.513737198904424
0

0101000
+23 0 -25 0 *
Ed
 1e-07 1 1 0
1  4 0 0 1
2  5 1 0 0 1
2  6 3 0 0 1
0

0101000
+28 0 -23 0 *
Wi

0101000
+26 0 +24 0 -22 0 -21 0 *
Fa
0  1e-07 1 0

0111000
+20 0 *
Ve
1e-07
0.2196482470094 0.000508468275835126 -0.499999736499902
0 0

0101101
*
Ed
 1e-07 1 1 0
1  5 0 0.513737198904424 1
2  7 2 0 0.513737198904424 1
0

0101000
+27 0 -18 0 *
Ve
1e-07
0.0766334412065282 -9.33281440718717e-05 0
0 0

0101101
*
Ed
 1e-07 1 1 0
1  6 0 0 1
2  8 2 0 0 1
2  9 3 0 0 1
0

0101000
+18 0 -16 0 *
Ed
 1e-07 1 1 0
1  7 0 0.513737198904424 1
2  10 2 0 0.513737198904424 1
0

0101000
+25 0 -16 0 *
Wi

0101000
+17 0 +15 0 -14 0 -24 0 *
Fa
0  1e-07 2 0

0111000
+13 0 *
Ed
 1e-07 1 1 0
1  8 0 0 0.000310821327654989
2  11 3 0 0 0.000310821327654989
0

0101000
+18 0 -28 0 *
Ed
 1e-07 1 1 0
1  9 0 0 0.000193178988353262
2  12 3 0 0 0.000193178988353262
0

0101000
+16 0 -23 0 *
Wi

0101000
+11 0 +21 0 -10 0 -15 0 *
Fa
0  1e-07 3 0

0111000
+9 0 *
Wi

0101100
+26 0 +17 0 +11 0 *
Fa
0  1e-07 4 0

0111000
-7 0 *
Wi

0101100
+22 0 +14 0 +10 0 *
Fa
0  1e-07 5 0

0111000
-5 0 *
Sh

0101100
+19 0 +12 0 +8 0 +6 0 -4 0 *
So

0100100
+3 0 *
Co

1100000
+2 0 *

+1 0 
##EGADS HEADER FILE-REV 1 ##
12
2 15 1
_cfgpmtr_series
 8.412000000000e+03
2 14 1
_cfgpmtr_nspar
 3.000000000000e+00
2 13 1
_cfgpmtr_nrib
 8.000000000000e+00
2 17 1
_cfgpmtr_onesolid
 1.000000000000e+00
2 13 1
_despmtr_area
 1.000000100000e-01
2 15 1
_despmtr_aspect
 9.999988460000e+00
2 14 1
_despmtr_taper
 1.608981030000e+00
2 14 1
_despmtr_twist
 1.000675100000e-01
2 16 1
_despmtr_lesweep
 1.090686940000e+01
2 17 1
_despmtr_dihedral
 1.001505200000e-01
2 17 4
_cfgpmtr_faceList
 4.400000000000e+01  4.500000000000e+01  5.000000000000e+01  5.300000000000e+01 
2 17 24
_cfgpmtr_edgeList
 9.500000000000e+01  7.700000000000e+01  5.900000000000e+01  4.100000000000e+01  2.300000000000e+01  1.000000000000e+01  1.000000000000e+00  1.180000000000e+02  1.030000000000e+02  8.500000000000e+01  9.000000000000e+01  4.900000000000e+01  3.100000000000e+01  1.800000000000e+01  1.310000000000e+02  1.230000000000e+02  1.080000000000e+02  6.700000000000e+01  7.200000000000e+01  5.400000000000e+01  3.600000000000e+01  3.600000000000e+01  3.600000000000e+01  3.600000000000e+01 
  1  1  5  5  9  6  3
2 3 1
OML
 0.000000000000e+00
1 5 1
_body
7
1 5 1
_brch
18
    2 0 6
1 5 2
_body
7 3 
1 5 2
_brch
18 3 
2 3 1
OML
 0.000000000000e+00
1 5 1
_hist
7
1 7 3
_faceID
7 3 1 
1 9 2
__trace__
7 1 
    2 1 6
1 5 2
_body
7 4 
1 5 2
_brch
18 4 
2 3 1
OML
 0.000000000000e+00
1 5 1
_hist
7
1 7 3
_faceID
7 4 1 
1 9 2
__trace__
7 2 
    2 2 6
1 5 2
_body
7 5 
1 5 2
_brch
18 5 
2 3 1
OML
 0.000000000000e+00
1 5 1
_hist
7
1 7 3
_faceID
7 5 1 
1 9 2
__trace__
7 3 
    2 3 6
1 5 2
_body
7 1 
1 5 2
_brch
18 1 
2 3 1
OML
 0.000000000000e+00
1 5 1
_hist
7
1 7 3
_faceID
7 1 1 
1 9 2
__trace__
7 4 
    2 4 6
1 5 2
_body
7 2 
1 5 2
_brch
18 2 
2 3 1
OML
 0.000000000000e+00
1 5 1
_hist
7
1 7 3
_faceID
7 2 1 
1 9 2
__trace__
7 5 
    4 0 4
1 5 2
_body
7 30001 
1 7 5
_edgeID
7 1 7 3 1 
1 6 1
_nface
2
1 9 2
__trace__
7 1 
    4 1 4
1 5 2
_body
7 30004 
1 7 5
_edgeID
7 3 7 4 1 
1 6 1
_nface
2
1 9 2
__trace__
7 2 
    4 2 4
1 5 2
_body
7 20003 
1 7 5
_edgeID
7 2 7 3 1 
1 6 1
_nface
2
1 9 2
__trace__
7 3 
    4 3 4
1 5 2
_body
7 50003 
1 7 5
_edgeID
7 3 7 5 1 
1 6 1
_nface
2
1 9 2
__trace__
7 4 
    4 4 4
1 5 2
_body
7 40001 
1 7 5
_edgeID
7 1 7 4 1 
1 6 1
_nface
2
1 9 2
__trace__
7 5 
    4 5 4
1 5 2
_body
7 40005 
1 7 5
_edgeID
7 4 7 5 1 
1 6 1
_nface
2
1 9 2
__trace__
7 6 
    4 6 4
1 5 2
_body
7 20004 
1 7 5
_edgeID
7 2 7 4 1 
1 6 1
_nface
2
1 9 2
__trace__
7 7 
    4 7 4
1 5 2
_body
7 50001 
1 7 5
_edgeID
7 1 7 5 1 
1 6 1
_nface
2
1 9 2
__trace__
7 8 
    4 8 4
1 5 2
_body
7 20005 
1 7 5
_edgeID
7 2 7 5 1 
1 6 1
_nface
2
1 9 2
__trace__
7 9 
    5 0 3
1 9 10
__trace__
3 1 4 1 5 1 6 1 7 1 
1 7 1
_nodeID
1
1 6 1
_nedge
3
    5 1 3
1 9 10
__trace__
3 2 4 2 5 2 6 2 7 2 
1 7 1
_nodeID
2
1 6 1
_nedge
3
    5 2 3
1 9 6
__trace__
1 2 2 2 7 3 
1 7 1
_nodeID
3
1 6 1
_nedge
3
    5 3 3
1 9 6
__trace__
1 1 2 1 7 4 
1 7 1
_nodeID
4
1 6 1
_nedge
3
    5 4 3
1 9 10
__trace__
3 3 4 3 5 3 6 3 7 5 
1 7 1
_nodeID
5
1 6 1
_nedge
3
    5 5 3
1 9 6
__trace__
1 3 2 3 7 6 
1 7 1
_nodeID
6
1 6 1
_nedge
3
    0 0 0
