DBRep_DrawableShape

CASCADE Topology V1, (c) Matra-Datavision
Locations 0
Curve2ds 12
1 0 0 1 0 
1 0.51373719851529775 0 0 1 
1 0.51373719851529775 0 0 1 
1 0 1 1 0 
1 0 0 0 1 
1 0.0073332179660011267 0 0 1 
1 0 0 1 0 
1 1 0 0 1 
1 0 0 0 1 
1 0 1 1 0 
7 0 0  1 2 2  0 0  0.0073332179660011267 0 
 0 2 7.3777044194666175e-06 2
1 0 1 1 0 
Curves 9
7 0 0  3 103 101  3.2969102031879598 1.0051925019037291 -6.0077641150710397  3.2969092943790899 1.0051929332122083 -6.0077641150710397  3.2969056629615046 1.0051946566342678 -6.0077641150710397  3.2968974994421472 1.0051985181319238 -6.0077641150710397  3.2968839288924969 1.0052049009294026 -6.0077641150710397  3.2968649676603521 1.0052137412150803 -6.0077641150710397  3.2968406981031007 1.0052249253728462 -6.0077641150710397  3.296811163204612 1.005238339477984 -6.0077641150710397  3.2967764690332975 1.0052538238930349 -6.0077641150710397  3.2967367079154677 1.0052712118979492 -6.0077641150710397  3.2966920056146636 1.0052903101909023 -6.0077641150710397  3.2966424989658498 1.0053109123861772 -6.0077641150710397  3.2965883450434994 1.0053327976457227 -6.0077641150710397  3.2965297186014793 1.0053557348439301 -6.0077641150710397  3.2964668128013646 1.0053794850819753 -6.0077641150710397  3.2963998390297453 1.0054038044881308 -6.0077641150710397  3.2963290267208909 1.0054284468319092 -6.0077641150710397  3.2962546230393359 1.0054531660008217 -6.0077641150710397  3.2961768924505073 1.0054777183229666 -6.0077641150710397  3.2960961161899829 1.0055018647416389 -6.0077641150710397  3.2960125916405372 1.0055253728594062 -6.0077641150710397  3.2959266316331979 1.005548018878162 -6.0077641150710397  3.2958385636187457 1.0055695894613506 -6.0077641150710397  3.2957487289401515 1.005589883590237 -6.0077641150710397  3.2956574813262671 1.0056087141845294 -6.0077641150710397  3.2955651872391276 1.005625910833241 -6.0077641150710397  3.2954722210088483 1.0056413176136496 -6.0077641150710397  3.2953789713770907 1.0056548109654162 -6.0077641150710397  3.2952858224207855 1.0056662398061471 -6.0077641150710397  3.2951924254692542 1.0056757360658795 -6.0077641150710397  3.2950988976445914 1.0056826500082905 -6.0077641150710397  3.2950056007359287 1.0056855446927129 -6.0077641150710397  3.2949138055139455 1.0056847588548707 -6.0077641150710397  3.2948241821857809 1.0056803326486148 -6.0077641150710397  3.2947371986241496 1.0056724783758422 -6.0077641150710397  3.2946533069506549 1.0056614289700774 -6.0077641150710397  3.2945729377550408 1.0056474687831147 -6.0077641150710397  3.2944964960413463 1.0056309187144412 -6.0077641150710397  3.2944243568567662 1.0056121312434581 -6.0077641150710397  3.2943568621629802 1.0055914823458856 -6.0077641150710397  3.2942943184381539 1.0055693634397873 -6.0077641150710397  3.2942369950728514 1.0055461729623985 -6.0077641150710397  3.2941851234284867 1.005522307853544 -6.0077641150710397  3.2941388963339131 1.0054981550260533 -6.0077641150710397  3.2940984677474145 1.0054740828569688 -6.0077641150710397  3.2940639518492678 1.0054504322342495 -6.0077641150710397  3.2940354217866012 1.0054275059006892 -6.0077641150710397  3.2940129056523224 1.0054055537986262 -6.0077641150710397  3.2939963898727891 1.0053847389075872 -6.0077641150710397  3.2939858479340258 1.0053650950120452 -6.0077641150710397  3.293981429104742 1.0053464492865269 -6.0077641150710397  3.2939837374835883 1.0053290964873409 -6.0077641150710397  3.2939926093413718 1.0053140444950543 -6.0077641150710397  3.294007371915872 1.005302027421989 -6.0077641150710397  3.2940273105046569 1.0052927445073765 -6.0077641150710397  3.2940523455914668 1.0052857976557226 -6.0077641150710397  3.2940824237261417 1.0052809943213372 -6.0077641150710397  3.2941174339866439 1.0052781863856857 -6.0077641150710397  3.294157213956463 1.0052772265394316 -6.0077641150710397  3.294201569007666 1.0052779486805825 -6.0077641150710397  3.2942502846300266 1.0052801667683768 -6.0077641150710397  3.2943031340001969 1.0052836758505939 -6.0077641150710397  3.2943598834892893 1.0052882544658155 -6.0077641150710397  3.2944202966164444 1.0052936672496116 -6.0077641150710397  3.2944841370699591 1.0052996676178836 -6.0077641150710397  3.2945511708719493 1.0053060005153103 -6.0077641150710397  3.2946211677158104 1.0053124052605626 -6.0077641150710397  3.2946939014569354 1.0053186184388516 -6.0077641150710397  3.2947691499114611 1.0053243774166833 -6.0077641150710397  3.294846693262826 1.0053294218290234 -6.0077641150710397  3.2949263137440306 1.0053335053944672 -6.0077641150710397  3.2950077895731544 1.0053363658205916 -6.0077641150710397  3.2950910981828829 1.0053378676252396 -6.0077641150710397  3.2951767560122045 1.0053374547658884 -6.0077641150710397  3.2952644901212946 1.0053362409538411 -6.0077641150710397  3.2953538102992885 1.0053346433312185 -6.0077641150710397  3.2954436246904515 1.0053324423116301 -6.0077641150710397  3.2955335990833166 1.0053296122340902 -6.0077641150710397  3.29562339953966 1.0053260956696868 -6.0077641150710397  3.2957126840347479 1.0053218691158083 -6.0077641150710397  3.2958011098962685 1.0053169263382722 -6.0077641150710397  3.2958883321037895 1.0053112828478739 -6.0077641150710397  3.2959740062633935 1.0053049741771665 -6.0077641150710397  3.2960577897274344 1.0052980549650592 -6.0077641150710397  3.2961393434096489 1.005290597242434 -6.0077641150710397  3.2962183334052719 1.0052826883617108 -6.0077641150710397  3.2962944326433528 1.0052744285917496 -6.0077641150710397  3.2963673225086838 1.005265928486486 -6.0077641150710397  3.2964366944434964 1.0052573061234666 -6.0077641150710397  3.2965022515322051 1.0052486843054274 -6.0077641150710397  3.2965637100775229 1.0052401878086938 -6.0077641150710397  3.2966208011547034 1.0052319407536121 -6.0077641150710397  3.2966732723089476 1.0052240641260271 -6.0077641150710397  3.2967208884068095 1.0052166736649293 -6.0077641150710397  3.2967634361467031 1.005209877352123 -6.0077641150710397  3.2968007159920245 1.0052037753578176 -6.0077641150710397  3.2968325682099713 1.0051984542698342 -6.0077641150710397  3.2968588236498539 1.005193994698464 -6.0077641150710397  3.296879388625789 1.0051904557764519 -6.0077641150710397  3.2968941356276402 1.0051878933221776 -6.0077641150710397  3.296903018238865 1.0051863402758945 -6.0077641150710397  3.2969069725858646 1.0051856464082822 -6.0077641150710397  3.2969079623739339 1.0051854727305911 -6.0077641150710397 
 0 4 0.00049739984301800169 1 0.00198741502815918 1 0.0044635102977900153 1 0.0079148522906514057 1 0.012326395880791562 1 0.017679001628741791 1 0.023949581151797125 1 0.031111266611454625 1 0.039133600095283015 1 0.047982738444039219 1 0.057621669037433883 1 0.068010432190637585 1 0.079106346111928252 1 0.090864230813156949 1 0.10323662793382841 1 0.11617401412241497 1 0.129625006399325 1 0.14353655878335592 1 0.15785415036621575 1 0.17252196592359864 1 0.18748307099874312 1 0.20267958411747308 1 0.21805284932105037 1 0.2335436124699419 1 0.24909220473126328 1 0.26463873629818824 1 0.28012330272223812 1 0.29548620533261971 1 0.31104957869740602 1 0.3264784133363568 1 0.34162084310623081 1 0.35642269447770392 1 0.37082983330862862 1 0.38478841506599898 1 0.39824519846949297 1 0.41114792049166898 1 0.4234457334204193 1 0.43508970918060325 1 0.44603342303631127 1 0.45623363983425413 1 0.46565114465521051 1 0.47425179342967533 1 0.48200792301895584 1 0.48890038732574265 1 0.49492174892025381 1 0.50008171570891213 1 0.5044170938122049 1 0.50801066881149448 1 0.51102448248994026 1 0.51373719851529775 1 0.51644948617691111 1 0.51945299174717252 1 0.52300710312720133 1 0.52725421012781593 1 0.53225968459411821 1 0.5380450386039779 1 0.54460658329338163 1 0.55192538423716675 1 0.55997284499919975 1 0.56871411270903072 1 0.57811034666456584 1 0.58812034627883336 1 0.59870177875637987 1 0.60981212356491643 1 0.62140938996361605 1 0.63345263395937756 1 0.64590228737462307 1 0.65872030704952556 1 0.6718701528262635 1 0.68531660670748029 1 0.6990254509944126 1 0.7130608787820506 1 0.72766469754508867 1 0.74240472119014456 1 0.75722816342908195 1 0.7720813709306984 1 0.78690993897978068 1 0.8016588405242876 1 0.8162725697230786 1 0.83069530104595679 1 0.84487106493198205 1 0.85874394092667017 1 0.87225826905527759 1 0.88535887992530748 1 0.89799134367799749 1 0.91010223742768348 1 0.92163943024868977 1 0.93255238410553998 1 0.94279246839147035 1 0.9523132849642475 1 0.96107099977450028 1 0.96902467640447243 1 0.976136606116213 1 0.98237262839640516 1 0.98770243553302772 1 0.99209985451897442 1 0.995543099595391 1 0.99801498905577624 1 0.99950312054529189 1 1 4
7 0 0  1 2 2  3.2939847943664518 1.0053294624802902 -6.0077641150710397  -1.5876581934987782e-08 -5.4982404388941031e-09 0 
 0 2 1 2
7 0 0  3 103 101  2.9109518775547416 0.0035428057092309322 0  2.9100290188432187 0.0039276760994287358 0  2.9063414609115843 0.0054655408883802666 0  2.8980523470475865 0.0089099928970808335 0  2.8842747490762783 0.014599779099549341 0  2.8650279408558474 0.022472325372906068 0  2.8403991075471486 0.032418758617128104 0  2.8104363580032126 0.044328021510903391 0  2.7752526131723805 0.058046680639794852 0  2.7349474882851164 0.07341361541512513 0  2.6896550636577325 0.090242908903379104 0  2.6395210356026162 0.10833618217743797 0  2.5847118839995935 0.127481672945432 0  2.5254121319184506 0.14745824834634794 0  2.461824948794169 0.16803793598787586 0  2.3941718354891099 0.18898869545516533 0  2.3226923235525399 0.21007700523865896 0  2.247643541962701 0.23107030658679742 0  2.169299680062942 0.25173928895064568 0  2.0879513569160233 0.27186002367980289 0  2.0039049053293838 0.29121596372239639 0  1.9174815854026253 0.30959983642332845 0  1.829016673156457 0.32681545287637925 0  1.7388586496576803 0.3426795161759808 0  1.6473676282274425 0.35702315857108508 0  1.5549155690083307 0.36969466929954997 0  1.4618815527866096 0.38055709716412389 0  1.368657425047197 0.38950630848664158 0  1.2756317126123298 0.39641062252328474 0  1.1824519543098375 0.40138439369452378 0  1.0892654196176572 0.40378813321841905 0  0.99649983356075866 0.40221246476802014 0  0.90540069417864222 0.39705430026167243 0  0.81663148502396277 0.38838546946674579 0  0.73064659670409782 0.37643906520385845 0  0.6478837977468721 0.36146791268174167 0  0.56875702702648545 0.34377485955456527 0  0.49365307822455984 0.323697818698022 0  0.42292749697605064 0.301604627601752 0  0.35690186017697245 0.2778848735566366 0  0.29586177930573176 0.2529417830971476 0  0.24005570956774749 0.22718378275918077 0  0.1896944212830399 0.20101599869891859 0  0.14495090688380266 0.17483176429343877 0  0.10596045114246307 0.14900415627905667 0  0.072820157246731812 0.12387706241271249 0  0.045588208886146016 0.099754541983271452 0  0.024280576976485838 0.076886083893763987 0  0.0088760123244164633 0.055432850976167652 0  -0.00065342009012712607 0.035427120786128058 0  -0.0041512799972983324 0.016704426854703275 0  -0.0010318607116249902 -0.00041377818526588429 0  0.008494214707099948 -0.014934653707215161 0  0.023723999088464471 -0.026161440297503842 0  0.043962261883557591 -0.034426826965420237 0  0.069149043600251092 -0.040129845333637316 0  0.099240460597269084 -0.043464208817317947 0  0.13413345084761397 -0.044582263419406992 0  0.17367378871620009 -0.043638007661467429 0  0.21767616452643979 -0.040805634140428093 0  0.26593647989160335 -0.036280079408547487 0  0.31823931358671542 -0.030275643039018526 0  0.37436327504230543 -0.023023339929007645 0  0.4340848052524377 -0.014768124255479671 0  0.49718104825054643 -0.0057660812988688751 0  0.56343186916012378 0.0037184045224430673 0  0.63262104636333549 0.013415538241282689 0  0.70453662074546375 0.023053009537988209 0  0.77897052825561608 0.032359472682545604 0  0.8557169469719117 0.041065947030930167 0  0.93457141814182654 0.04891753227291383 0  1.0153262605071516 0.055643240471116802 0  1.0979655301808551 0.061107485216499016 0  1.1830284800399034 0.064782843814344335 0  1.2701910125892009 0.06776201976935127 0  1.3589465394369109 0.070435782835254382 0  1.4482215112674024 0.072534048507698276 0  1.5376853383269073 0.074015400453345967 0  1.6270092172409572 0.074806895370017584 0  1.7158546981079013 0.074868887176955418 0  1.8038818645143342 0.074178843441603776 0  1.8907474316962125 0.072735708707567681 0  1.9761077820170814 0.070558335505760253 0  2.0596201203484208 0.067684628925079704 0  2.1409443579231446 0.064169931097280572 0  2.219744819568688 0.060085042883860518 0  2.295691998877603 0.055513914838714234 0  2.3684642939932634 0.050551112075342762 0  2.4377497295187545 0.045299149006439381 0  2.5032476633529956 0.039865786578890422 0  2.5646704827297726 0.034361375586274084 0  2.6217452727216455 0.028896320091998433 0  2.6742156196727684 0.023578697644198173 0  2.721842557242351 0.018512202683734758 0  2.7644091642744586 0.013793869341936405 0  2.8017125583901694 0.0095136326908665404 0  2.8335900232139077 0.0057498412157039091 0  2.8598697771381527 0.0025744595938890827 0  2.8804559862455719 4.1728174709142448e-05 0  2.8952193931171655 -0.0017990164493031538 0  2.9041123432250009 -0.0029172840929490313 0  2.9080714113836512 -0.0034175798008018012 0  2.9090623811764846 -0.0035428057092309322 0 
 0 4 0.00049739984301800169 1 0.00198741502815918 1 0.0044635102977900153 1 0.0079148522906514057 1 0.012326395880791562 1 0.017679001628741791 1 0.023949581151797125 1 0.031111266611454625 1 0.039133600095283015 1 0.047982738444039219 1 0.057621669037433883 1 0.068010432190637585 1 0.079106346111928252 1 0.090864230813156949 1 0.10323662793382841 1 0.11617401412241497 1 0.129625006399325 1 0.14353655878335592 1 0.15785415036621575 1 0.17252196592359864 1 0.18748307099874312 1 0.20267958411747308 1 0.21805284932105037 1 0.2335436124699419 1 0.24909220473126328 1 0.26463873629818824 1 0.28012330272223812 1 0.29548620533261971 1 0.31104957869740602 1 0.3264784133363568 1 0.34162084310623081 1 0.35642269447770392 1 0.37082983330862862 1 0.38478841506599898 1 0.39824519846949297 1 0.41114792049166898 1 0.4234457334204193 1 0.43508970918060325 1 0.44603342303631127 1 0.45623363983425413 1 0.46565114465521051 1 0.47425179342967533 1 0.48200792301895584 1 0.48890038732574265 1 0.49492174892025381 1 0.50008171570891213 1 0.5044170938122049 1 0.50801066881149448 1 0.51102448248994026 1 0.51373719851529775 1 0.51644948617691111 1 0.51945299174717252 1 0.52300710312720133 1 0.52725421012781593 1 0.53225968459411821 1 0.5380450386039779 1 0.54460658329338163 1 0.55192538423716675 1 0.55997284499919975 1 0.56871411270903072 1 0.57811034666456584 1 0.58812034627883336 1 0.59870177875637987 1 0.60981212356491643 1 0.62140938996361605 1 0.63345263395937756 1 0.64590228737462307 1 0.65872030704952556 1 0.6718701528262635 1 0.68531660670748029 1 0.6990254509944126 1 0.7130608787820506 1 0.72766469754508867 1 0.74240472119014456 1 0.75722816342908195 1 0.7720813709306984 1 0.78690993897978068 1 0.8016588405242876 1 0.8162725697230786 1 0.83069530104595679 1 0.84487106493198205 1 0.85874394092667017 1 0.87225826905527759 1 0.88535887992530748 1 0.89799134367799749 1 0.91010223742768348 1 0.92163943024868977 1 0.93255238410553998 1 0.94279246839147035 1 0.9523132849642475 1 0.96107099977450028 1 0.96902467640447243 1 0.976136606116213 1 0.98237262839640516 1 0.98770243553302772 1 0.99209985451897442 1 0.995543099595391 1 0.99801498905577624 1 0.99950312054529189 1 1 4
7 0 0  1 2 2  3.2969102031879598 1.0051925019037291 -6.0077641150710397  2.9109518775547416 0.0035428057092309322 0 
 0 2 1 2
7 0 0  3 103 101  3.2969102031879598 1.0051925019037291 -6.0077641150710397  3.2969092943790899 1.0051929332122083 -6.0077641150710397  3.2969056629615046 1.0051946566342678 -6.0077641150710397  3.2968974994421472 1.0051985181319238 -6.0077641150710397  3.2968839288924969 1.0052049009294026 -6.0077641150710397  3.2968649676603521 1.0052137412150803 -6.0077641150710397  3.2968406981031007 1.0052249253728462 -6.0077641150710397  3.296811163204612 1.005238339477984 -6.0077641150710397  3.2967764690332975 1.0052538238930349 -6.0077641150710397  3.2967367079154677 1.0052712118979492 -6.0077641150710397  3.2966920056146636 1.0052903101909023 -6.0077641150710397  3.2966424989658498 1.0053109123861772 -6.0077641150710397  3.2965883450434994 1.0053327976457227 -6.0077641150710397  3.2965297186014793 1.0053557348439301 -6.0077641150710397  3.2964668128013646 1.0053794850819753 -6.0077641150710397  3.2963998390297453 1.0054038044881308 -6.0077641150710397  3.2963290267208909 1.0054284468319092 -6.0077641150710397  3.2962546230393359 1.0054531660008217 -6.0077641150710397  3.2961768924505073 1.0054777183229666 -6.0077641150710397  3.2960961161899829 1.0055018647416389 -6.0077641150710397  3.2960125916405372 1.0055253728594062 -6.0077641150710397  3.2959266316331979 1.005548018878162 -6.0077641150710397  3.2958385636187457 1.0055695894613506 -6.0077641150710397  3.2957487289401515 1.005589883590237 -6.0077641150710397  3.2956574813262671 1.0056087141845294 -6.0077641150710397  3.2955651872391276 1.005625910833241 -6.0077641150710397  3.2954722210088483 1.0056413176136496 -6.0077641150710397  3.2953789713770907 1.0056548109654162 -6.0077641150710397  3.2952858224207855 1.0056662398061471 -6.0077641150710397  3.2951924254692542 1.0056757360658795 -6.0077641150710397  3.2950988976445914 1.0056826500082905 -6.0077641150710397  3.2950056007359287 1.0056855446927129 -6.0077641150710397  3.2949138055139455 1.0056847588548707 -6.0077641150710397  3.2948241821857809 1.0056803326486148 -6.0077641150710397  3.2947371986241496 1.0056724783758422 -6.0077641150710397  3.2946533069506549 1.0056614289700774 -6.0077641150710397  3.2945729377550408 1.0056474687831147 -6.0077641150710397  3.2944964960413463 1.0056309187144412 -6.0077641150710397  3.2944243568567662 1.0056121312434581 -6.0077641150710397  3.2943568621629802 1.0055914823458856 -6.0077641150710397  3.2942943184381539 1.0055693634397873 -6.0077641150710397  3.2942369950728514 1.0055461729623985 -6.0077641150710397  3.2941851234284867 1.005522307853544 -6.0077641150710397  3.2941388963339131 1.0054981550260533 -6.0077641150710397  3.2940984677474145 1.0054740828569688 -6.0077641150710397  3.2940639518492678 1.0054504322342495 -6.0077641150710397  3.2940354217866012 1.0054275059006892 -6.0077641150710397  3.2940129056523224 1.0054055537986262 -6.0077641150710397  3.2939963898727891 1.0053847389075872 -6.0077641150710397  3.2939858479340258 1.0053650950120452 -6.0077641150710397  3.293981429104742 1.0053464492865269 -6.0077641150710397  3.2939837374835883 1.0053290964873409 -6.0077641150710397  3.2939926093413718 1.0053140444950543 -6.0077641150710397  3.294007371915872 1.005302027421989 -6.0077641150710397  3.2940273105046569 1.0052927445073765 -6.0077641150710397  3.2940523455914668 1.0052857976557226 -6.0077641150710397  3.2940824237261417 1.0052809943213372 -6.0077641150710397  3.2941174339866439 1.0052781863856857 -6.0077641150710397  3.294157213956463 1.0052772265394316 -6.0077641150710397  3.294201569007666 1.0052779486805825 -6.0077641150710397  3.2942502846300266 1.0052801667683768 -6.0077641150710397  3.2943031340001969 1.0052836758505939 -6.0077641150710397  3.2943598834892893 1.0052882544658155 -6.0077641150710397  3.2944202966164444 1.0052936672496116 -6.0077641150710397  3.2944841370699591 1.0052996676178836 -6.0077641150710397  3.2945511708719493 1.0053060005153103 -6.0077641150710397  3.2946211677158104 1.0053124052605626 -6.0077641150710397  3.2946939014569354 1.0053186184388516 -6.0077641150710397  3.2947691499114611 1.0053243774166833 -6.0077641150710397  3.294846693262826 1.0053294218290234 -6.0077641150710397  3.2949263137440306 1.0053335053944672 -6.0077641150710397  3.2950077895731544 1.0053363658205916 -6.0077641150710397  3.2950910981828829 1.0053378676252396 -6.0077641150710397  3.2951767560122045 1.0053374547658884 -6.0077641150710397  3.2952644901212946 1.0053362409538411 -6.0077641150710397  3.2953538102992885 1.0053346433312185 -6.0077641150710397  3.2954436246904515 1.0053324423116301 -6.0077641150710397  3.2955335990833166 1.0053296122340902 -6.0077641150710397  3.29562339953966 1.0053260956696868 -6.0077641150710397  3.2957126840347479 1.0053218691158083 -6.0077641150710397  3.2958011098962685 1.0053169263382722 -6.0077641150710397  3.2958883321037895 1.0053112828478739 -6.0077641150710397  3.2959740062633935 1.0053049741771665 -6.0077641150710397  3.2960577897274344 1.0052980549650592 -6.0077641150710397  3.2961393434096489 1.005290597242434 -6.0077641150710397  3.2962183334052719 1.0052826883617108 -6.0077641150710397  3.2962944326433528 1.0052744285917496 -6.0077641150710397  3.2963673225086838 1.005265928486486 -6.0077641150710397  3.2964366944434964 1.0052573061234666 -6.0077641150710397  3.2965022515322051 1.0052486843054274 -6.0077641150710397  3.2965637100775229 1.0052401878086938 -6.0077641150710397  3.2966208011547034 1.0052319407536121 -6.0077641150710397  3.2966732723089476 1.0052240641260271 -6.0077641150710397  3.2967208884068095 1.0052166736649293 -6.0077641150710397  3.2967634361467031 1.005209877352123 -6.0077641150710397  3.2968007159920245 1.0052037753578176 -6.0077641150710397  3.2968325682099713 1.0051984542698342 -6.0077641150710397  3.2968588236498539 1.005193994698464 -6.0077641150710397  3.296879388625789 1.0051904557764519 -6.0077641150710397  3.2968941356276402 1.0051878933221776 -6.0077641150710397  3.296903018238865 1.0051863402758945 -6.0077641150710397  3.2969069725858646 1.0051856464082822 -6.0077641150710397  3.2969079623739339 1.0051854727305911 -6.0077641150710397 
 0 4 0.00049739984301800169 1 0.00198741502815918 1 0.0044635102977900153 1 0.0079148522906514057 1 0.012326395880791562 1 0.017679001628741791 1 0.023949581151797125 1 0.031111266611454625 1 0.039133600095283015 1 0.047982738444039219 1 0.057621669037433883 1 0.068010432190637585 1 0.079106346111928252 1 0.090864230813156949 1 0.10323662793382841 1 0.11617401412241497 1 0.129625006399325 1 0.14353655878335592 1 0.15785415036621575 1 0.17252196592359864 1 0.18748307099874312 1 0.20267958411747308 1 0.21805284932105037 1 0.2335436124699419 1 0.24909220473126328 1 0.26463873629818824 1 0.28012330272223812 1 0.29548620533261971 1 0.31104957869740602 1 0.3264784133363568 1 0.34162084310623081 1 0.35642269447770392 1 0.37082983330862862 1 0.38478841506599898 1 0.39824519846949297 1 0.41114792049166898 1 0.4234457334204193 1 0.43508970918060325 1 0.44603342303631127 1 0.45623363983425413 1 0.46565114465521051 1 0.47425179342967533 1 0.48200792301895584 1 0.48890038732574265 1 0.49492174892025381 1 0.50008171570891213 1 0.5044170938122049 1 0.50801066881149448 1 0.51102448248994026 1 0.51373719851529775 1 0.51644948617691111 1 0.51945299174717252 1 0.52300710312720133 1 0.52725421012781593 1 0.53225968459411821 1 0.5380450386039779 1 0.54460658329338163 1 0.55192538423716675 1 0.55997284499919975 1 0.56871411270903072 1 0.57811034666456584 1 0.58812034627883336 1 0.59870177875637987 1 0.60981212356491643 1 0.62140938996361605 1 0.63345263395937756 1 0.64590228737462307 1 0.65872030704952556 1 0.6718701528262635 1 0.68531660670748029 1 0.6990254509944126 1 0.7130608787820506 1 0.72766469754508867 1 0.74240472119014456 1 0.75722816342908195 1 0.7720813709306984 1 0.78690993897978068 1 0.8016588405242876 1 0.8162725697230786 1 0.83069530104595679 1 0.84487106493198205 1 0.85874394092667017 1 0.87225826905527759 1 0.88535887992530748 1 0.89799134367799749 1 0.91010223742768348 1 0.92163943024868977 1 0.93255238410553998 1 0.94279246839147035 1 0.9523132849642475 1 0.96107099977450028 1 0.96902467640447243 1 0.976136606116213 1 0.98237262839640516 1 0.98770243553302772 1 0.99209985451897442 1 0.995543099595391 1 0.99801498905577624 1 0.99950312054529189 1 1 4
7 0 0  1 2 2  3.2969079623739339 1.0051854727305911 -6.0077641150710397  2.9090623811764846 -0.0035428057092309322 0 
 0 2 1 2
7 0 0  3 103 101  2.9109518775547416 0.0035428057092309322 0  2.9100290188432187 0.0039276760994287358 0  2.9063414609115843 0.0054655408883802666 0  2.8980523470475865 0.0089099928970808335 0  2.8842747490762783 0.014599779099549341 0  2.8650279408558474 0.022472325372906068 0  2.8403991075471486 0.032418758617128104 0  2.8104363580032126 0.044328021510903391 0  2.7752526131723805 0.058046680639794852 0  2.7349474882851164 0.07341361541512513 0  2.6896550636577325 0.090242908903379104 0  2.6395210356026162 0.10833618217743797 0  2.5847118839995935 0.127481672945432 0  2.5254121319184506 0.14745824834634794 0  2.461824948794169 0.16803793598787586 0  2.3941718354891099 0.18898869545516533 0  2.3226923235525399 0.21007700523865896 0  2.247643541962701 0.23107030658679742 0  2.169299680062942 0.25173928895064568 0  2.0879513569160233 0.27186002367980289 0  2.0039049053293838 0.29121596372239639 0  1.9174815854026253 0.30959983642332845 0  1.829016673156457 0.32681545287637925 0  1.7388586496576803 0.3426795161759808 0  1.6473676282274425 0.35702315857108508 0  1.5549155690083307 0.36969466929954997 0  1.4618815527866096 0.38055709716412389 0  1.368657425047197 0.38950630848664158 0  1.2756317126123298 0.39641062252328474 0  1.1824519543098375 0.40138439369452378 0  1.0892654196176572 0.40378813321841905 0  0.99649983356075866 0.40221246476802014 0  0.90540069417864222 0.39705430026167243 0  0.81663148502396277 0.38838546946674579 0  0.73064659670409782 0.37643906520385845 0  0.6478837977468721 0.36146791268174167 0  0.56875702702648545 0.34377485955456527 0  0.49365307822455984 0.323697818698022 0  0.42292749697605064 0.301604627601752 0  0.35690186017697245 0.2778848735566366 0  0.29586177930573176 0.2529417830971476 0  0.24005570956774749 0.22718378275918077 0  0.1896944212830399 0.20101599869891859 0  0.14495090688380266 0.17483176429343877 0  0.10596045114246307 0.14900415627905667 0  0.072820157246731812 0.12387706241271249 0  0.045588208886146016 0.099754541983271452 0  0.024280576976485838 0.076886083893763987 0  0.0088760123244164633 0.055432850976167652 0  -0.00065342009012712607 0.035427120786128058 0  -0.0041512799972983324 0.016704426854703275 0  -0.0010318607116249902 -0.00041377818526588429 0  0.008494214707099948 -0.014934653707215161 0  0.023723999088464471 -0.026161440297503842 0  0.043962261883557591 -0.034426826965420237 0  0.069149043600251092 -0.040129845333637316 0  0.099240460597269084 -0.043464208817317947 0  0.13413345084761397 -0.044582263419406992 0  0.17367378871620009 -0.043638007661467429 0  0.21767616452643979 -0.040805634140428093 0  0.26593647989160335 -0.036280079408547487 0  0.31823931358671542 -0.030275643039018526 0  0.37436327504230543 -0.023023339929007645 0  0.4340848052524377 -0.014768124255479671 0  0.49718104825054643 -0.0057660812988688751 0  0.56343186916012378 0.0037184045224430673 0  0.63262104636333549 0.013415538241282689 0  0.70453662074546375 0.023053009537988209 0  0.77897052825561608 0.032359472682545604 0  0.8557169469719117 0.041065947030930167 0  0.93457141814182654 0.04891753227291383 0  1.0153262605071516 0.055643240471116802 0  1.0979655301808551 0.061107485216499016 0  1.1830284800399034 0.064782843814344335 0  1.2701910125892009 0.06776201976935127 0  1.3589465394369109 0.070435782835254382 0  1.4482215112674024 0.072534048507698276 0  1.5376853383269073 0.074015400453345967 0  1.6270092172409572 0.074806895370017584 0  1.7158546981079013 0.074868887176955418 0  1.8038818645143342 0.074178843441603776 0  1.8907474316962125 0.072735708707567681 0  1.9761077820170814 0.070558335505760253 0  2.0596201203484208 0.067684628925079704 0  2.1409443579231446 0.064169931097280572 0  2.219744819568688 0.060085042883860518 0  2.295691998877603 0.055513914838714234 0  2.3684642939932634 0.050551112075342762 0  2.4377497295187545 0.045299149006439381 0  2.5032476633529956 0.039865786578890422 0  2.5646704827297726 0.034361375586274084 0  2.6217452727216455 0.028896320091998433 0  2.6742156196727684 0.023578697644198173 0  2.721842557242351 0.018512202683734758 0  2.7644091642744586 0.013793869341936405 0  2.8017125583901694 0.0095136326908665404 0  2.8335900232139077 0.0057498412157039091 0  2.8598697771381527 0.0025744595938890827 0  2.8804559862455719 4.1728174709142448e-05 0  2.8952193931171655 -0.0017990164493031538 0  2.9041123432250009 -0.0029172840929490313 0  2.9080714113836512 -0.0034175798008018012 0  2.9090623811764846 -0.0035428057092309322 0 
 0 4 0.00049739984301800169 1 0.00198741502815918 1 0.0044635102977900153 1 0.0079148522906514057 1 0.012326395880791562 1 0.017679001628741791 1 0.023949581151797125 1 0.031111266611454625 1 0.039133600095283015 1 0.047982738444039219 1 0.057621669037433883 1 0.068010432190637585 1 0.079106346111928252 1 0.090864230813156949 1 0.10323662793382841 1 0.11617401412241497 1 0.129625006399325 1 0.14353655878335592 1 0.15785415036621575 1 0.17252196592359864 1 0.18748307099874312 1 0.20267958411747308 1 0.21805284932105037 1 0.2335436124699419 1 0.24909220473126328 1 0.26463873629818824 1 0.28012330272223812 1 0.29548620533261971 1 0.31104957869740602 1 0.3264784133363568 1 0.34162084310623081 1 0.35642269447770392 1 0.37082983330862862 1 0.38478841506599898 1 0.39824519846949297 1 0.41114792049166898 1 0.4234457334204193 1 0.43508970918060325 1 0.44603342303631127 1 0.45623363983425413 1 0.46565114465521051 1 0.47425179342967533 1 0.48200792301895584 1 0.48890038732574265 1 0.49492174892025381 1 0.50008171570891213 1 0.5044170938122049 1 0.50801066881149448 1 0.51102448248994026 1 0.51373719851529775 1 0.51644948617691111 1 0.51945299174717252 1 0.52300710312720133 1 0.52725421012781593 1 0.53225968459411821 1 0.5380450386039779 1 0.54460658329338163 1 0.55192538423716675 1 0.55997284499919975 1 0.56871411270903072 1 0.57811034666456584 1 0.58812034627883336 1 0.59870177875637987 1 0.60981212356491643 1 0.62140938996361605 1 0.63345263395937756 1 0.64590228737462307 1 0.65872030704952556 1 0.6718701528262635 1 0.68531660670748029 1 0.6990254509944126 1 0.7130608787820506 1 0.72766469754508867 1 0.74240472119014456 1 0.75722816342908195 1 0.7720813709306984 1 0.78690993897978068 1 0.8016588405242876 1 0.8162725697230786 1 0.83069530104595679 1 0.84487106493198205 1 0.85874394092667017 1 0.87225826905527759 1 0.88535887992530748 1 0.89799134367799749 1 0.91010223742768348 1 0.92163943024868977 1 0.93255238410553998 1 0.94279246839147035 1 0.9523132849642475 1 0.96107099977450028 1 0.96902467640447243 1 0.976136606116213 1 0.98237262839640516 1 0.98770243553302772 1 0.99209985451897442 1 0.995543099595391 1 0.99801498905577624 1 0.99950312054529189 1 1 4
1 3.2969079623739339 1.0051854727305911 -6.0077641150710397 0.30372781268469295 0.9527588445151125 0 
1 2.9090623811764846 -0.0035428057092309322 0 0.25766265056033705 0.96623493960124507 0 
Polygon3D 0
PolygonOnTriangulations 0
Surfaces 5
9 0 0 0 0 3 1 53 2 51 2 3.2969102031879598 1.0051925019037291 -6.0077641150710397  2.9109518775547416 0.0035428057092309322 0  
3.2969092943790899 1.0051929332122083 -6.0077641150710397  2.9100290188432187 0.0039276760994287358 0  
3.2969056629615046 1.0051946566342678 -6.0077641150710397  2.9063414609115843 0.0054655408883802666 0  
3.2968974994421472 1.0051985181319238 -6.0077641150710397  2.8980523470475865 0.0089099928970808335 0  
3.2968839288924969 1.0052049009294026 -6.0077641150710397  2.8842747490762783 0.014599779099549341 0  
3.2968649676603521 1.0052137412150803 -6.0077641150710397  2.8650279408558474 0.022472325372906068 0  
3.2968406981031007 1.0052249253728462 -6.0077641150710397  2.8403991075471486 0.032418758617128104 0  
3.296811163204612 1.005238339477984 -6.0077641150710397  2.8104363580032126 0.044328021510903391 0  
3.2967764690332975 1.0052538238930349 -6.0077641150710397  2.7752526131723805 0.058046680639794852 0  
3.2967367079154677 1.0052712118979492 -6.0077641150710397  2.7349474882851164 0.07341361541512513 0  
3.2966920056146636 1.0052903101909023 -6.0077641150710397  2.6896550636577325 0.090242908903379104 0  
3.2966424989658498 1.0053109123861772 -6.0077641150710397  2.6395210356026162 0.10833618217743797 0  
3.2965883450434994 1.0053327976457227 -6.0077641150710397  2.5847118839995935 0.127481672945432 0  
3.2965297186014793 1.0053557348439301 -6.0077641150710397  2.5254121319184506 0.14745824834634794 0  
3.2964668128013646 1.0053794850819753 -6.0077641150710397  2.461824948794169 0.16803793598787586 0  
3.2963998390297453 1.0054038044881308 -6.0077641150710397  2.3941718354891099 0.18898869545516533 0  
3.2963290267208909 1.0054284468319092 -6.0077641150710397  2.3226923235525399 0.21007700523865896 0  
3.2962546230393359 1.0054531660008217 -6.0077641150710397  2.247643541962701 0.23107030658679742 0  
3.2961768924505073 1.0054777183229666 -6.0077641150710397  2.169299680062942 0.25173928895064568 0  
3.2960961161899829 1.0055018647416389 -6.0077641150710397  2.0879513569160233 0.27186002367980289 0  
3.2960125916405372 1.0055253728594062 -6.0077641150710397  2.0039049053293838 0.29121596372239639 0  
3.2959266316331979 1.005548018878162 -6.0077641150710397  1.9174815854026253 0.30959983642332845 0  
3.2958385636187457 1.0055695894613506 -6.0077641150710397  1.829016673156457 0.32681545287637925 0  
3.2957487289401515 1.005589883590237 -6.0077641150710397  1.7388586496576803 0.3426795161759808 0  
3.2956574813262671 1.0056087141845294 -6.0077641150710397  1.6473676282274425 0.35702315857108508 0  
3.2955651872391276 1.005625910833241 -6.0077641150710397  1.5549155690083307 0.36969466929954997 0  
3.2954722210088483 1.0056413176136496 -6.0077641150710397  1.4618815527866096 0.38055709716412389 0  
3.2953789713770907 1.0056548109654162 -6.0077641150710397  1.368657425047197 0.38950630848664158 0  
3.2952858224207855 1.0056662398061471 -6.0077641150710397  1.2756317126123298 0.39641062252328474 0  
3.2951924254692542 1.0056757360658795 -6.0077641150710397  1.1824519543098375 0.40138439369452378 0  
3.2950988976445914 1.0056826500082905 -6.0077641150710397  1.0892654196176572 0.40378813321841905 0  
3.2950056007359287 1.0056855446927129 -6.0077641150710397  0.99649983356075866 0.40221246476802014 0  
3.2949138055139455 1.0056847588548707 -6.0077641150710397  0.90540069417864222 0.39705430026167243 0  
3.2948241821857809 1.0056803326486148 -6.0077641150710397  0.81663148502396277 0.38838546946674579 0  
3.2947371986241496 1.0056724783758422 -6.0077641150710397  0.73064659670409782 0.37643906520385845 0  
3.2946533069506549 1.0056614289700774 -6.0077641150710397  0.6478837977468721 0.36146791268174167 0  
3.2945729377550408 1.0056474687831147 -6.0077641150710397  0.56875702702648545 0.34377485955456527 0  
3.2944964960413463 1.0056309187144412 -6.0077641150710397  0.49365307822455984 0.323697818698022 0  
3.2944243568567662 1.0056121312434581 -6.0077641150710397  0.42292749697605064 0.301604627601752 0  
3.2943568621629802 1.0055914823458856 -6.0077641150710397  0.35690186017697245 0.2778848735566366 0  
3.2942943184381539 1.0055693634397873 -6.0077641150710397  0.29586177930573176 0.2529417830971476 0  
3.2942369950728514 1.0055461729623985 -6.0077641150710397  0.24005570956774749 0.22718378275918077 0  
3.2941851234284867 1.005522307853544 -6.0077641150710397  0.1896944212830399 0.20101599869891859 0  
3.2941388963339131 1.0054981550260533 -6.0077641150710397  0.14495090688380266 0.17483176429343877 0  
3.2940984677474145 1.0054740828569688 -6.0077641150710397  0.10596045114246307 0.14900415627905667 0  
3.2940639518492678 1.0054504322342495 -6.0077641150710397  0.072820157246731812 0.12387706241271249 0  
3.2940354217866012 1.0054275059006892 -6.0077641150710397  0.045588208886146016 0.099754541983271452 0  
3.2940129056523224 1.0054055537986262 -6.0077641150710397  0.024280576976485838 0.076886083893763987 0  
3.2939963898727891 1.0053847389075872 -6.0077641150710397  0.0088760123244164633 0.055432850976167652 0  
3.2939858479340258 1.0053650950120452 -6.0077641150710397  -0.00065342009012712607 0.035427120786128058 0  
3.293981429104742 1.0053464492865269 -6.0077641150710397  -0.0041512799972983324 0.016704426854703275 0  
3.2939829955565747 1.0053346737826343 -6.0077641150710397  -0.0020344610594837846 0.0050881171215352945 0  
3.2939847943664518 1.0053294624802902 -6.0077641150710397  -1.5876581934987782e-08 -5.4982404388941031e-09 0  

0 4
0.00049739984301800169 1
0.00198741502815918 1
0.0044635102977900153 1
0.0079148522906514057 1
0.012326395880791562 1
0.017679001628741791 1
0.023949581151797125 1
0.031111266611454625 1
0.039133600095283015 1
0.047982738444039219 1
0.057621669037433883 1
0.068010432190637585 1
0.079106346111928252 1
0.090864230813156949 1
0.10323662793382841 1
0.11617401412241497 1
0.129625006399325 1
0.14353655878335592 1
0.15785415036621575 1
0.17252196592359864 1
0.18748307099874312 1
0.20267958411747308 1
0.21805284932105037 1
0.2335436124699419 1
0.24909220473126328 1
0.26463873629818824 1
0.28012330272223812 1
0.29548620533261971 1
0.31104957869740602 1
0.3264784133363568 1
0.34162084310623081 1
0.35642269447770392 1
0.37082983330862862 1
0.38478841506599898 1
0.39824519846949297 1
0.41114792049166898 1
0.4234457334204193 1
0.43508970918060325 1
0.44603342303631127 1
0.45623363983425413 1
0.46565114465521051 1
0.47425179342967533 1
0.48200792301895584 1
0.48890038732574265 1
0.49492174892025381 1
0.50008171570891213 1
0.5044170938122049 1
0.50801066881149448 1
0.51102448248994026 1
0.51373719851529775 4

0 2
1 2

9 0 0 0 0 3 1 53 2 51 2 3.2939847943664518 1.0053294624802902 -6.0077641150710397  -1.5876581934987782e-08 -5.4982404388941031e-09 0  
3.2939865928917635 1.0053242520023555 -6.0077641150710397  0.0020341074643971898 -0.005087323195287965 0  
3.2939926093413718 1.0053140444950543 -6.0077641150710397  0.008494214707099948 -0.014934653707215161 0  
3.294007371915872 1.005302027421989 -6.0077641150710397  0.023723999088464471 -0.026161440297503842 0  
3.2940273105046569 1.0052927445073765 -6.0077641150710397  0.043962261883557591 -0.034426826965420237 0  
3.2940523455914668 1.0052857976557226 -6.0077641150710397  0.069149043600251092 -0.040129845333637316 0  
3.2940824237261417 1.0052809943213372 -6.0077641150710397  0.099240460597269084 -0.043464208817317947 0  
3.2941174339866439 1.0052781863856857 -6.0077641150710397  0.13413345084761397 -0.044582263419406992 0  
3.294157213956463 1.0052772265394316 -6.0077641150710397  0.17367378871620009 -0.043638007661467429 0  
3.294201569007666 1.0052779486805825 -6.0077641150710397  0.21767616452643979 -0.040805634140428093 0  
3.2942502846300266 1.0052801667683768 -6.0077641150710397  0.26593647989160335 -0.036280079408547487 0  
3.2943031340001969 1.0052836758505939 -6.0077641150710397  0.31823931358671542 -0.030275643039018526 0  
3.2943598834892893 1.0052882544658155 -6.0077641150710397  0.37436327504230543 -0.023023339929007645 0  
3.2944202966164444 1.0052936672496116 -6.0077641150710397  0.4340848052524377 -0.014768124255479671 0  
3.2944841370699591 1.0052996676178836 -6.0077641150710397  0.49718104825054643 -0.0057660812988688751 0  
3.2945511708719493 1.0053060005153103 -6.0077641150710397  0.56343186916012378 0.0037184045224430673 0  
3.2946211677158104 1.0053124052605626 -6.0077641150710397  0.63262104636333549 0.013415538241282689 0  
3.2946939014569354 1.0053186184388516 -6.0077641150710397  0.70453662074546375 0.023053009537988209 0  
3.2947691499114611 1.0053243774166833 -6.0077641150710397  0.77897052825561608 0.032359472682545604 0  
3.294846693262826 1.0053294218290234 -6.0077641150710397  0.8557169469719117 0.041065947030930167 0  
3.2949263137440306 1.0053335053944672 -6.0077641150710397  0.93457141814182654 0.04891753227291383 0  
3.2950077895731544 1.0053363658205916 -6.0077641150710397  1.0153262605071516 0.055643240471116802 0  
3.2950910981828829 1.0053378676252396 -6.0077641150710397  1.0979655301808551 0.061107485216499016 0  
3.2951767560122045 1.0053374547658884 -6.0077641150710397  1.1830284800399034 0.064782843814344335 0  
3.2952644901212946 1.0053362409538411 -6.0077641150710397  1.2701910125892009 0.06776201976935127 0  
3.2953538102992885 1.0053346433312185 -6.0077641150710397  1.3589465394369109 0.070435782835254382 0  
3.2954436246904515 1.0053324423116301 -6.0077641150710397  1.4482215112674024 0.072534048507698276 0  
3.2955335990833166 1.0053296122340902 -6.0077641150710397  1.5376853383269073 0.074015400453345967 0  
3.29562339953966 1.0053260956696868 -6.0077641150710397  1.6270092172409572 0.074806895370017584 0  
3.2957126840347479 1.0053218691158083 -6.0077641150710397  1.7158546981079013 0.074868887176955418 0  
3.2958011098962685 1.0053169263382722 -6.0077641150710397  1.8038818645143342 0.074178843441603776 0  
3.2958883321037895 1.0053112828478739 -6.0077641150710397  1.8907474316962125 0.072735708707567681 0  
3.2959740062633935 1.0053049741771665 -6.0077641150710397  1.9761077820170814 0.070558335505760253 0  
3.2960577897274344 1.0052980549650592 -6.0077641150710397  2.0596201203484208 0.067684628925079704 0  
3.2961393434096489 1.005290597242434 -6.0077641150710397  2.1409443579231446 0.064169931097280572 0  
3.2962183334052719 1.0052826883617108 -6.0077641150710397  2.219744819568688 0.060085042883860518 0  
3.2962944326433528 1.0052744285917496 -6.0077641150710397  2.295691998877603 0.055513914838714234 0  
3.2963673225086838 1.005265928486486 -6.0077641150710397  2.3684642939932634 0.050551112075342762 0  
3.2964366944434964 1.0052573061234666 -6.0077641150710397  2.4377497295187545 0.045299149006439381 0  
3.2965022515322051 1.0052486843054274 -6.0077641150710397  2.5032476633529956 0.039865786578890422 0  
3.2965637100775229 1.0052401878086938 -6.0077641150710397  2.5646704827297726 0.034361375586274084 0  
3.2966208011547034 1.0052319407536121 -6.0077641150710397  2.6217452727216455 0.028896320091998433 0  
3.2966732723089476 1.0052240641260271 -6.0077641150710397  2.6742156196727684 0.023578697644198173 0  
3.2967208884068095 1.0052166736649293 -6.0077641150710397  2.721842557242351 0.018512202683734758 0  
3.2967634361467031 1.005209877352123 -6.0077641150710397  2.7644091642744586 0.013793869341936405 0  
3.2968007159920245 1.0052037753578176 -6.0077641150710397  2.8017125583901694 0.0095136326908665404 0  
3.2968325682099713 1.0051984542698342 -6.0077641150710397  2.8335900232139077 0.0057498412157039091 0  
3.2968588236498539 1.005193994698464 -6.0077641150710397  2.8598697771381527 0.0025744595938890827 0  
3.296879388625789 1.0051904557764519 -6.0077641150710397  2.8804559862455719 4.1728174709142448e-05 0  
3.2968941356276402 1.0051878933221776 -6.0077641150710397  2.8952193931171655 -0.0017990164493031538 0  
3.296903018238865 1.0051863402758945 -6.0077641150710397  2.9041123432250009 -0.0029172840929490313 0  
3.2969069725858646 1.0051856464082822 -6.0077641150710397  2.9080714113836512 -0.0034175798008018012 0  
3.2969079623739339 1.0051854727305911 -6.0077641150710397  2.9090623811764846 -0.0035428057092309322 0  

0.51373719851529775 4
0.51644948617691111 1
0.51945299174717252 1
0.52300710312720133 1
0.52725421012781593 1
0.53225968459411821 1
0.5380450386039779 1
0.54460658329338163 1
0.55192538423716675 1
0.55997284499919975 1
0.56871411270903072 1
0.57811034666456584 1
0.58812034627883336 1
0.59870177875637987 1
0.60981212356491643 1
0.62140938996361605 1
0.63345263395937756 1
0.64590228737462307 1
0.65872030704952556 1
0.6718701528262635 1
0.68531660670748029 1
0.6990254509944126 1
0.7130608787820506 1
0.72766469754508867 1
0.74240472119014456 1
0.75722816342908195 1
0.7720813709306984 1
0.78690993897978068 1
0.8016588405242876 1
0.8162725697230786 1
0.83069530104595679 1
0.84487106493198205 1
0.85874394092667017 1
0.87225826905527759 1
0.88535887992530748 1
0.89799134367799749 1
0.91010223742768348 1
0.92163943024868977 1
0.93255238410553998 1
0.94279246839147035 1
0.9523132849642475 1
0.96107099977450028 1
0.96902467640447243 1
0.976136606116213 1
0.98237262839640516 1
0.98770243553302772 1
0.99209985451897442 1
0.995543099595391 1
0.99801498905577624 1
0.99950312054529189 1
1 4

0 2
1 2

9 0 0 0 0 1 1 2 2 2 2 3.2969079623739339 1.0051854727305911 -6.0077641150710397  2.9090623811764846 -0.0035428057092309322 0  
3.2969102031879598 1.0051925019037289 -6.0077641150710397  2.9109518775547412 0.0035428057092309314 0  

0 2
0.0073332179660011267 2

0 2
1 2

1 3.2969102031879598 1.0051925019037291 -6.0077641150710397 2.5251923872259055e-13 -8.9426184186032116e-13 -1 -0.9983712805969277 0.057050732504068981 -3.0312624886740324e-13 0.057050732504068981 0.9983712805969277 -8.7839893270656243e-13 
1 2.9109518775547416 0.0035428057092309322 0 0 0 -1 -0.99995876582386489 0.0090811151304850991 0 0.0090811151304850991 0.99995876582386489 0 
Triangulations 0

TShapes 28
Ve
1e-07
3.29691020318796 1.00519250190373 -6.00776411507104
0 0

0101101
*
Ve
1e-07
3.29398479438267 1.00532946248505 -6.00776411507104
0 0

0101101
*
Ed
 1e-07 1 1 0
1  1 0 0 0.513737198904424
2  1 1 0 0 0.513737198904424
0

0101000
+28 0 -27 0 *
Ve
2.91000712936561e-07
0 0 0
0 0

0101101
*
Ed
 1e-07 1 1 0
1  2 0 0 1
2  2 1 0 0 1
2  3 2 0 0 1
4 C1 1 0 2 0
0

0101000
+27 0 -25 0 *
Ve
2.91000712936561e-07
2.91095187755474 0.00354280570923093 0
0 0

0101101
*
Ed
 1e-07 1 1 0
1  3 0 0 0.513737198904424
2  4 1 0 0 0.513737198904424
0

0101000
+23 0 -25 0 *
Ed
 1e-07 1 1 0
1  4 0 0 1
2  5 1 0 0 1
2  6 3 0 0 1
0

0101000
+28 0 -23 0 *
Wi

0101000
+26 0 +24 0 -22 0 -21 0 *
Fa
0  1e-07 1 0

0111000
+20 0 *
Ve
1e-07
3.29690796237393 1.00518547273059 -6.00776411507104
0 0

0101101
*
Ed
 1e-07 1 1 0
1  5 0 0.513737198904424 1
2  7 2 0 0.513737198904424 1
0

0101000
+27 0 -18 0 *
Ve
2.91000712936561e-07
2.90906238117648 -0.00354280570923093 0
0 0

0101101
*
Ed
 1e-07 1 1 0
1  6 0 0 1
2  8 2 0 0 1
2  9 3 0 0 1
0

0101000
+18 0 -16 0 *
Ed
 1e-07 1 1 0
1  7 0 0.513737198904424 1
2  10 2 0 0.513737198904424 1
0

0101000
+25 0 -16 0 *
Wi

0101000
+17 0 +15 0 -14 0 -24 0 *
Fa
0  1e-07 2 0

0111000
+13 0 *
Ed
 1e-07 1 1 0
1  8 0 0 7.37770441946662e-06
2  11 3 0 0 7.37770441946662e-06
0

0101000
+18 0 -28 0 *
Ed
 1e-07 1 1 0
1  9 0 0 0.00733321796600113
2  12 3 0 0 0.00733321796600113
0

0101000
+16 0 -23 0 *
Wi

0101000
+11 0 +21 0 -10 0 -15 0 *
Fa
0  1e-07 3 0

0111000
+9 0 *
Wi

0101100
+26 0 +17 0 +11 0 *
Fa
0  1e-07 4 0

0111000
-7 0 *
Wi

0101100
+22 0 +14 0 +10 0 *
Fa
0  1e-07 5 0

0111000
-5 0 *
Sh

0101100
+19 0 +12 0 +8 0 +6 0 -4 0 *
So

0100100
+3 0 *
Co

1100000
+2 0 *

+1 0 
##EGADS HEADER FILE-REV 1 ##
12
2 15 1
_cfgpmtr_series
 8.412000000000e+03
2 14 1
_cfgpmtr_nspar
 3.000000000000e+00
2 13 1
_cfgpmtr_nrib
 8.000000000000e+00
2 17 1
_cfgpmtr_onesolid
 1.000000000000e+00
2 13 1
_despmtr_area
 1.750022510000e+01
2 15 1
_despmtr_aspect
 8.249774950000e+00
2 14 1
_despmtr_taper
 1.006066430000e-03
2 14 1
_despmtr_twist
 2.750225260000e+00
2 16 1
_despmtr_lesweep
 2.873542870000e+01
2 17 1
_despmtr_dihedral
 9.499763810000e+00
2 17 4
_cfgpmtr_faceList
 4.400000000000e+01  4.500000000000e+01  5.000000000000e+01  5.300000000000e+01 
2 17 24
_cfgpmtr_edgeList
 9.500000000000e+01  7.700000000000e+01  5.900000000000e+01  4.100000000000e+01  2.300000000000e+01  1.000000000000e+01  1.000000000000e+00  1.180000000000e+02  1.030000000000e+02  8.500000000000e+01  9.000000000000e+01  4.900000000000e+01  3.100000000000e+01  1.800000000000e+01  1.310000000000e+02  1.230000000000e+02  1.080000000000e+02  6.700000000000e+01  7.200000000000e+01  5.400000000000e+01  3.600000000000e+01  3.600000000000e+01  3.600000000000e+01  3.600000000000e+01 
  1  1  5  5  9  6  3
2 3 1
OML
 0.000000000000e+00
1 5 1
_body
7
1 5 1
_brch
18
    2 0 6
1 5 2
_body
7 3 
1 5 2
_brch
18 3 
2 3 1
OML
 0.000000000000e+00
1 5 1
_hist
7
1 7 3
_faceID
7 3 1 
1 9 2
__trace__
7 1 
    2 1 6
1 5 2
_body
7 4 
1 5 2
_brch
18 4 
2 3 1
OML
 0.000000000000e+00
1 5 1
_hist
7
1 7 3
_faceID
7 4 1 
1 9 2
__trace__
7 2 
    2 2 6
1 5 2
_body
7 5 
1 5 2
_brch
18 5 
2 3 1
OML
 0.000000000000e+00
1 5 1
_hist
7
1 7 3
_faceID
7 5 1 
1 9 2
__trace__
7 3 
    2 3 6
1 5 2
_body
7 1 
1 5 2
_brch
18 1 
2 3 1
OML
 0.000000000000e+00
1 5 1
_hist
7
1 7 3
_faceID
7 1 1 
1 9 2
__trace__
7 4 
    2 4 6
1 5 2
_body
7 2 
1 5 2
_brch
18 2 
2 3 1
OML
 0.000000000000e+00
1 5 1
_hist
7
1 7 3
_faceID
7 2 1 
1 9 2
__trace__
7 5 
    4 0 4
1 5 2
_body
7 30001 
1 7 5
_edgeID
7 1 7 3 1 
1 6 1
_nface
2
1 9 2
__trace__
7 1 
    4 1 4
1 5 2
_body
7 30004 
1 7 5
_edgeID
7 3 7 4 1 
1 6 1
_nface
2
1 9 2
__trace__
7 2 
    4 2 4
1 5 2
_body
7 20003 
1 7 5
_edgeID
7 2 7 3 1 
1 6 1
_nface
2
1 9 2
__trace__
7 3 
    4 3 4
1 5 2
_body
7 50003 
1 7 5
_edgeID
7 3 7 5 1 
1 6 1
_nface
2
1 9 2
__trace__
7 4 
    4 4 4
1 5 2
_body
7 40001 
1 7 5
_edgeID
7 1 7 4 1 
1 6 1
_nface
2
1 9 2
__trace__
7 5 
    4 5 4
1 5 2
_body
7 40005 
1 7 5
_edgeID
7 4 7 5 1 
1 6 1
_nface
2
1 9 2
__trace__
7 6 
    4 6 4
1 5 2
_body
7 20004 
1 7 5
_edgeID
7 2 7 4 1 
1 6 1
_nface
2
1 9 2
__trace__
7 7 
    4 7 4
1 5 2
_body
7 50001 
1 7 5
_edgeID
7 1 7 5 1 
1 6 1
_nface
2
1 9 2
__trace__
7 8 
    4 8 4
1 5 2
_body
7 20005 
1 7 5
_edgeID
7 2 7 5 1 
1 6 1
_nface
2
1 9 2
__trace__
7 9 
    5 0 3
1 9 10
__trace__
3 1 4 1 5 1 6 1 7 1 
1 7 1
_nodeID
1
1 6 1
_nedge
3
    5 1 3
1 9 10
__trace__
3 2 4 2 5 2 6 2 7 2 
1 7 1
_nodeID
2
1 6 1
_nedge
3
    5 2 3
1 9 6
__trace__
1 2 2 2 7 3 
1 7 1
_nodeID
3
1 6 1
_nedge
3
    5 3 3
1 9 6
__trace__
1 1 2 1 7 4 
1 7 1
_nodeID
4
1 6 1
_nedge
3
    5 4 3
1 9 10
__trace__
3 3 4 3 5 3 6 3 7 5 
1 7 1
_nodeID
5
1 6 1
_nedge
3
    5 5 3
1 9 6
__trace__
1 3 2 3 7 6 
1 7 1
_nodeID
6
1 6 1
_nedge
3
    0 0 0
