DBRep_DrawableShape

CASCADE Topology V1, (c) Matra-Datavision
Locations 0
Curve2ds 12
1 0 0 1 0 
1 0.51373719851529775 0 0 1 
1 0.51373719851529775 0 0 1 
1 0 1 1 0 
1 0 0 0 1 
1 0.011830203675687758 0 0 1 
1 0 0 1 0 
1 1 0 0 1 
1 0 0 0 1 
1 0 1 1 0 
7 0 0  1 2 2  0 0  0.011830203675687758 0 
 0 2 0.0011830203675687759 2
1 0 1 1 0 
Curves 9
7 0 0  3 103 101  4.8791115289964226 1.1315154173542665 -7.745966692414834  4.8790136404967654 1.1316436270888031 -7.745966692414834  4.8786224977311701 1.1321559274286568 -7.745966692414834  4.8777422591097714 1.1333057670870823 -7.745966692414834  4.8762763356016459 1.1352120136648531 -7.745966692414834  4.874222372624109 1.1378643702527187 -7.745966692414834  4.8715837689428776 1.1412405936554861 -7.745966692414834  4.8683582877799498 1.1453212874831844 -7.745966692414834  4.8645493291413855 1.150075907114479 -7.745966692414834  4.8601578140271986 1.1554739072134961 -7.745966692414834  4.8551874784465197 1.161478498126816 -7.745966692414834  4.8496426760759617 1.1680502121662637 -7.745966692414834  4.8435295847438722 1.1751460354115808 -7.745966692414834  4.8368561472506251 1.1827201893827299 -7.745966692414834  4.8296323597963244 1.1907244359986475 -7.745966692414834  4.8218704515355073 1.1991084901888505 -7.745966692414834  4.8135850512267346 1.2078204055720156 -7.745966692414834  4.8047933238274583 1.2168069508345853 -7.745966692414834  4.7955150798086512 1.226013972351311 -7.745966692414834  4.7857728591547861 1.2353867431534211 -7.745966692414834  4.7755919926341264 1.2448703000589725 -7.745966692414834  4.7650006445996675 1.2544097715527969 -7.745966692414834  4.7540298316067666 1.2639507040843125 -7.745966692414834  4.7427134549823444 1.2734393801054222 -7.745966692414834  4.7310882050792786 1.2828231596907913 -7.745966692414834  4.7191938112855221 1.2920508443369065 -7.745966692414834  4.7070721883482225 1.3010727232391379 -7.745966692414834  4.6947696814922004 1.3098426409136306 -7.745966692414834  4.6823299502966105 1.3183108609583256 -7.745966692414834  4.6697129763516303 1.3265217899919743 -7.745966692414834  4.6568877524290189 1.334374205865456 -7.745966692414834  4.6438003533386309 1.341636703215946 -7.745966692414834  4.6306568035282556 1.3482642706557879 -7.745966692414834  4.6175555923633853 1.3542134257960001 -7.745966692414834  4.6045790045423871 1.3594800821511424 -7.745966692414834  4.5918085941377234 1.3640642508185881 -7.745966692414834  4.5793266208729833 1.3679748536854346 -7.745966692414834  4.5672143804322856 1.3712279011882305 -7.745966692414834  4.5555512165991257 1.3738461050608051 -7.745966692414834  4.5444134817530992 1.3758579556849662 -7.745966692414834  4.533873603701668 1.3772967500180817 -7.745966692414834  4.5239992385814372 1.3781995086009504 -7.745966692414834  4.5148525113499725 1.3786058306062587 -7.745966692414834  4.5064893177806287 1.3785567148651034 -7.745966692414834  4.4989586515642443 1.3780933717140729 -7.745966692414834  4.4923018175989231 1.3772560132836316 -7.745966692414834  4.4865514706961944 1.3760824265739175 -7.745966692414834  4.4817299663678112 1.3746061794991418 -7.745966692414834  4.4778473355595603 1.3728515021554166 -7.745966692414834  4.4749022790269741 1.3708251573355712 -7.745966692414834  4.4729033869257888 1.3684915486429343 -7.745966692414834  4.4719584174130018 1.3658483421787597 -7.745966692414834  4.4721180285499491 1.3630512371762611 -7.745966692414834  4.4733402132466367 1.3602542790129621 -7.745966692414834  4.4755010053943076 1.3574670661370187 -7.745966692414834  4.4785598414491021 1.3546386861794439 -7.745966692414834  4.4824949651538812 1.3517456151224456 -7.745966692414834  4.4872796891924356 1.3487748818316692 -7.745966692414834  4.4928800448732069 1.3457174112450687 -7.745966692414834  4.4992560918560978 1.3425638142744851 -7.745966692414834  4.5063635915819704 1.3393033192188557 -7.745966692414834  4.5141551617200362 1.335923362484617 -7.745966692414834  4.5225812376736556 1.3324095266739326 -7.745966692414834  4.5315908275267125 1.3287456218386242 -7.745966692414834  4.5411321397306246 1.3249138461929149 -7.745966692414834  4.5511530934779953 1.3208950189885362 -7.745966692414834  4.5616017182594364 1.3166688879178252 -7.745966692414834  4.5724264361881923 1.3122145054316476 -7.745966692414834  4.5835762913633227 1.3075107445612681 -7.745966692414834  4.5950008319042555 1.3025366279106518 -7.745966692414834  4.6066509321234914 1.2972730352950486 -7.745966692414834  4.6184757184603296 1.2916988588562932 -7.745966692414834  4.6304620267535448 1.2857964418455294 -7.745966692414834  4.6426426533188465 1.2794486008279591 -7.745966692414834  4.6550604577905812 1.2728341399505105 -7.745966692414834  4.6676761847511488 1.2660485160573918 -7.745966692414834  4.6803180628723799 1.2591405899408314 -7.745966692414834  4.6929365646643371 1.2521312412622772 -7.745966692414834  4.70547986919214 1.2450368009501034 -7.745966692414834  4.7178974936143172 1.2378790300014553 -7.745966692414834  4.7301401306194695 1.2306821986568934 -7.745966692414834  4.742159734673546 1.22347384940767 -7.745966692414834  4.7539098195498797 1.2162843329449264 -7.745966692414834  4.7653455507472291 1.2091465954524538 -7.745966692414834  4.7764238783731461 1.2020958009477574 -7.745966692414834  4.7871036160877294 1.1951689171830382 -7.745966692414834  4.7973455000679612 1.1884042514738853 -7.745966692414834  4.8071122270265052 1.1818409565037389 -7.745966692414834  4.8163684797954582 1.1755185190675181 -7.745966692414834  4.8250809477790995 1.1694762447912694 -7.745966692414834  4.8332183496148584 1.1637527501602269 -7.745966692414834  4.8407514616756835 1.1583854735485897 -7.745966692414834  4.8476531780704599 1.1534101972711139 -7.745966692414834  4.8538984769276681 1.1488606839466162 -7.745966692414834  4.8594648790817905 1.1447679874772678 -7.745966692414834  4.864331294105777 1.1411610375616159 -7.745966692414834  4.8684813085804572 1.1380639052732324 -7.745966692414834  4.8718967276517766 1.1355005010197947 -7.745966692414834  4.8745685374609113 1.1334861328652299 -7.745966692414834  4.8764826589977837 1.1320381197664868 -7.745966692414834  4.8776348938281879 1.1311645654124134 -7.745966692414834  4.8781476614909396 1.1307753236152354 -7.745966692414834  4.8782760091844786 1.1306778949163987 -7.745966692414834 
 0 4 0.00049739984301800169 1 0.00198741502815918 1 0.0044635102977900153 1 0.0079148522906514057 1 0.012326395880791562 1 0.017679001628741791 1 0.023949581151797125 1 0.031111266611454625 1 0.039133600095283015 1 0.047982738444039219 1 0.057621669037433883 1 0.068010432190637585 1 0.079106346111928252 1 0.090864230813156949 1 0.10323662793382841 1 0.11617401412241497 1 0.129625006399325 1 0.14353655878335592 1 0.15785415036621575 1 0.17252196592359864 1 0.18748307099874312 1 0.20267958411747308 1 0.21805284932105037 1 0.2335436124699419 1 0.24909220473126328 1 0.26463873629818824 1 0.28012330272223812 1 0.29548620533261971 1 0.31104957869740602 1 0.3264784133363568 1 0.34162084310623081 1 0.35642269447770392 1 0.37082983330862862 1 0.38478841506599898 1 0.39824519846949297 1 0.41114792049166898 1 0.4234457334204193 1 0.43508970918060325 1 0.44603342303631127 1 0.45623363983425413 1 0.46565114465521051 1 0.47425179342967533 1 0.48200792301895584 1 0.48890038732574265 1 0.49492174892025381 1 0.50008171570891213 1 0.5044170938122049 1 0.50801066881149448 1 0.51102448248994026 1 0.51373719851529775 1 0.51644948617691111 1 0.51945299174717252 1 0.52300710312720133 1 0.52725421012781593 1 0.53225968459411821 1 0.5380450386039779 1 0.54460658329338163 1 0.55192538423716675 1 0.55997284499919975 1 0.56871411270903072 1 0.57811034666456584 1 0.58812034627883336 1 0.59870177875637987 1 0.60981212356491643 1 0.62140938996361605 1 0.63345263395937756 1 0.64590228737462307 1 0.65872030704952556 1 0.6718701528262635 1 0.68531660670748029 1 0.6990254509944126 1 0.7130608787820506 1 0.72766469754508867 1 0.74240472119014456 1 0.75722816342908195 1 0.7720813709306984 1 0.78690993897978068 1 0.8016588405242876 1 0.8162725697230786 1 0.83069530104595679 1 0.84487106493198205 1 0.85874394092667017 1 0.87225826905527759 1 0.88535887992530748 1 0.89799134367799749 1 0.91010223742768348 1 0.92163943024868977 1 0.93255238410553998 1 0.94279246839147035 1 0.9523132849642475 1 0.96107099977450028 1 0.96902467640447243 1 0.976136606116213 1 0.98237262839640516 1 0.98770243553302772 1 0.99209985451897442 1 0.995543099595391 1 0.99801498905577624 1 0.99950312054529189 1 1 4
7 0 0  1 2 2  4.4721359523379602 1.365822920054315 -7.745966692414834  -2.5612657203900185e-08 -8.8699537567279996e-09 0 
 0 2 1 2
7 0 0  3 103 101  4.6960493689480751 0.0057153780670242942 0  4.6945605810009807 0.0063362644399496421 0  4.6886116835865872 0.0088172016987784745 0  4.6752393952192284 0.014373912136540098 0  4.653012892349957 0.0235528742181794 0  4.621963268240834 0.036253141180361825 0  4.5822311730423397 0.052299075130685151 0  4.5338942176386157 0.071511514514578212 0  4.4771345700525309 0.093642935182089049 0  4.4121129330575544 0.11843341176495002 0  4.339045609708938 0.14558301656423814 0  4.2581676423930297 0.17477171775713563 0  4.1697476022739997 0.20565789300877332 0  4.0740831684210592 0.23788480305443785 0  3.9715021008718412 0.27108467485834004 0  3.8623617325637012 0.30488317270846377 0  3.7470484841686718 0.3389035715390159 0  3.6259771651466153 0.37277069943907459 0  3.4995901073350075 0.40611462461178577 0  3.3683561475692518 0.43857409752722343 0  3.2327694726471958 0.46979977690835173 0  3.0933483505964348 0.49945728325935124 0  2.9506336604186498 0.5272301177757065 0  2.8051875839576783 0.55282257947920477 0  2.6575910686168629 0.57596224500831306 0  2.5084441735061946 0.59640436925600504 0  2.3583584450070632 0.61392801776149875 0  2.2079660219591246 0.62836519843347705 0  2.0578936894193407 0.63950347929095153 0  1.9075728446987037 0.64752734088415986 0  1.7572410680692423 0.65140513754625584 0  1.6075883804993822 0.64886321409873304 0  1.4606240629832623 0.64054188272883339 0  1.3174184703909768 0.62655702172926597 0  1.1787046415410256 0.60728466458983543 0  1.0451887999318759 0.58313267777891997 0  0.91753872623141064 0.554589625723234 0  0.79637840953354078 0.52220064129113342 0  0.68228142849050677 0.48655913278469909 0  0.57576656219695521 0.448293596045996 0  0.47729456907808626 0.40805453022183241 0  0.38726626576010914 0.36650082328316491 0  0.30602167429421473 0.32428603891297819 0  0.23383987212180632 0.28204471627059463 0  0.17093910536886217 0.24037871579405584 0  0.11747602429363202 0.19984280923909575 0  0.073544492858842556 0.16092751568389224 0  0.039170275904355706 0.12403531935179139 0  0.01431909348836957 0.089426213759430134 0  -0.0010541201404116241 0.057152270188367382 0  -0.0066969900677353259 0.026948165579282552 0  -0.0016646337856121851 -0.00066752143887538202 0  0.013703164220115501 -0.024093105646301394 0  0.038272384991088954 -0.042204550390254718 0  0.070921458292615938 -0.055538561215121296 0  0.11155365537512754 -0.064738869889293629 0  0.1600981816138449 -0.070117981668542703 0  0.21638877374259161 -0.071921666452572947 0  0.28017662957336043 -0.070398360041914396 0  0.35116280105534031 -0.06582907602569249 0  0.42901802953345158 -0.05852829286721576 0  0.51339478995398125 -0.048841726132316132 0  0.6039359273079199 -0.037142057132018035 0  0.70028078838871965 -0.023824454510992819 0  0.80206985415753052 -0.0093020439992990821 0  0.90894799533314397 0.0059986602134353079 0  1.0205663956400961 0.021642415451057075 0  1.136583115222016 0.03718992118281339 0  1.2566624978757119 0.052203432987704239 0  1.3804725044789239 0.066249021884157933 0  1.5076832950218704 0.078915473777492626 0  1.6379598308359031 0.089765621450298316 0  1.7712763906848821 0.098580732165864396 0  1.9085029161683607 0.10450994918836215 0  2.0491165618731055 0.10931606002494794 0  2.1923000816892988 0.11362946810811364 0  2.3363215883174346 0.11701446367019856 0  2.4806477628055488 0.11940423243387611 0  2.624748168051231 0.12068109971313998 0  2.7680768048370705 0.12078110706403267 0  2.910085308117607 0.11966790437836453 0  3.0502198789063351 0.11733978895696839 0  3.1879261812153348 0.11382717436201278 0  3.3226512059552498 0.10919121040850251 0  3.4538463100336352 0.10352117695877609 0  3.5809699705230766 0.096931292438607167 0  3.7034906161637768 0.089556988817407451 0  3.8208894275937588 0.08155082184335169 0  3.9326631151925007 0.073078171352069732 0  4.0383266726086635 0.064312881071630301 0  4.1374161128695661 0.055432972761356045 0  4.2294911600700464 0.046616554117322052 0  4.3141381587333463 0.038037979619802924 0  4.3909716000015155 0.029864532767136631 0  4.4596415390797608 0.022252752413401761 0  4.5198206790193254 0.015347724962006844 0  4.5712465200727106 0.0092758449291988343 0  4.6136419381432177 0.004153208249330736 0  4.6468523306039602 6.731735073368227e-05 0  4.6706691748662941 -0.0029022362501485255 0  4.6850155929792141 -0.0047062647202686129 0  4.691402500186924 -0.0055133592522204717 0  4.6930011673123291 -0.0057153780670242942 0 
 0 4 0.00049739984301800169 1 0.00198741502815918 1 0.0044635102977900153 1 0.0079148522906514057 1 0.012326395880791562 1 0.017679001628741791 1 0.023949581151797125 1 0.031111266611454625 1 0.039133600095283015 1 0.047982738444039219 1 0.057621669037433883 1 0.068010432190637585 1 0.079106346111928252 1 0.090864230813156949 1 0.10323662793382841 1 0.11617401412241497 1 0.129625006399325 1 0.14353655878335592 1 0.15785415036621575 1 0.17252196592359864 1 0.18748307099874312 1 0.20267958411747308 1 0.21805284932105037 1 0.2335436124699419 1 0.24909220473126328 1 0.26463873629818824 1 0.28012330272223812 1 0.29548620533261971 1 0.31104957869740602 1 0.3264784133363568 1 0.34162084310623081 1 0.35642269447770392 1 0.37082983330862862 1 0.38478841506599898 1 0.39824519846949297 1 0.41114792049166898 1 0.4234457334204193 1 0.43508970918060325 1 0.44603342303631127 1 0.45623363983425413 1 0.46565114465521051 1 0.47425179342967533 1 0.48200792301895584 1 0.48890038732574265 1 0.49492174892025381 1 0.50008171570891213 1 0.5044170938122049 1 0.50801066881149448 1 0.51102448248994026 1 0.51373719851529775 1 0.51644948617691111 1 0.51945299174717252 1 0.52300710312720133 1 0.52725421012781593 1 0.53225968459411821 1 0.5380450386039779 1 0.54460658329338163 1 0.55192538423716675 1 0.55997284499919975 1 0.56871411270903072 1 0.57811034666456584 1 0.58812034627883336 1 0.59870177875637987 1 0.60981212356491643 1 0.62140938996361605 1 0.63345263395937756 1 0.64590228737462307 1 0.65872030704952556 1 0.6718701528262635 1 0.68531660670748029 1 0.6990254509944126 1 0.7130608787820506 1 0.72766469754508867 1 0.74240472119014456 1 0.75722816342908195 1 0.7720813709306984 1 0.78690993897978068 1 0.8016588405242876 1 0.8162725697230786 1 0.83069530104595679 1 0.84487106493198205 1 0.85874394092667017 1 0.87225826905527759 1 0.88535887992530748 1 0.89799134367799749 1 0.91010223742768348 1 0.92163943024868977 1 0.93255238410553998 1 0.94279246839147035 1 0.9523132849642475 1 0.96107099977450028 1 0.96902467640447243 1 0.976136606116213 1 0.98237262839640516 1 0.98770243553302772 1 0.99209985451897442 1 0.995543099595391 1 0.99801498905577624 1 0.99950312054529189 1 1 4
7 0 0  1 2 2  4.8791115289964226 1.1315154173542665 -7.745966692414834  4.6960493689480751 0.0057153780670242942 0 
 0 2 1 2
7 0 0  3 103 101  4.8791115289964226 1.1315154173542665 -7.745966692414834  4.8790136404967654 1.1316436270888031 -7.745966692414834  4.8786224977311701 1.1321559274286568 -7.745966692414834  4.8777422591097714 1.1333057670870823 -7.745966692414834  4.8762763356016459 1.1352120136648531 -7.745966692414834  4.874222372624109 1.1378643702527187 -7.745966692414834  4.8715837689428776 1.1412405936554861 -7.745966692414834  4.8683582877799498 1.1453212874831844 -7.745966692414834  4.8645493291413855 1.150075907114479 -7.745966692414834  4.8601578140271986 1.1554739072134961 -7.745966692414834  4.8551874784465197 1.161478498126816 -7.745966692414834  4.8496426760759617 1.1680502121662637 -7.745966692414834  4.8435295847438722 1.1751460354115808 -7.745966692414834  4.8368561472506251 1.1827201893827299 -7.745966692414834  4.8296323597963244 1.1907244359986475 -7.745966692414834  4.8218704515355073 1.1991084901888505 -7.745966692414834  4.8135850512267346 1.2078204055720156 -7.745966692414834  4.8047933238274583 1.2168069508345853 -7.745966692414834  4.7955150798086512 1.226013972351311 -7.745966692414834  4.7857728591547861 1.2353867431534211 -7.745966692414834  4.7755919926341264 1.2448703000589725 -7.745966692414834  4.7650006445996675 1.2544097715527969 -7.745966692414834  4.7540298316067666 1.2639507040843125 -7.745966692414834  4.7427134549823444 1.2734393801054222 -7.745966692414834  4.7310882050792786 1.2828231596907913 -7.745966692414834  4.7191938112855221 1.2920508443369065 -7.745966692414834  4.7070721883482225 1.3010727232391379 -7.745966692414834  4.6947696814922004 1.3098426409136306 -7.745966692414834  4.6823299502966105 1.3183108609583256 -7.745966692414834  4.6697129763516303 1.3265217899919743 -7.745966692414834  4.6568877524290189 1.334374205865456 -7.745966692414834  4.6438003533386309 1.341636703215946 -7.745966692414834  4.6306568035282556 1.3482642706557879 -7.745966692414834  4.6175555923633853 1.3542134257960001 -7.745966692414834  4.6045790045423871 1.3594800821511424 -7.745966692414834  4.5918085941377234 1.3640642508185881 -7.745966692414834  4.5793266208729833 1.3679748536854346 -7.745966692414834  4.5672143804322856 1.3712279011882305 -7.745966692414834  4.5555512165991257 1.3738461050608051 -7.745966692414834  4.5444134817530992 1.3758579556849662 -7.745966692414834  4.533873603701668 1.3772967500180817 -7.745966692414834  4.5239992385814372 1.3781995086009504 -7.745966692414834  4.5148525113499725 1.3786058306062587 -7.745966692414834  4.5064893177806287 1.3785567148651034 -7.745966692414834  4.4989586515642443 1.3780933717140729 -7.745966692414834  4.4923018175989231 1.3772560132836316 -7.745966692414834  4.4865514706961944 1.3760824265739175 -7.745966692414834  4.4817299663678112 1.3746061794991418 -7.745966692414834  4.4778473355595603 1.3728515021554166 -7.745966692414834  4.4749022790269741 1.3708251573355712 -7.745966692414834  4.4729033869257888 1.3684915486429343 -7.745966692414834  4.4719584174130018 1.3658483421787597 -7.745966692414834  4.4721180285499491 1.3630512371762611 -7.745966692414834  4.4733402132466367 1.3602542790129621 -7.745966692414834  4.4755010053943076 1.3574670661370187 -7.745966692414834  4.4785598414491021 1.3546386861794439 -7.745966692414834  4.4824949651538812 1.3517456151224456 -7.745966692414834  4.4872796891924356 1.3487748818316692 -7.745966692414834  4.4928800448732069 1.3457174112450687 -7.745966692414834  4.4992560918560978 1.3425638142744851 -7.745966692414834  4.5063635915819704 1.3393033192188557 -7.745966692414834  4.5141551617200362 1.335923362484617 -7.745966692414834  4.5225812376736556 1.3324095266739326 -7.745966692414834  4.5315908275267125 1.3287456218386242 -7.745966692414834  4.5411321397306246 1.3249138461929149 -7.745966692414834  4.5511530934779953 1.3208950189885362 -7.745966692414834  4.5616017182594364 1.3166688879178252 -7.745966692414834  4.5724264361881923 1.3122145054316476 -7.745966692414834  4.5835762913633227 1.3075107445612681 -7.745966692414834  4.5950008319042555 1.3025366279106518 -7.745966692414834  4.6066509321234914 1.2972730352950486 -7.745966692414834  4.6184757184603296 1.2916988588562932 -7.745966692414834  4.6304620267535448 1.2857964418455294 -7.745966692414834  4.6426426533188465 1.2794486008279591 -7.745966692414834  4.6550604577905812 1.2728341399505105 -7.745966692414834  4.6676761847511488 1.2660485160573918 -7.745966692414834  4.6803180628723799 1.2591405899408314 -7.745966692414834  4.6929365646643371 1.2521312412622772 -7.745966692414834  4.70547986919214 1.2450368009501034 -7.745966692414834  4.7178974936143172 1.2378790300014553 -7.745966692414834  4.7301401306194695 1.2306821986568934 -7.745966692414834  4.742159734673546 1.22347384940767 -7.745966692414834  4.7539098195498797 1.2162843329449264 -7.745966692414834  4.7653455507472291 1.2091465954524538 -7.745966692414834  4.7764238783731461 1.2020958009477574 -7.745966692414834  4.7871036160877294 1.1951689171830382 -7.745966692414834  4.7973455000679612 1.1884042514738853 -7.745966692414834  4.8071122270265052 1.1818409565037389 -7.745966692414834  4.8163684797954582 1.1755185190675181 -7.745966692414834  4.8250809477790995 1.1694762447912694 -7.745966692414834  4.8332183496148584 1.1637527501602269 -7.745966692414834  4.8407514616756835 1.1583854735485897 -7.745966692414834  4.8476531780704599 1.1534101972711139 -7.745966692414834  4.8538984769276681 1.1488606839466162 -7.745966692414834  4.8594648790817905 1.1447679874772678 -7.745966692414834  4.864331294105777 1.1411610375616159 -7.745966692414834  4.8684813085804572 1.1380639052732324 -7.745966692414834  4.8718967276517766 1.1355005010197947 -7.745966692414834  4.8745685374609113 1.1334861328652299 -7.745966692414834  4.8764826589977837 1.1320381197664868 -7.745966692414834  4.8776348938281879 1.1311645654124134 -7.745966692414834  4.8781476614909396 1.1307753236152354 -7.745966692414834  4.8782760091844786 1.1306778949163987 -7.745966692414834 
 0 4 0.00049739984301800169 1 0.00198741502815918 1 0.0044635102977900153 1 0.0079148522906514057 1 0.012326395880791562 1 0.017679001628741791 1 0.023949581151797125 1 0.031111266611454625 1 0.039133600095283015 1 0.047982738444039219 1 0.057621669037433883 1 0.068010432190637585 1 0.079106346111928252 1 0.090864230813156949 1 0.10323662793382841 1 0.11617401412241497 1 0.129625006399325 1 0.14353655878335592 1 0.15785415036621575 1 0.17252196592359864 1 0.18748307099874312 1 0.20267958411747308 1 0.21805284932105037 1 0.2335436124699419 1 0.24909220473126328 1 0.26463873629818824 1 0.28012330272223812 1 0.29548620533261971 1 0.31104957869740602 1 0.3264784133363568 1 0.34162084310623081 1 0.35642269447770392 1 0.37082983330862862 1 0.38478841506599898 1 0.39824519846949297 1 0.41114792049166898 1 0.4234457334204193 1 0.43508970918060325 1 0.44603342303631127 1 0.45623363983425413 1 0.46565114465521051 1 0.47425179342967533 1 0.48200792301895584 1 0.48890038732574265 1 0.49492174892025381 1 0.50008171570891213 1 0.5044170938122049 1 0.50801066881149448 1 0.51102448248994026 1 0.51373719851529775 1 0.51644948617691111 1 0.51945299174717252 1 0.52300710312720133 1 0.52725421012781593 1 0.53225968459411821 1 0.5380450386039779 1 0.54460658329338163 1 0.55192538423716675 1 0.55997284499919975 1 0.56871411270903072 1 0.57811034666456584 1 0.58812034627883336 1 0.59870177875637987 1 0.60981212356491643 1 0.62140938996361605 1 0.63345263395937756 1 0.64590228737462307 1 0.65872030704952556 1 0.6718701528262635 1 0.68531660670748029 1 0.6990254509944126 1 0.7130608787820506 1 0.72766469754508867 1 0.74240472119014456 1 0.75722816342908195 1 0.7720813709306984 1 0.78690993897978068 1 0.8016588405242876 1 0.8162725697230786 1 0.83069530104595679 1 0.84487106493198205 1 0.85874394092667017 1 0.87225826905527759 1 0.88535887992530748 1 0.89799134367799749 1 0.91010223742768348 1 0.92163943024868977 1 0.93255238410553998 1 0.94279246839147035 1 0.9523132849642475 1 0.96107099977450028 1 0.96902467640447243 1 0.976136606116213 1 0.98237262839640516 1 0.98770243553302772 1 0.99209985451897442 1 0.995543099595391 1 0.99801498905577624 1 0.99950312054529189 1 1 4
7 0 0  1 2 2  4.8782760091844786 1.1306778949163987 -7.745966692414834  4.6930011673123291 -0.0057153780670242942 0 
 0 2 1 2
7 0 0  3 103 101  4.6960493689480751 0.0057153780670242942 0  4.6945605810009807 0.0063362644399496421 0  4.6886116835865872 0.0088172016987784745 0  4.6752393952192284 0.014373912136540098 0  4.653012892349957 0.0235528742181794 0  4.621963268240834 0.036253141180361825 0  4.5822311730423397 0.052299075130685151 0  4.5338942176386157 0.071511514514578212 0  4.4771345700525309 0.093642935182089049 0  4.4121129330575544 0.11843341176495002 0  4.339045609708938 0.14558301656423814 0  4.2581676423930297 0.17477171775713563 0  4.1697476022739997 0.20565789300877332 0  4.0740831684210592 0.23788480305443785 0  3.9715021008718412 0.27108467485834004 0  3.8623617325637012 0.30488317270846377 0  3.7470484841686718 0.3389035715390159 0  3.6259771651466153 0.37277069943907459 0  3.4995901073350075 0.40611462461178577 0  3.3683561475692518 0.43857409752722343 0  3.2327694726471958 0.46979977690835173 0  3.0933483505964348 0.49945728325935124 0  2.9506336604186498 0.5272301177757065 0  2.8051875839576783 0.55282257947920477 0  2.6575910686168629 0.57596224500831306 0  2.5084441735061946 0.59640436925600504 0  2.3583584450070632 0.61392801776149875 0  2.2079660219591246 0.62836519843347705 0  2.0578936894193407 0.63950347929095153 0  1.9075728446987037 0.64752734088415986 0  1.7572410680692423 0.65140513754625584 0  1.6075883804993822 0.64886321409873304 0  1.4606240629832623 0.64054188272883339 0  1.3174184703909768 0.62655702172926597 0  1.1787046415410256 0.60728466458983543 0  1.0451887999318759 0.58313267777891997 0  0.91753872623141064 0.554589625723234 0  0.79637840953354078 0.52220064129113342 0  0.68228142849050677 0.48655913278469909 0  0.57576656219695521 0.448293596045996 0  0.47729456907808626 0.40805453022183241 0  0.38726626576010914 0.36650082328316491 0  0.30602167429421473 0.32428603891297819 0  0.23383987212180632 0.28204471627059463 0  0.17093910536886217 0.24037871579405584 0  0.11747602429363202 0.19984280923909575 0  0.073544492858842556 0.16092751568389224 0  0.039170275904355706 0.12403531935179139 0  0.01431909348836957 0.089426213759430134 0  -0.0010541201404116241 0.057152270188367382 0  -0.0066969900677353259 0.026948165579282552 0  -0.0016646337856121851 -0.00066752143887538202 0  0.013703164220115501 -0.024093105646301394 0  0.038272384991088954 -0.042204550390254718 0  0.070921458292615938 -0.055538561215121296 0  0.11155365537512754 -0.064738869889293629 0  0.1600981816138449 -0.070117981668542703 0  0.21638877374259161 -0.071921666452572947 0  0.28017662957336043 -0.070398360041914396 0  0.35116280105534031 -0.06582907602569249 0  0.42901802953345158 -0.05852829286721576 0  0.51339478995398125 -0.048841726132316132 0  0.6039359273079199 -0.037142057132018035 0  0.70028078838871965 -0.023824454510992819 0  0.80206985415753052 -0.0093020439992990821 0  0.90894799533314397 0.0059986602134353079 0  1.0205663956400961 0.021642415451057075 0  1.136583115222016 0.03718992118281339 0  1.2566624978757119 0.052203432987704239 0  1.3804725044789239 0.066249021884157933 0  1.5076832950218704 0.078915473777492626 0  1.6379598308359031 0.089765621450298316 0  1.7712763906848821 0.098580732165864396 0  1.9085029161683607 0.10450994918836215 0  2.0491165618731055 0.10931606002494794 0  2.1923000816892988 0.11362946810811364 0  2.3363215883174346 0.11701446367019856 0  2.4806477628055488 0.11940423243387611 0  2.624748168051231 0.12068109971313998 0  2.7680768048370705 0.12078110706403267 0  2.910085308117607 0.11966790437836453 0  3.0502198789063351 0.11733978895696839 0  3.1879261812153348 0.11382717436201278 0  3.3226512059552498 0.10919121040850251 0  3.4538463100336352 0.10352117695877609 0  3.5809699705230766 0.096931292438607167 0  3.7034906161637768 0.089556988817407451 0  3.8208894275937588 0.08155082184335169 0  3.9326631151925007 0.073078171352069732 0  4.0383266726086635 0.064312881071630301 0  4.1374161128695661 0.055432972761356045 0  4.2294911600700464 0.046616554117322052 0  4.3141381587333463 0.038037979619802924 0  4.3909716000015155 0.029864532767136631 0  4.4596415390797608 0.022252752413401761 0  4.5198206790193254 0.015347724962006844 0  4.5712465200727106 0.0092758449291988343 0  4.6136419381432177 0.004153208249330736 0  4.6468523306039602 6.731735073368227e-05 0  4.6706691748662941 -0.0029022362501485255 0  4.6850155929792141 -0.0047062647202686129 0  4.691402500186924 -0.0055133592522204717 0  4.6930011673123291 -0.0057153780670242942 0 
 0 4 0.00049739984301800169 1 0.00198741502815918 1 0.0044635102977900153 1 0.0079148522906514057 1 0.012326395880791562 1 0.017679001628741791 1 0.023949581151797125 1 0.031111266611454625 1 0.039133600095283015 1 0.047982738444039219 1 0.057621669037433883 1 0.068010432190637585 1 0.079106346111928252 1 0.090864230813156949 1 0.10323662793382841 1 0.11617401412241497 1 0.129625006399325 1 0.14353655878335592 1 0.15785415036621575 1 0.17252196592359864 1 0.18748307099874312 1 0.20267958411747308 1 0.21805284932105037 1 0.2335436124699419 1 0.24909220473126328 1 0.26463873629818824 1 0.28012330272223812 1 0.29548620533261971 1 0.31104957869740602 1 0.3264784133363568 1 0.34162084310623081 1 0.35642269447770392 1 0.37082983330862862 1 0.38478841506599898 1 0.39824519846949297 1 0.41114792049166898 1 0.4234457334204193 1 0.43508970918060325 1 0.44603342303631127 1 0.45623363983425413 1 0.46565114465521051 1 0.47425179342967533 1 0.48200792301895584 1 0.48890038732574265 1 0.49492174892025381 1 0.50008171570891213 1 0.5044170938122049 1 0.50801066881149448 1 0.51102448248994026 1 0.51373719851529775 1 0.51644948617691111 1 0.51945299174717252 1 0.52300710312720133 1 0.52725421012781593 1 0.53225968459411821 1 0.5380450386039779 1 0.54460658329338163 1 0.55192538423716675 1 0.55997284499919975 1 0.56871411270903072 1 0.57811034666456584 1 0.58812034627883336 1 0.59870177875637987 1 0.60981212356491643 1 0.62140938996361605 1 0.63345263395937756 1 0.64590228737462307 1 0.65872030704952556 1 0.6718701528262635 1 0.68531660670748029 1 0.6990254509944126 1 0.7130608787820506 1 0.72766469754508867 1 0.74240472119014456 1 0.75722816342908195 1 0.7720813709306984 1 0.78690993897978068 1 0.8016588405242876 1 0.8162725697230786 1 0.83069530104595679 1 0.84487106493198205 1 0.85874394092667017 1 0.87225826905527759 1 0.88535887992530748 1 0.89799134367799749 1 0.91010223742768348 1 0.92163943024868977 1 0.93255238410553998 1 0.94279246839147035 1 0.9523132849642475 1 0.96107099977450028 1 0.96902467640447243 1 0.976136606116213 1 0.98237262839640516 1 0.98770243553302772 1 0.99209985451897442 1 0.995543099595391 1 0.99801498905577624 1 0.99950312054529189 1 1 4
1 4.8782760091844786 1.1306778949163987 -7.745966692414834 0.70625987079230712 0.70795267843863252 0 
1 4.6930011673123291 -0.0057153780670242942 0 0.25766265056033705 0.96623493960124507 0 
Polygon3D 0
PolygonOnTriangulations 0
Surfaces 5
9 0 0 0 0 3 1 53 2 51 2 4.8791115289964226 1.1315154173542665 -7.745966692414834  4.6960493689480751 0.0057153780670242942 0  
4.8790136404967654 1.1316436270888031 -7.745966692414834  4.6945605810009807 0.0063362644399496421 0  
4.8786224977311701 1.1321559274286568 -7.745966692414834  4.6886116835865872 0.0088172016987784745 0  
4.8777422591097714 1.1333057670870823 -7.745966692414834  4.6752393952192284 0.014373912136540098 0  
4.8762763356016459 1.1352120136648531 -7.745966692414834  4.653012892349957 0.0235528742181794 0  
4.874222372624109 1.1378643702527187 -7.745966692414834  4.621963268240834 0.036253141180361825 0  
4.8715837689428776 1.1412405936554861 -7.745966692414834  4.5822311730423397 0.052299075130685151 0  
4.8683582877799498 1.1453212874831844 -7.745966692414834  4.5338942176386157 0.071511514514578212 0  
4.8645493291413855 1.150075907114479 -7.745966692414834  4.4771345700525309 0.093642935182089049 0  
4.8601578140271986 1.1554739072134961 -7.745966692414834  4.4121129330575544 0.11843341176495002 0  
4.8551874784465197 1.161478498126816 -7.745966692414834  4.339045609708938 0.14558301656423814 0  
4.8496426760759617 1.1680502121662637 -7.745966692414834  4.2581676423930297 0.17477171775713563 0  
4.8435295847438722 1.1751460354115808 -7.745966692414834  4.1697476022739997 0.20565789300877332 0  
4.8368561472506251 1.1827201893827299 -7.745966692414834  4.0740831684210592 0.23788480305443785 0  
4.8296323597963244 1.1907244359986475 -7.745966692414834  3.9715021008718412 0.27108467485834004 0  
4.8218704515355073 1.1991084901888505 -7.745966692414834  3.8623617325637012 0.30488317270846377 0  
4.8135850512267346 1.2078204055720156 -7.745966692414834  3.7470484841686718 0.3389035715390159 0  
4.8047933238274583 1.2168069508345853 -7.745966692414834  3.6259771651466153 0.37277069943907459 0  
4.7955150798086512 1.226013972351311 -7.745966692414834  3.4995901073350075 0.40611462461178577 0  
4.7857728591547861 1.2353867431534211 -7.745966692414834  3.3683561475692518 0.43857409752722343 0  
4.7755919926341264 1.2448703000589725 -7.745966692414834  3.2327694726471958 0.46979977690835173 0  
4.7650006445996675 1.2544097715527969 -7.745966692414834  3.0933483505964348 0.49945728325935124 0  
4.7540298316067666 1.2639507040843125 -7.745966692414834  2.9506336604186498 0.5272301177757065 0  
4.7427134549823444 1.2734393801054222 -7.745966692414834  2.8051875839576783 0.55282257947920477 0  
4.7310882050792786 1.2828231596907913 -7.745966692414834  2.6575910686168629 0.57596224500831306 0  
4.7191938112855221 1.2920508443369065 -7.745966692414834  2.5084441735061946 0.59640436925600504 0  
4.7070721883482225 1.3010727232391379 -7.745966692414834  2.3583584450070632 0.61392801776149875 0  
4.6947696814922004 1.3098426409136306 -7.745966692414834  2.2079660219591246 0.62836519843347705 0  
4.6823299502966105 1.3183108609583256 -7.745966692414834  2.0578936894193407 0.63950347929095153 0  
4.6697129763516303 1.3265217899919743 -7.745966692414834  1.9075728446987037 0.64752734088415986 0  
4.6568877524290189 1.334374205865456 -7.745966692414834  1.7572410680692423 0.65140513754625584 0  
4.6438003533386309 1.341636703215946 -7.745966692414834  1.6075883804993822 0.64886321409873304 0  
4.6306568035282556 1.3482642706557879 -7.745966692414834  1.4606240629832623 0.64054188272883339 0  
4.6175555923633853 1.3542134257960001 -7.745966692414834  1.3174184703909768 0.62655702172926597 0  
4.6045790045423871 1.3594800821511424 -7.745966692414834  1.1787046415410256 0.60728466458983543 0  
4.5918085941377234 1.3640642508185881 -7.745966692414834  1.0451887999318759 0.58313267777891997 0  
4.5793266208729833 1.3679748536854346 -7.745966692414834  0.91753872623141064 0.554589625723234 0  
4.5672143804322856 1.3712279011882305 -7.745966692414834  0.79637840953354078 0.52220064129113342 0  
4.5555512165991257 1.3738461050608051 -7.745966692414834  0.68228142849050677 0.48655913278469909 0  
4.5444134817530992 1.3758579556849662 -7.745966692414834  0.57576656219695521 0.448293596045996 0  
4.533873603701668 1.3772967500180817 -7.745966692414834  0.47729456907808626 0.40805453022183241 0  
4.5239992385814372 1.3781995086009504 -7.745966692414834  0.38726626576010914 0.36650082328316491 0  
4.5148525113499725 1.3786058306062587 -7.745966692414834  0.30602167429421473 0.32428603891297819 0  
4.5064893177806287 1.3785567148651034 -7.745966692414834  0.23383987212180632 0.28204471627059463 0  
4.4989586515642443 1.3780933717140729 -7.745966692414834  0.17093910536886217 0.24037871579405584 0  
4.4923018175989231 1.3772560132836316 -7.745966692414834  0.11747602429363202 0.19984280923909575 0  
4.4865514706961944 1.3760824265739175 -7.745966692414834  0.073544492858842556 0.16092751568389224 0  
4.4817299663678112 1.3746061794991418 -7.745966692414834  0.039170275904355706 0.12403531935179139 0  
4.4778473355595603 1.3728515021554166 -7.745966692414834  0.01431909348836957 0.089426213759430134 0  
4.4749022790269741 1.3708251573355712 -7.745966692414834  -0.0010541201404116241 0.057152270188367382 0  
4.4729033869257888 1.3684915486429343 -7.745966692414834  -0.0066969900677353259 0.026948165579282552 0  
4.4722621363669068 1.3666978848268465 -7.745966692414834  -0.0032820637291207143 0.0082083284790647939 0  
4.4721359523379602 1.365822920054315 -7.745966692414834  -2.5612657203900185e-08 -8.8699537567279996e-09 0  

0 4
0.00049739984301800169 1
0.00198741502815918 1
0.0044635102977900153 1
0.0079148522906514057 1
0.012326395880791562 1
0.017679001628741791 1
0.023949581151797125 1
0.031111266611454625 1
0.039133600095283015 1
0.047982738444039219 1
0.057621669037433883 1
0.068010432190637585 1
0.079106346111928252 1
0.090864230813156949 1
0.10323662793382841 1
0.11617401412241497 1
0.129625006399325 1
0.14353655878335592 1
0.15785415036621575 1
0.17252196592359864 1
0.18748307099874312 1
0.20267958411747308 1
0.21805284932105037 1
0.2335436124699419 1
0.24909220473126328 1
0.26463873629818824 1
0.28012330272223812 1
0.29548620533261971 1
0.31104957869740602 1
0.3264784133363568 1
0.34162084310623081 1
0.35642269447770392 1
0.37082983330862862 1
0.38478841506599898 1
0.39824519846949297 1
0.41114792049166898 1
0.4234457334204193 1
0.43508970918060325 1
0.44603342303631127 1
0.45623363983425413 1
0.46565114465521051 1
0.47425179342967533 1
0.48200792301895584 1
0.48890038732574265 1
0.49492174892025381 1
0.50008171570891213 1
0.5044170938122049 1
0.50801066881149448 1
0.51102448248994026 1
0.51373719851529775 4

0 2
1 2

9 0 0 0 0 3 1 53 2 51 2 4.4721359523379602 1.365822920054315 -7.745966692414834  -2.5612657203900185e-08 -8.8699537567279996e-09 0  
4.4720097882708743 1.3649480936980689 -7.745966692414834  0.0032814932971613024 -0.0082070476894778865 0  
4.4721180285499491 1.3630512371762611 -7.745966692414834  0.013703164220115501 -0.024093105646301394 0  
4.4733402132466367 1.3602542790129621 -7.745966692414834  0.038272384991088954 -0.042204550390254718 0  
4.4755010053943076 1.3574670661370187 -7.745966692414834  0.070921458292615938 -0.055538561215121296 0  
4.4785598414491021 1.3546386861794439 -7.745966692414834  0.11155365537512754 -0.064738869889293629 0  
4.4824949651538812 1.3517456151224456 -7.745966692414834  0.1600981816138449 -0.070117981668542703 0  
4.4872796891924356 1.3487748818316692 -7.745966692414834  0.21638877374259161 -0.071921666452572947 0  
4.4928800448732069 1.3457174112450687 -7.745966692414834  0.28017662957336043 -0.070398360041914396 0  
4.4992560918560978 1.3425638142744851 -7.745966692414834  0.35116280105534031 -0.06582907602569249 0  
4.5063635915819704 1.3393033192188557 -7.745966692414834  0.42901802953345158 -0.05852829286721576 0  
4.5141551617200362 1.335923362484617 -7.745966692414834  0.51339478995398125 -0.048841726132316132 0  
4.5225812376736556 1.3324095266739326 -7.745966692414834  0.6039359273079199 -0.037142057132018035 0  
4.5315908275267125 1.3287456218386242 -7.745966692414834  0.70028078838871965 -0.023824454510992819 0  
4.5411321397306246 1.3249138461929149 -7.745966692414834  0.80206985415753052 -0.0093020439992990821 0  
4.5511530934779953 1.3208950189885362 -7.745966692414834  0.90894799533314397 0.0059986602134353079 0  
4.5616017182594364 1.3166688879178252 -7.745966692414834  1.0205663956400961 0.021642415451057075 0  
4.5724264361881923 1.3122145054316476 -7.745966692414834  1.136583115222016 0.03718992118281339 0  
4.5835762913633227 1.3075107445612681 -7.745966692414834  1.2566624978757119 0.052203432987704239 0  
4.5950008319042555 1.3025366279106518 -7.745966692414834  1.3804725044789239 0.066249021884157933 0  
4.6066509321234914 1.2972730352950486 -7.745966692414834  1.5076832950218704 0.078915473777492626 0  
4.6184757184603296 1.2916988588562932 -7.745966692414834  1.6379598308359031 0.089765621450298316 0  
4.6304620267535448 1.2857964418455294 -7.745966692414834  1.7712763906848821 0.098580732165864396 0  
4.6426426533188465 1.2794486008279591 -7.745966692414834  1.9085029161683607 0.10450994918836215 0  
4.6550604577905812 1.2728341399505105 -7.745966692414834  2.0491165618731055 0.10931606002494794 0  
4.6676761847511488 1.2660485160573918 -7.745966692414834  2.1923000816892988 0.11362946810811364 0  
4.6803180628723799 1.2591405899408314 -7.745966692414834  2.3363215883174346 0.11701446367019856 0  
4.6929365646643371 1.2521312412622772 -7.745966692414834  2.4806477628055488 0.11940423243387611 0  
4.70547986919214 1.2450368009501034 -7.745966692414834  2.624748168051231 0.12068109971313998 0  
4.7178974936143172 1.2378790300014553 -7.745966692414834  2.7680768048370705 0.12078110706403267 0  
4.7301401306194695 1.2306821986568934 -7.745966692414834  2.910085308117607 0.11966790437836453 0  
4.742159734673546 1.22347384940767 -7.745966692414834  3.0502198789063351 0.11733978895696839 0  
4.7539098195498797 1.2162843329449264 -7.745966692414834  3.1879261812153348 0.11382717436201278 0  
4.7653455507472291 1.2091465954524538 -7.745966692414834  3.3226512059552498 0.10919121040850251 0  
4.7764238783731461 1.2020958009477574 -7.745966692414834  3.4538463100336352 0.10352117695877609 0  
4.7871036160877294 1.1951689171830382 -7.745966692414834  3.5809699705230766 0.096931292438607167 0  
4.7973455000679612 1.1884042514738853 -7.745966692414834  3.7034906161637768 0.089556988817407451 0  
4.8071122270265052 1.1818409565037389 -7.745966692414834  3.8208894275937588 0.08155082184335169 0  
4.8163684797954582 1.1755185190675181 -7.745966692414834  3.9326631151925007 0.073078171352069732 0  
4.8250809477790995 1.1694762447912694 -7.745966692414834  4.0383266726086635 0.064312881071630301 0  
4.8332183496148584 1.1637527501602269 -7.745966692414834  4.1374161128695661 0.055432972761356045 0  
4.8407514616756835 1.1583854735485897 -7.745966692414834  4.2294911600700464 0.046616554117322052 0  
4.8476531780704599 1.1534101972711139 -7.745966692414834  4.3141381587333463 0.038037979619802924 0  
4.8538984769276681 1.1488606839466162 -7.745966692414834  4.3909716000015155 0.029864532767136631 0  
4.8594648790817905 1.1447679874772678 -7.745966692414834  4.4596415390797608 0.022252752413401761 0  
4.864331294105777 1.1411610375616159 -7.745966692414834  4.5198206790193254 0.015347724962006844 0  
4.8684813085804572 1.1380639052732324 -7.745966692414834  4.5712465200727106 0.0092758449291988343 0  
4.8718967276517766 1.1355005010197947 -7.745966692414834  4.6136419381432177 0.004153208249330736 0  
4.8745685374609113 1.1334861328652299 -7.745966692414834  4.6468523306039602 6.731735073368227e-05 0  
4.8764826589977837 1.1320381197664868 -7.745966692414834  4.6706691748662941 -0.0029022362501485255 0  
4.8776348938281879 1.1311645654124134 -7.745966692414834  4.6850155929792141 -0.0047062647202686129 0  
4.8781476614909396 1.1307753236152354 -7.745966692414834  4.691402500186924 -0.0055133592522204717 0  
4.8782760091844786 1.1306778949163987 -7.745966692414834  4.6930011673123291 -0.0057153780670242942 0  

0.51373719851529775 4
0.51644948617691111 1
0.51945299174717252 1
0.52300710312720133 1
0.52725421012781593 1
0.53225968459411821 1
0.5380450386039779 1
0.54460658329338163 1
0.55192538423716675 1
0.55997284499919975 1
0.56871411270903072 1
0.57811034666456584 1
0.58812034627883336 1
0.59870177875637987 1
0.60981212356491643 1
0.62140938996361605 1
0.63345263395937756 1
0.64590228737462307 1
0.65872030704952556 1
0.6718701528262635 1
0.68531660670748029 1
0.6990254509944126 1
0.7130608787820506 1
0.72766469754508867 1
0.74240472119014456 1
0.75722816342908195 1
0.7720813709306984 1
0.78690993897978068 1
0.8016588405242876 1
0.8162725697230786 1
0.83069530104595679 1
0.84487106493198205 1
0.85874394092667017 1
0.87225826905527759 1
0.88535887992530748 1
0.89799134367799749 1
0.91010223742768348 1
0.92163943024868977 1
0.93255238410553998 1
0.94279246839147035 1
0.9523132849642475 1
0.96107099977450028 1
0.96902467640447243 1
0.976136606116213 1
0.98237262839640516 1
0.98770243553302772 1
0.99209985451897442 1
0.995543099595391 1
0.99801498905577624 1
0.99950312054529189 1
1 4

0 2
1 2

9 0 0 0 0 1 1 2 2 2 2 4.8782760091844786 1.1306778949163987 -7.745966692414834  4.6930011673123291 -0.0057153780670242942 0  
4.8791115289964226 1.1315154173542665 -7.745966692414834  4.6960493689480751 0.0057153780670242942 0  

0 2
0.011830203675687758 2

0 2
1 2

1 4.8791115289964226 1.1315154173542665 -7.745966692414834 0 0 -1 -0.86144913637515907 0.5078438593096235 0 0.5078438593096235 0.86144913637515907 0 
1 4.6960493689480751 0.0057153780670242942 0 0 0 -1 -0.99995876582386478 0.0090811151304850991 0 0.0090811151304850991 0.99995876582386478 0 
Triangulations 0

TShapes 28
Ve
1e-07
4.87911152899642 1.13151541735427 -7.74596669241483
0 0

0101101
*
Ve
1e-07
4.47213595499958 1.36582291954184 -7.74596669241483
0 0

0101101
*
Ed
 1e-07 1 1 0
1  1 0 0 0.513737198904424
2  1 1 0 0 0.513737198904424
0

0101000
+28 0 -27 0 *
Ve
4.6945252681302e-07
0 0 0
0 0

0101101
*
Ed
 1e-07 1 1 0
1  2 0 0 1
2  2 1 0 0 1
2  3 2 0 0 1
4 G1 1 0 2 0
0

0101000
+27 0 -25 0 *
Ve
4.6945252681302e-07
4.69604936894808 0.00571537806702429 0
0 0

0101101
*
Ed
 1e-07 1 1 0
1  3 0 0 0.513737198904424
2  4 1 0 0 0.513737198904424
0

0101000
+23 0 -25 0 *
Ed
 1e-07 1 1 0
1  4 0 0 1
2  5 1 0 0 1
2  6 3 0 0 1
0

0101000
+28 0 -23 0 *
Wi

0101000
+26 0 +24 0 -22 0 -21 0 *
Fa
0  1e-07 1 0

0111000
+20 0 *
Ve
1e-07
4.87827600918448 1.1306778949164 -7.74596669241483
0 0

0101101
*
Ed
 1e-07 1 1 0
1  5 0 0.513737198904424 1
2  7 2 0 0.513737198904424 1
0

0101000
+27 0 -18 0 *
Ve
4.6945252681302e-07
4.69300116731233 -0.00571537806702429 0
0 0

0101101
*
Ed
 1e-07 1 1 0
1  6 0 0 1
2  8 2 0 0 1
2  9 3 0 0 1
0

0101000
+18 0 -16 0 *
Ed
 1e-07 1 1 0
1  7 0 0.513737198904424 1
2  10 2 0 0.513737198904424 1
0

0101000
+25 0 -16 0 *
Wi

0101000
+17 0 +15 0 -14 0 -24 0 *
Fa
0  1e-07 2 0

0111000
+13 0 *
Ed
 1e-07 1 1 0
1  8 0 0 0.00118302036756878
2  11 3 0 0 0.00118302036756878
0

0101000
+18 0 -28 0 *
Ed
 1e-07 1 1 0
1  9 0 0 0.0118302036756878
2  12 3 0 0 0.0118302036756878
0

0101000
+16 0 -23 0 *
Wi

0101000
+11 0 +21 0 -10 0 -15 0 *
Fa
0  1e-07 3 0

0111000
+9 0 *
Wi

0101100
+26 0 +17 0 +11 0 *
Fa
0  1e-07 4 0

0111000
-7 0 *
Wi

0101100
+22 0 +14 0 +10 0 *
Fa
0  1e-07 5 0

0111000
-5 0 *
Sh

0101100
+19 0 +12 0 +8 0 +6 0 -4 0 *
So

0100100
+3 0 *
Co

1100000
+2 0 *

+1 0 
##EGADS HEADER FILE-REV 1 ##
13
2 15 1
_cfgpmtr_series
 8.412000000000e+03
2 14 1
_cfgpmtr_nspar
 3.000000000000e+00
2 13 1
_cfgpmtr_nrib
 8.000000000000e+00
2 13 1
_despmtr_area
 4.000000000000e+01
2 15 1
_despmtr_aspect
 6.000000000000e+00
2 14 1
_despmtr_taper
 1.000000000000e-01
2 14 1
_despmtr_twist
 3.000000000000e+01
2 16 1
_despmtr_lesweep
 3.000000000000e+01
2 17 1
_despmtr_dihedral
 1.000000000000e+01
2 18 4
_cfgpmtr_rootFaces
 1.310000000000e+02  1.300000000000e+02  1.420000000000e+02  1.480000000000e+02 
2 18 11
_cfgpmtr_rootEdges
 2.000000000000e+02  1.920000000000e+02  1.790000000000e+02  1.770000000000e+02  1.760000000000e+02  1.690000000000e+02  1.870000000000e+02  1.970000000000e+02  1.950000000000e+02  1.600000000000e+02  1.820000000000e+02 
2 20 36
_cfgpmtr_bottomFaces
 1.250000000000e+02  1.220000000000e+02  1.370000000000e+02  1.450000000000e+02  1.090000000000e+02  1.060000000000e+02  1.230000000000e+02  1.380000000000e+02  9.300000000000e+01  9.000000000000e+01  1.070000000000e+02  1.240000000000e+02  7.700000000000e+01  7.400000000000e+01  9.100000000000e+01  1.080000000000e+02  5.800000000000e+01  5.300000000000e+01  7.500000000000e+01  9.200000000000e+01  3.700000000000e+01  3.200000000000e+01  5.400000000000e+01  7.600000000000e+01  1.600000000000e+01  1.200000000000e+01  3.300000000000e+01  5.500000000000e+01  3.000000000000e+00  2.000000000000e+00  1.400000000000e+01  3.500000000000e+01  1.700000000000e+01  1.500000000000e+01  3.600000000000e+01  5.700000000000e+01 
2 18 9
_cfgpmtr_rootNodes
 8.100000000000e+01  7.500000000000e+01  7.400000000000e+01  8.200000000000e+01  7.800000000000e+01  8.700000000000e+01  8.500000000000e+01  9.000000000000e+01  8.900000000000e+01 
  1  1  5  5  9  6  3
2 3 1
OML
 0.000000000000e+00
1 5 1
_body
7
1 5 1
_brch
17
    2 0 6
1 5 2
_body
7 3 
1 5 2
_brch
17 3 
2 3 1
OML
 0.000000000000e+00
1 5 1
_hist
7
1 7 3
_faceID
7 3 1 
1 9 2
__trace__
7 1 
    2 1 6
1 5 2
_body
7 4 
1 5 2
_brch
17 4 
2 3 1
OML
 0.000000000000e+00
1 5 1
_hist
7
1 7 3
_faceID
7 4 1 
1 9 2
__trace__
7 2 
    2 2 6
1 5 2
_body
7 5 
1 5 2
_brch
17 5 
2 3 1
OML
 0.000000000000e+00
1 5 1
_hist
7
1 7 3
_faceID
7 5 1 
1 9 2
__trace__
7 3 
    2 3 6
1 5 2
_body
7 1 
1 5 2
_brch
17 1 
2 3 1
OML
 0.000000000000e+00
1 5 1
_hist
7
1 7 3
_faceID
7 1 1 
1 9 2
__trace__
7 4 
    2 4 6
1 5 2
_body
7 2 
1 5 2
_brch
17 2 
2 3 1
OML
 0.000000000000e+00
1 5 1
_hist
7
1 7 3
_faceID
7 2 1 
1 9 2
__trace__
7 5 
    4 0 4
1 5 2
_body
7 30001 
1 7 5
_edgeID
7 1 7 3 1 
1 6 1
_nface
2
1 9 2
__trace__
7 1 
    4 1 4
1 5 2
_body
7 30004 
1 7 5
_edgeID
7 3 7 4 1 
1 6 1
_nface
2
1 9 2
__trace__
7 2 
    4 2 4
1 5 2
_body
7 20003 
1 7 5
_edgeID
7 2 7 3 1 
1 6 1
_nface
2
1 9 2
__trace__
7 3 
    4 3 4
1 5 2
_body
7 50003 
1 7 5
_edgeID
7 3 7 5 1 
1 6 1
_nface
2
1 9 2
__trace__
7 4 
    4 4 4
1 5 2
_body
7 40001 
1 7 5
_edgeID
7 1 7 4 1 
1 6 1
_nface
2
1 9 2
__trace__
7 5 
    4 5 4
1 5 2
_body
7 40005 
1 7 5
_edgeID
7 4 7 5 1 
1 6 1
_nface
2
1 9 2
__trace__
7 6 
    4 6 4
1 5 2
_body
7 20004 
1 7 5
_edgeID
7 2 7 4 1 
1 6 1
_nface
2
1 9 2
__trace__
7 7 
    4 7 4
1 5 2
_body
7 50001 
1 7 5
_edgeID
7 1 7 5 1 
1 6 1
_nface
2
1 9 2
__trace__
7 8 
    4 8 4
1 5 2
_body
7 20005 
1 7 5
_edgeID
7 2 7 5 1 
1 6 1
_nface
2
1 9 2
__trace__
7 9 
    5 0 3
1 9 10
__trace__
3 1 4 1 5 1 6 1 7 1 
1 7 1
_nodeID
1
1 6 1
_nedge
3
    5 1 3
1 9 10
__trace__
3 2 4 2 5 2 6 2 7 2 
1 7 1
_nodeID
2
1 6 1
_nedge
3
    5 2 3
1 9 6
__trace__
1 2 2 2 7 3 
1 7 1
_nodeID
3
1 6 1
_nedge
3
    5 3 3
1 9 6
__trace__
1 1 2 1 7 4 
1 7 1
_nodeID
4
1 6 1
_nedge
3
    5 4 3
1 9 10
__trace__
3 3 4 3 5 3 6 3 7 5 
1 7 1
_nodeID
5
1 6 1
_nedge
3
    5 5 3
1 9 6
__trace__
1 3 2 3 7 6 
1 7 1
_nodeID
6
1 6 1
_nedge
3
    0 0 0
