DBRep_DrawableShape

CASCADE Topology V1, (c) Matra-Datavision
Locations 0
Curve2ds 12
1 0 0 1 0 
1 0.51373719851529775 0 0 1 
1 0.51373719851529775 0 0 1 
1 0 1 1 0 
1 0 0 0 1 
1 0.0041054273055002024 0 0 1 
1 0 0 1 0 
1 1 0 0 1 
1 0 0 0 1 
1 0 1 1 0 
7 0 0  1 2 2  0 0  0.0041054273055002024 0 
 0 2 0.0033459231115943052 2
1 0 1 1 0 
Curves 9
7 0 0  3 103 101  2.3650467013441721 -0.08925731220727938 -6.7638746255888567  2.3646584928259617 -0.089017660535082602 -6.7638746255888567  2.3631072896152809 -0.088060060590952768 -6.7638746255888567  2.3596195082883069 -0.085913121060660888 -6.7638746255888567  2.3538198199960556 -0.082360551716869693 -6.7638746255888567  2.3457124184239597 -0.077431931079211605 -6.7638746255888567  2.3353287745250837 -0.071182573461567741 -6.7638746255888567  2.3226825951168966 -0.063665972878151469 -6.7638746255888567  2.3078137493575239 -0.054959369098413965 -6.7638746255888567  2.2907555592833226 -0.045142510707362707 -6.7638746255888567  2.2715550969162779 -0.034308792805176833 -6.7638746255888567  2.2502637739335776 -0.02255805941004356 -6.7638746255888567  2.2269414063529305 -0.0099976765703235632 -6.7638746255888567  2.2016552677434857 0.0032594724346411696 -6.7638746255888567  2.1744805426615894 0.017096084264095743 -6.7638746255888567  2.1455003836528874 0.031391706931625574 -6.7638746255888567  2.1148059614043246 0.046023927031742018 -6.7638746255888567  2.0824964449167318 0.060869502009024745 -6.7638746255888567  2.0486789235346814 0.075805428500342373 -6.7638746255888567  2.0134682759184201 0.090709949017010474 -6.7638746255888567  1.9769869909506088 0.10546350437381576 -6.7638746255888567  1.9393649492142333 0.11994964300738657 -6.7638746255888567  1.9007391421946354 0.13405590165994574 -6.7638746255888567  1.8612534366850411 0.14767467835471648 -6.7638746255888567  1.8210579764238264 0.1607040378998304 -6.7638746255888567  1.7803094745515018 0.1730489256225658 -6.7638746255888567  1.7391689119825866 0.18462042631058548 -6.7638746255888567  1.6978053765679513 0.19534349586603045 -6.7638746255888567  1.6563844837648001 0.20513091595045399 -6.7638746255888567  1.6147556254187103 0.21405950942890817 -6.7638746255888567  1.5729392638269331 0.22183055989623723 -6.7638746255888567  1.531026977178622 0.22777831952788724 -6.7638746255888567  1.4896084600168686 0.23199224391187306 -6.7638746255888567  1.4489878262692721 0.23445708090920614 -6.7638746255888567  1.4093865485397448 0.23524524831933968 -6.7638746255888567  1.3710200258807494 0.23443924810745898 -6.7638746255888567  1.3340965100380344 0.23214583207109812 -6.7638746255888567  1.2988145380310814 0.22848950022622153 -6.7638746255888567  1.2653607145111998 0.22361047896304725 -6.7638746255888567  1.2339078991438912 0.21766123282375399 -6.7638746255888567  1.2046137248357167 0.21080295327075105 -6.7638746255888567  1.1776194554671762 0.20320184151961668 -6.7638746255888567  1.1530491376374243 0.19502531629461251 -6.7638746255888567  1.1310089492631277 0.1864381939171795 -6.7638746255888567  1.1115866237754093 0.17759886953826914 -6.7638746255888567  1.0948505955047911 0.16865532633345048 -6.7638746255888567  1.0808489035943778 0.15974039442038618 -6.7638746255888567  1.0696066500643577 0.15096534466178207 -6.7638746255888567  1.0611258268259056 0.14240432038606399 -6.7638746255888567  1.0553961631953841 0.13407387040412833 -6.7638746255888567  1.0524763458447346 0.12588866020793166 -6.7638746255888567  1.052653358566803 0.11795149711437732 -6.7638746255888567  1.055903552487456 0.11072486102444634 -6.7638746255888567  1.0619601930441389 0.10457315459805286 -6.7638746255888567  1.0704861397089056 0.09939636799717777 -6.7638746255888567  1.081425737064089 0.095019005013467495 -6.7638746255888567  1.0947453088863102 0.091356929917252125 -6.7638746255888567  1.1103874827095639 0.088348893904548212 -6.7638746255888567  1.1282717136813527 0.085936575550141059 -6.7638746255888567  1.148302001486956 0.08405478507589581 -6.7638746255888567  1.1703723910323878 0.082630334150871537 -6.7638746255888567  1.1943704355970624 0.081582122304038246 -6.7638746255888567  1.2201797990858962 0.080821945731256117 -6.7638746255888567  1.2476821679139589 0.080255475362459694 -6.7638746255888567  1.2767587464048147 0.079783316112134114 -6.7638746255888567  1.3072913693517689 0.079302138098845287 -6.7638746255888567  1.339163246509151 0.078705892651926179 -6.7638746255888567  1.3722593277449815 0.077887091791517649 -6.7638746255888567  1.4064663872303673 0.076738402624988752 -6.7638746255888567  1.4416723791572998 0.075153397026221633 -6.7638746255888567  1.4777668824860652 0.073031893486093027 -6.7638746255888567  1.5146368695487427 0.070266692856748622 -6.7638746255888567  1.5522654252285752 0.066797845606748785 -6.7638746255888567  1.5908576783644861 0.062348998685484047 -6.7638746255888567  1.6303460167984094 0.05743577316415184 -6.7638746255888567  1.6705302224537171 0.052270603395436543 -6.7638746255888567  1.7109071814213506 0.046808840222831827 -6.7638746255888567  1.7513249609905452 0.041055548140146919 -6.7638746255888567  1.791630170699686 0.035001457711611353 -6.7638746255888567  1.8316674631878112 0.028652995207160262 -6.7638746255888567  1.8712820585370216 0.022024403378218829 -6.7638746255888567  1.9103192004776397 0.015139844021609269 -6.7638746255888567  1.9486254115373765 0.0080324731548611222 -6.7638746255888567  1.9860489522498859 0.00074397264765066473 -6.7638746255888567  2.0224405540547181 -0.006676312915615476 -6.7638746255888567  2.0576540465761393 -0.014172390170231849 -6.7638746255888567  2.0915469827661752 -0.021682783366952993 -6.7638746255888567  2.123981239086274 -0.02914180125274772 -6.7638746255888567  2.1548236000970249 -0.03648086158976642 -6.7638746255888567  2.1839463335645601 -0.043629831491716772 -6.7638746255888567  2.2112277640088638 -0.050518346223299107 -6.7638746255888567  2.2365528424653176 -0.057077071902864193 -6.7638746255888567  2.2598137882966673 -0.063238907240125555 -6.7638746255888567  2.2809103678697324 -0.068939978112042125 -6.7638746255888567  2.2997518028737334 -0.074120993633109047 -6.7638746255888567  2.3162531312279073 -0.078726869235538607 -6.7638746255888567  2.3303466576685175 -0.082710623840076172 -6.7638746255888567  2.3419601440705722 -0.086027502237262451 -6.7638746255888567  2.3510543014769296 -0.088646186341740887 -6.7638746255888567  2.3575744287104268 -0.090535168861738749 -6.7638746255888567  2.3615012414049907 -0.091677291097630689 -6.7638746255888567  2.3632492500907305 -0.092186859430412701 -6.7638746255888567  2.3636867833025166 -0.092314406315853928 -6.7638746255888567 
 0 4 0.00049739984301800169 1 0.00198741502815918 1 0.0044635102977900153 1 0.0079148522906514057 1 0.012326395880791562 1 0.017679001628741791 1 0.023949581151797125 1 0.031111266611454625 1 0.039133600095283015 1 0.047982738444039219 1 0.057621669037433883 1 0.068010432190637585 1 0.079106346111928252 1 0.090864230813156949 1 0.10323662793382841 1 0.11617401412241497 1 0.129625006399325 1 0.14353655878335592 1 0.15785415036621575 1 0.17252196592359864 1 0.18748307099874312 1 0.20267958411747308 1 0.21805284932105037 1 0.2335436124699419 1 0.24909220473126328 1 0.26463873629818824 1 0.28012330272223812 1 0.29548620533261971 1 0.31104957869740602 1 0.3264784133363568 1 0.34162084310623081 1 0.35642269447770392 1 0.37082983330862862 1 0.38478841506599898 1 0.39824519846949297 1 0.41114792049166898 1 0.4234457334204193 1 0.43508970918060325 1 0.44603342303631127 1 0.45623363983425413 1 0.46565114465521051 1 0.47425179342967533 1 0.48200792301895584 1 0.48890038732574265 1 0.49492174892025381 1 0.50008171570891213 1 0.5044170938122049 1 0.50801066881149448 1 0.51102448248994026 1 0.51373719851529775 1 0.51644948617691111 1 0.51945299174717252 1 0.52300710312720133 1 0.52725421012781593 1 0.53225968459411821 1 0.5380450386039779 1 0.54460658329338163 1 0.55192538423716675 1 0.55997284499919975 1 0.56871411270903072 1 0.57811034666456584 1 0.58812034627883336 1 0.59870177875637987 1 0.60981212356491643 1 0.62140938996361605 1 0.63345263395937756 1 0.64590228737462307 1 0.65872030704952556 1 0.6718701528262635 1 0.68531660670748029 1 0.6990254509944126 1 0.7130608787820506 1 0.72766469754508867 1 0.74240472119014456 1 0.75722816342908195 1 0.7720813709306984 1 0.78690993897978068 1 0.8016588405242876 1 0.8162725697230786 1 0.83069530104595679 1 0.84487106493198205 1 0.85874394092667017 1 0.87225826905527759 1 0.88535887992530748 1 0.89799134367799749 1 0.91010223742768348 1 0.92163943024868977 1 0.93255238410553998 1 0.94279246839147035 1 0.9523132849642475 1 0.96107099977450028 1 0.96902467640447243 1 0.976136606116213 1 0.98237262839640516 1 0.98770243553302772 1 0.99209985451897442 1 0.995543099595391 1 0.99801498905577624 1 0.99950312054529189 1 1 4
7 0 0  1 2 2  1.0531479933020198 0.11806388377096255 -6.7638746255888567  -8.8883425117649087e-09 -3.0781338472042619e-09 0 
 0 2 1 2
7 0 0  3 103 101  1.629666727283595 0.0019834036522836454 0  1.6291500742438285 0.0021988694159254972 0  1.6270856325357905 0.0030598273372637857 0  1.6224450566585387 0.0049881686731637629 0  1.6147318089168441 0.0081735374630144755 0  1.6039566795836881 0.012580902222155417 0  1.5901684783823973 0.01814931145565751 0  1.5733941385638008 0.024816590854574244 0  1.5536968777694355 0.032496842286308655 0  1.5311324645703552 0.041099864032147194 0  1.5057759624645042 0.050521572392553504 0  1.477708938046788 0.060650906947940279 0  1.4470245933804242 0.071369314738427142 0  1.4138262318245531 0.082552996786545249 0  1.3782275957157424 0.094074325072968201 0  1.3403526900532634 0.1058033941374297 0  1.3003356141326023 0.11760946934389364 0  1.2583203189904262 0.12936235504657242 0  1.2144603067348518 0.14093367407279755 0  1.1689182774848841 0.15219806225091864 0  1.1218657285392608 0.16303428792195521 0  1.0734825140890334 0.1733263116033954 0  1.0239563349957712 0.18296429893652175 0  0.97348228483145494 0.19184563301772908 0  0.92226196936705229 0.19987577495844425 0  0.87050362669571912 0.20696979103539259 0  0.81841948133036857 0.21305101051720843 0  0.76622890397030041 0.21806113522596446 0  0.71414940739535104 0.22192644503990958 0  0.66198366981213208 0.22471096011533553 0  0.60981413853624145 0.22605666917818656 0  0.55788027106163296 0.22517454726244998 0  0.50687934676606683 0.22228680145852026 0  0.45718281015132189 0.21743364492925102 0  0.40904504716576923 0.21074557231354688 0  0.36271113805602795 0.2023641252265973 0  0.31841282228011325 0.19245884983961931 0  0.27636664233675989 0.18121892323055891 0  0.23677164682439575 0.16885027546735576 0  0.19980786728931285 0.15557101302240381 0  0.16563520040547494 0.14160687815954928 0  0.13439274128627549 0.12718652431041397 0  0.10619848754626955 0.11253675722268948 0  0.081149287234712653 0.09787778057692996 0  0.059320878152024262 0.083418457579904515 0  0.040767622527736726 0.069351310285902995 0  0.025522093907170529 0.05584656318747229 0  0.013593233444678603 0.043043890103073676 0  0.0049691449960387107 0.031033516400901601 0  -0.00036581057489460344 0.019833512341367869 0  -0.0023240517781825828 0.009351803048808921 0  -0.00057767669809058756 -0.00023164949795392758 0  0.0047553994929630831 -0.0083610135975851242 0  0.013281638989186564 -0.014646215596828084 0  0.024611824056653214 -0.01927350804528714 0  0.03871238698506882 -0.022466284728211119 0  0.055558759965322273 -0.024332994125890454 0  0.075093244772465415 -0.024958925594685939 0  0.097229499757249038 -0.024430293636656907 0  0.12186378118673571 -0.022844618201048439 0  0.14888182666019315 -0.020311032528982326 0  0.1781630348013499 -0.016949510051416448 0  0.20958346235728501 -0.012889382102998377 0  0.24301795209803281 -0.0082677837820396751 0  0.27834174038305048 -0.0032280818216315807 0  0.31543158694631851 0.002081710857376534 0  0.35416644231978472 0.007510552293562585 0  0.39442764335430403 0.01290599233106156 0  0.4360987075124983 0.018116120829687363 0  0.47906440749005486 0.022990351718529534 0  0.52321027913912577 0.027385981657984306 0  0.56842005422491382 0.031151300814423626 0  0.61468480672483483 0.034210402519246001 0  0.66230643186359561 0.036268014554651964 0  0.71110348696320957 0.037935875836054005 0  0.76079236367790859 0.039432754825617491 0  0.81077204636972455 0.040607447467481288 0  0.86085745773585154 0.041436767249726114 0  0.91086452055971934 0.041879877608389043 0  0.960603757114875 0.041914583089407043 0  1.0098848686632134 0.041528269140164539 0  1.0585156707298691 0.040720344874160708 0  1.1063037924847523 0.039501364688598439 0  1.1530573235704529 0.037892549361000179 0  1.1985858687584148 0.035924881619535616 0  1.2427015037259717 0.033637998604597007 0  1.2852197576707081 0.031078899177784957 0  1.3259605850723883 0.02830052465366489 0  1.3647493296860895 0.025360266680900405 0  1.4014176800970037 0.022318454126827068 0  1.4358046192305933 0.019236865758043661 0  1.4677573584474941 0.016177310163720048 0  1.4971323471769884 0.013200293457172496 0  1.5237958025497926 0.010363867913802458 0  1.5476262834685817 0.0077223571026306965 0  1.5685102083021958 0.0053261102567337569 0  1.5863564819468974 0.0032189899766628155 0  1.6010689342212778 0.0014412849532989837 0  1.6125939134838843 2.3361093131807512e-05 0  1.6208590562866558 -0.0010071610155671805 0  1.6258376837280366 -0.0016332117535059921 0  1.6280541276682299 -0.0019132972043088867 0  1.628608912002377 -0.0019834036522836454 0 
 0 4 0.00049739984301800169 1 0.00198741502815918 1 0.0044635102977900153 1 0.0079148522906514057 1 0.012326395880791562 1 0.017679001628741791 1 0.023949581151797125 1 0.031111266611454625 1 0.039133600095283015 1 0.047982738444039219 1 0.057621669037433883 1 0.068010432190637585 1 0.079106346111928252 1 0.090864230813156949 1 0.10323662793382841 1 0.11617401412241497 1 0.129625006399325 1 0.14353655878335592 1 0.15785415036621575 1 0.17252196592359864 1 0.18748307099874312 1 0.20267958411747308 1 0.21805284932105037 1 0.2335436124699419 1 0.24909220473126328 1 0.26463873629818824 1 0.28012330272223812 1 0.29548620533261971 1 0.31104957869740602 1 0.3264784133363568 1 0.34162084310623081 1 0.35642269447770392 1 0.37082983330862862 1 0.38478841506599898 1 0.39824519846949297 1 0.41114792049166898 1 0.4234457334204193 1 0.43508970918060325 1 0.44603342303631127 1 0.45623363983425413 1 0.46565114465521051 1 0.47425179342967533 1 0.48200792301895584 1 0.48890038732574265 1 0.49492174892025381 1 0.50008171570891213 1 0.5044170938122049 1 0.50801066881149448 1 0.51102448248994026 1 0.51373719851529775 1 0.51644948617691111 1 0.51945299174717252 1 0.52300710312720133 1 0.52725421012781593 1 0.53225968459411821 1 0.5380450386039779 1 0.54460658329338163 1 0.55192538423716675 1 0.55997284499919975 1 0.56871411270903072 1 0.57811034666456584 1 0.58812034627883336 1 0.59870177875637987 1 0.60981212356491643 1 0.62140938996361605 1 0.63345263395937756 1 0.64590228737462307 1 0.65872030704952556 1 0.6718701528262635 1 0.68531660670748029 1 0.6990254509944126 1 0.7130608787820506 1 0.72766469754508867 1 0.74240472119014456 1 0.75722816342908195 1 0.7720813709306984 1 0.78690993897978068 1 0.8016588405242876 1 0.8162725697230786 1 0.83069530104595679 1 0.84487106493198205 1 0.85874394092667017 1 0.87225826905527759 1 0.88535887992530748 1 0.89799134367799749 1 0.91010223742768348 1 0.92163943024868977 1 0.93255238410553998 1 0.94279246839147035 1 0.9523132849642475 1 0.96107099977450028 1 0.96902467640447243 1 0.976136606116213 1 0.98237262839640516 1 0.98770243553302772 1 0.99209985451897442 1 0.995543099595391 1 0.99801498905577624 1 0.99950312054529189 1 1 4
7 0 0  1 2 2  2.3650467013441721 -0.08925731220727938 -6.7638746255888567  1.629666727283595 0.0019834036522836454 0 
 0 2 1 2
7 0 0  3 103 101  2.3650467013441721 -0.08925731220727938 -6.7638746255888567  2.3646584928259617 -0.089017660535082602 -6.7638746255888567  2.3631072896152809 -0.088060060590952768 -6.7638746255888567  2.3596195082883069 -0.085913121060660888 -6.7638746255888567  2.3538198199960556 -0.082360551716869693 -6.7638746255888567  2.3457124184239597 -0.077431931079211605 -6.7638746255888567  2.3353287745250837 -0.071182573461567741 -6.7638746255888567  2.3226825951168966 -0.063665972878151469 -6.7638746255888567  2.3078137493575239 -0.054959369098413965 -6.7638746255888567  2.2907555592833226 -0.045142510707362707 -6.7638746255888567  2.2715550969162779 -0.034308792805176833 -6.7638746255888567  2.2502637739335776 -0.02255805941004356 -6.7638746255888567  2.2269414063529305 -0.0099976765703235632 -6.7638746255888567  2.2016552677434857 0.0032594724346411696 -6.7638746255888567  2.1744805426615894 0.017096084264095743 -6.7638746255888567  2.1455003836528874 0.031391706931625574 -6.7638746255888567  2.1148059614043246 0.046023927031742018 -6.7638746255888567  2.0824964449167318 0.060869502009024745 -6.7638746255888567  2.0486789235346814 0.075805428500342373 -6.7638746255888567  2.0134682759184201 0.090709949017010474 -6.7638746255888567  1.9769869909506088 0.10546350437381576 -6.7638746255888567  1.9393649492142333 0.11994964300738657 -6.7638746255888567  1.9007391421946354 0.13405590165994574 -6.7638746255888567  1.8612534366850411 0.14767467835471648 -6.7638746255888567  1.8210579764238264 0.1607040378998304 -6.7638746255888567  1.7803094745515018 0.1730489256225658 -6.7638746255888567  1.7391689119825866 0.18462042631058548 -6.7638746255888567  1.6978053765679513 0.19534349586603045 -6.7638746255888567  1.6563844837648001 0.20513091595045399 -6.7638746255888567  1.6147556254187103 0.21405950942890817 -6.7638746255888567  1.5729392638269331 0.22183055989623723 -6.7638746255888567  1.531026977178622 0.22777831952788724 -6.7638746255888567  1.4896084600168686 0.23199224391187306 -6.7638746255888567  1.4489878262692721 0.23445708090920614 -6.7638746255888567  1.4093865485397448 0.23524524831933968 -6.7638746255888567  1.3710200258807494 0.23443924810745898 -6.7638746255888567  1.3340965100380344 0.23214583207109812 -6.7638746255888567  1.2988145380310814 0.22848950022622153 -6.7638746255888567  1.2653607145111998 0.22361047896304725 -6.7638746255888567  1.2339078991438912 0.21766123282375399 -6.7638746255888567  1.2046137248357167 0.21080295327075105 -6.7638746255888567  1.1776194554671762 0.20320184151961668 -6.7638746255888567  1.1530491376374243 0.19502531629461251 -6.7638746255888567  1.1310089492631277 0.1864381939171795 -6.7638746255888567  1.1115866237754093 0.17759886953826914 -6.7638746255888567  1.0948505955047911 0.16865532633345048 -6.7638746255888567  1.0808489035943778 0.15974039442038618 -6.7638746255888567  1.0696066500643577 0.15096534466178207 -6.7638746255888567  1.0611258268259056 0.14240432038606399 -6.7638746255888567  1.0553961631953841 0.13407387040412833 -6.7638746255888567  1.0524763458447346 0.12588866020793166 -6.7638746255888567  1.052653358566803 0.11795149711437732 -6.7638746255888567  1.055903552487456 0.11072486102444634 -6.7638746255888567  1.0619601930441389 0.10457315459805286 -6.7638746255888567  1.0704861397089056 0.09939636799717777 -6.7638746255888567  1.081425737064089 0.095019005013467495 -6.7638746255888567  1.0947453088863102 0.091356929917252125 -6.7638746255888567  1.1103874827095639 0.088348893904548212 -6.7638746255888567  1.1282717136813527 0.085936575550141059 -6.7638746255888567  1.148302001486956 0.08405478507589581 -6.7638746255888567  1.1703723910323878 0.082630334150871537 -6.7638746255888567  1.1943704355970624 0.081582122304038246 -6.7638746255888567  1.2201797990858962 0.080821945731256117 -6.7638746255888567  1.2476821679139589 0.080255475362459694 -6.7638746255888567  1.2767587464048147 0.079783316112134114 -6.7638746255888567  1.3072913693517689 0.079302138098845287 -6.7638746255888567  1.339163246509151 0.078705892651926179 -6.7638746255888567  1.3722593277449815 0.077887091791517649 -6.7638746255888567  1.4064663872303673 0.076738402624988752 -6.7638746255888567  1.4416723791572998 0.075153397026221633 -6.7638746255888567  1.4777668824860652 0.073031893486093027 -6.7638746255888567  1.5146368695487427 0.070266692856748622 -6.7638746255888567  1.5522654252285752 0.066797845606748785 -6.7638746255888567  1.5908576783644861 0.062348998685484047 -6.7638746255888567  1.6303460167984094 0.05743577316415184 -6.7638746255888567  1.6705302224537171 0.052270603395436543 -6.7638746255888567  1.7109071814213506 0.046808840222831827 -6.7638746255888567  1.7513249609905452 0.041055548140146919 -6.7638746255888567  1.791630170699686 0.035001457711611353 -6.7638746255888567  1.8316674631878112 0.028652995207160262 -6.7638746255888567  1.8712820585370216 0.022024403378218829 -6.7638746255888567  1.9103192004776397 0.015139844021609269 -6.7638746255888567  1.9486254115373765 0.0080324731548611222 -6.7638746255888567  1.9860489522498859 0.00074397264765066473 -6.7638746255888567  2.0224405540547181 -0.006676312915615476 -6.7638746255888567  2.0576540465761393 -0.014172390170231849 -6.7638746255888567  2.0915469827661752 -0.021682783366952993 -6.7638746255888567  2.123981239086274 -0.02914180125274772 -6.7638746255888567  2.1548236000970249 -0.03648086158976642 -6.7638746255888567  2.1839463335645601 -0.043629831491716772 -6.7638746255888567  2.2112277640088638 -0.050518346223299107 -6.7638746255888567  2.2365528424653176 -0.057077071902864193 -6.7638746255888567  2.2598137882966673 -0.063238907240125555 -6.7638746255888567  2.2809103678697324 -0.068939978112042125 -6.7638746255888567  2.2997518028737334 -0.074120993633109047 -6.7638746255888567  2.3162531312279073 -0.078726869235538607 -6.7638746255888567  2.3303466576685175 -0.082710623840076172 -6.7638746255888567  2.3419601440705722 -0.086027502237262451 -6.7638746255888567  2.3510543014769296 -0.088646186341740887 -6.7638746255888567  2.3575744287104268 -0.090535168861738749 -6.7638746255888567  2.3615012414049907 -0.091677291097630689 -6.7638746255888567  2.3632492500907305 -0.092186859430412701 -6.7638746255888567  2.3636867833025166 -0.092314406315853928 -6.7638746255888567 
 0 4 0.00049739984301800169 1 0.00198741502815918 1 0.0044635102977900153 1 0.0079148522906514057 1 0.012326395880791562 1 0.017679001628741791 1 0.023949581151797125 1 0.031111266611454625 1 0.039133600095283015 1 0.047982738444039219 1 0.057621669037433883 1 0.068010432190637585 1 0.079106346111928252 1 0.090864230813156949 1 0.10323662793382841 1 0.11617401412241497 1 0.129625006399325 1 0.14353655878335592 1 0.15785415036621575 1 0.17252196592359864 1 0.18748307099874312 1 0.20267958411747308 1 0.21805284932105037 1 0.2335436124699419 1 0.24909220473126328 1 0.26463873629818824 1 0.28012330272223812 1 0.29548620533261971 1 0.31104957869740602 1 0.3264784133363568 1 0.34162084310623081 1 0.35642269447770392 1 0.37082983330862862 1 0.38478841506599898 1 0.39824519846949297 1 0.41114792049166898 1 0.4234457334204193 1 0.43508970918060325 1 0.44603342303631127 1 0.45623363983425413 1 0.46565114465521051 1 0.47425179342967533 1 0.48200792301895584 1 0.48890038732574265 1 0.49492174892025381 1 0.50008171570891213 1 0.5044170938122049 1 0.50801066881149448 1 0.51102448248994026 1 0.51373719851529775 1 0.51644948617691111 1 0.51945299174717252 1 0.52300710312720133 1 0.52725421012781593 1 0.53225968459411821 1 0.5380450386039779 1 0.54460658329338163 1 0.55192538423716675 1 0.55997284499919975 1 0.56871411270903072 1 0.57811034666456584 1 0.58812034627883336 1 0.59870177875637987 1 0.60981212356491643 1 0.62140938996361605 1 0.63345263395937756 1 0.64590228737462307 1 0.65872030704952556 1 0.6718701528262635 1 0.68531660670748029 1 0.6990254509944126 1 0.7130608787820506 1 0.72766469754508867 1 0.74240472119014456 1 0.75722816342908195 1 0.7720813709306984 1 0.78690993897978068 1 0.8016588405242876 1 0.8162725697230786 1 0.83069530104595679 1 0.84487106493198205 1 0.85874394092667017 1 0.87225826905527759 1 0.88535887992530748 1 0.89799134367799749 1 0.91010223742768348 1 0.92163943024868977 1 0.93255238410553998 1 0.94279246839147035 1 0.9523132849642475 1 0.96107099977450028 1 0.96902467640447243 1 0.976136606116213 1 0.98237262839640516 1 0.98770243553302772 1 0.99209985451897442 1 0.995543099595391 1 0.99801498905577624 1 0.99950312054529189 1 1 4
7 0 0  1 2 2  2.3636867833025166 -0.092314406315853928 -6.7638746255888567  1.628608912002377 -0.0019834036522836454 0 
 0 2 1 2
7 0 0  3 103 101  1.629666727283595 0.0019834036522836454 0  1.6291500742438285 0.0021988694159254972 0  1.6270856325357905 0.0030598273372637857 0  1.6224450566585387 0.0049881686731637629 0  1.6147318089168441 0.0081735374630144755 0  1.6039566795836881 0.012580902222155417 0  1.5901684783823973 0.01814931145565751 0  1.5733941385638008 0.024816590854574244 0  1.5536968777694355 0.032496842286308655 0  1.5311324645703552 0.041099864032147194 0  1.5057759624645042 0.050521572392553504 0  1.477708938046788 0.060650906947940279 0  1.4470245933804242 0.071369314738427142 0  1.4138262318245531 0.082552996786545249 0  1.3782275957157424 0.094074325072968201 0  1.3403526900532634 0.1058033941374297 0  1.3003356141326023 0.11760946934389364 0  1.2583203189904262 0.12936235504657242 0  1.2144603067348518 0.14093367407279755 0  1.1689182774848841 0.15219806225091864 0  1.1218657285392608 0.16303428792195521 0  1.0734825140890334 0.1733263116033954 0  1.0239563349957712 0.18296429893652175 0  0.97348228483145494 0.19184563301772908 0  0.92226196936705229 0.19987577495844425 0  0.87050362669571912 0.20696979103539259 0  0.81841948133036857 0.21305101051720843 0  0.76622890397030041 0.21806113522596446 0  0.71414940739535104 0.22192644503990958 0  0.66198366981213208 0.22471096011533553 0  0.60981413853624145 0.22605666917818656 0  0.55788027106163296 0.22517454726244998 0  0.50687934676606683 0.22228680145852026 0  0.45718281015132189 0.21743364492925102 0  0.40904504716576923 0.21074557231354688 0  0.36271113805602795 0.2023641252265973 0  0.31841282228011325 0.19245884983961931 0  0.27636664233675989 0.18121892323055891 0  0.23677164682439575 0.16885027546735576 0  0.19980786728931285 0.15557101302240381 0  0.16563520040547494 0.14160687815954928 0  0.13439274128627549 0.12718652431041397 0  0.10619848754626955 0.11253675722268948 0  0.081149287234712653 0.09787778057692996 0  0.059320878152024262 0.083418457579904515 0  0.040767622527736726 0.069351310285902995 0  0.025522093907170529 0.05584656318747229 0  0.013593233444678603 0.043043890103073676 0  0.0049691449960387107 0.031033516400901601 0  -0.00036581057489460344 0.019833512341367869 0  -0.0023240517781825828 0.009351803048808921 0  -0.00057767669809058756 -0.00023164949795392758 0  0.0047553994929630831 -0.0083610135975851242 0  0.013281638989186564 -0.014646215596828084 0  0.024611824056653214 -0.01927350804528714 0  0.03871238698506882 -0.022466284728211119 0  0.055558759965322273 -0.024332994125890454 0  0.075093244772465415 -0.024958925594685939 0  0.097229499757249038 -0.024430293636656907 0  0.12186378118673571 -0.022844618201048439 0  0.14888182666019315 -0.020311032528982326 0  0.1781630348013499 -0.016949510051416448 0  0.20958346235728501 -0.012889382102998377 0  0.24301795209803281 -0.0082677837820396751 0  0.27834174038305048 -0.0032280818216315807 0  0.31543158694631851 0.002081710857376534 0  0.35416644231978472 0.007510552293562585 0  0.39442764335430403 0.01290599233106156 0  0.4360987075124983 0.018116120829687363 0  0.47906440749005486 0.022990351718529534 0  0.52321027913912577 0.027385981657984306 0  0.56842005422491382 0.031151300814423626 0  0.61468480672483483 0.034210402519246001 0  0.66230643186359561 0.036268014554651964 0  0.71110348696320957 0.037935875836054005 0  0.76079236367790859 0.039432754825617491 0  0.81077204636972455 0.040607447467481288 0  0.86085745773585154 0.041436767249726114 0  0.91086452055971934 0.041879877608389043 0  0.960603757114875 0.041914583089407043 0  1.0098848686632134 0.041528269140164539 0  1.0585156707298691 0.040720344874160708 0  1.1063037924847523 0.039501364688598439 0  1.1530573235704529 0.037892549361000179 0  1.1985858687584148 0.035924881619535616 0  1.2427015037259717 0.033637998604597007 0  1.2852197576707081 0.031078899177784957 0  1.3259605850723883 0.02830052465366489 0  1.3647493296860895 0.025360266680900405 0  1.4014176800970037 0.022318454126827068 0  1.4358046192305933 0.019236865758043661 0  1.4677573584474941 0.016177310163720048 0  1.4971323471769884 0.013200293457172496 0  1.5237958025497926 0.010363867913802458 0  1.5476262834685817 0.0077223571026306965 0  1.5685102083021958 0.0053261102567337569 0  1.5863564819468974 0.0032189899766628155 0  1.6010689342212778 0.0014412849532989837 0  1.6125939134838843 2.3361093131807512e-05 0  1.6208590562866558 -0.0010071610155671805 0  1.6258376837280366 -0.0016332117535059921 0  1.6280541276682299 -0.0019132972043088867 0  1.628608912002377 -0.0019834036522836454 0 
 0 4 0.00049739984301800169 1 0.00198741502815918 1 0.0044635102977900153 1 0.0079148522906514057 1 0.012326395880791562 1 0.017679001628741791 1 0.023949581151797125 1 0.031111266611454625 1 0.039133600095283015 1 0.047982738444039219 1 0.057621669037433883 1 0.068010432190637585 1 0.079106346111928252 1 0.090864230813156949 1 0.10323662793382841 1 0.11617401412241497 1 0.129625006399325 1 0.14353655878335592 1 0.15785415036621575 1 0.17252196592359864 1 0.18748307099874312 1 0.20267958411747308 1 0.21805284932105037 1 0.2335436124699419 1 0.24909220473126328 1 0.26463873629818824 1 0.28012330272223812 1 0.29548620533261971 1 0.31104957869740602 1 0.3264784133363568 1 0.34162084310623081 1 0.35642269447770392 1 0.37082983330862862 1 0.38478841506599898 1 0.39824519846949297 1 0.41114792049166898 1 0.4234457334204193 1 0.43508970918060325 1 0.44603342303631127 1 0.45623363983425413 1 0.46565114465521051 1 0.47425179342967533 1 0.48200792301895584 1 0.48890038732574265 1 0.49492174892025381 1 0.50008171570891213 1 0.5044170938122049 1 0.50801066881149448 1 0.51102448248994026 1 0.51373719851529775 1 0.51644948617691111 1 0.51945299174717252 1 0.52300710312720133 1 0.52725421012781593 1 0.53225968459411821 1 0.5380450386039779 1 0.54460658329338163 1 0.55192538423716675 1 0.55997284499919975 1 0.56871411270903072 1 0.57811034666456584 1 0.58812034627883336 1 0.59870177875637987 1 0.60981212356491643 1 0.62140938996361605 1 0.63345263395937756 1 0.64590228737462307 1 0.65872030704952556 1 0.6718701528262635 1 0.68531660670748029 1 0.6990254509944126 1 0.7130608787820506 1 0.72766469754508867 1 0.74240472119014456 1 0.75722816342908195 1 0.7720813709306984 1 0.78690993897978068 1 0.8016588405242876 1 0.8162725697230786 1 0.83069530104595679 1 0.84487106493198205 1 0.85874394092667017 1 0.87225826905527759 1 0.88535887992530748 1 0.89799134367799749 1 0.91010223742768348 1 0.92163943024868977 1 0.93255238410553998 1 0.94279246839147035 1 0.9523132849642475 1 0.96107099977450028 1 0.96902467640447243 1 0.976136606116213 1 0.98237262839640516 1 0.98770243553302772 1 0.99209985451897442 1 0.995543099595391 1 0.99801498905577624 1 0.99950312054529189 1 1 4
1 2.3636867833025166 -0.092314406315853928 -6.7638746255888567 0.40644031446594731 0.91367733406100315 0 
1 1.628608912002377 -0.0019834036522836454 0 0.25766265056033705 0.96623493960124507 0 
Polygon3D 0
PolygonOnTriangulations 0
Surfaces 5
9 0 0 0 0 3 1 53 2 51 2 2.3650467013441721 -0.08925731220727938 -6.7638746255888567  1.629666727283595 0.0019834036522836454 0  
2.3646584928259617 -0.089017660535082602 -6.7638746255888567  1.6291500742438285 0.0021988694159254972 0  
2.3631072896152809 -0.088060060590952768 -6.7638746255888567  1.6270856325357905 0.0030598273372637857 0  
2.3596195082883069 -0.085913121060660888 -6.7638746255888567  1.6224450566585387 0.0049881686731637629 0  
2.3538198199960556 -0.082360551716869693 -6.7638746255888567  1.6147318089168441 0.0081735374630144755 0  
2.3457124184239597 -0.077431931079211605 -6.7638746255888567  1.6039566795836881 0.012580902222155417 0  
2.3353287745250837 -0.071182573461567741 -6.7638746255888567  1.5901684783823973 0.01814931145565751 0  
2.3226825951168966 -0.063665972878151469 -6.7638746255888567  1.5733941385638008 0.024816590854574244 0  
2.3078137493575239 -0.054959369098413965 -6.7638746255888567  1.5536968777694355 0.032496842286308655 0  
2.2907555592833226 -0.045142510707362707 -6.7638746255888567  1.5311324645703552 0.041099864032147194 0  
2.2715550969162779 -0.034308792805176833 -6.7638746255888567  1.5057759624645042 0.050521572392553504 0  
2.2502637739335776 -0.02255805941004356 -6.7638746255888567  1.477708938046788 0.060650906947940279 0  
2.2269414063529305 -0.0099976765703235632 -6.7638746255888567  1.4470245933804242 0.071369314738427142 0  
2.2016552677434857 0.0032594724346411696 -6.7638746255888567  1.4138262318245531 0.082552996786545249 0  
2.1744805426615894 0.017096084264095743 -6.7638746255888567  1.3782275957157424 0.094074325072968201 0  
2.1455003836528874 0.031391706931625574 -6.7638746255888567  1.3403526900532634 0.1058033941374297 0  
2.1148059614043246 0.046023927031742018 -6.7638746255888567  1.3003356141326023 0.11760946934389364 0  
2.0824964449167318 0.060869502009024745 -6.7638746255888567  1.2583203189904262 0.12936235504657242 0  
2.0486789235346814 0.075805428500342373 -6.7638746255888567  1.2144603067348518 0.14093367407279755 0  
2.0134682759184201 0.090709949017010474 -6.7638746255888567  1.1689182774848841 0.15219806225091864 0  
1.9769869909506088 0.10546350437381576 -6.7638746255888567  1.1218657285392608 0.16303428792195521 0  
1.9393649492142333 0.11994964300738657 -6.7638746255888567  1.0734825140890334 0.1733263116033954 0  
1.9007391421946354 0.13405590165994574 -6.7638746255888567  1.0239563349957712 0.18296429893652175 0  
1.8612534366850411 0.14767467835471648 -6.7638746255888567  0.97348228483145494 0.19184563301772908 0  
1.8210579764238264 0.1607040378998304 -6.7638746255888567  0.92226196936705229 0.19987577495844425 0  
1.7803094745515018 0.1730489256225658 -6.7638746255888567  0.87050362669571912 0.20696979103539259 0  
1.7391689119825866 0.18462042631058548 -6.7638746255888567  0.81841948133036857 0.21305101051720843 0  
1.6978053765679513 0.19534349586603045 -6.7638746255888567  0.76622890397030041 0.21806113522596446 0  
1.6563844837648001 0.20513091595045399 -6.7638746255888567  0.71414940739535104 0.22192644503990958 0  
1.6147556254187103 0.21405950942890817 -6.7638746255888567  0.66198366981213208 0.22471096011533553 0  
1.5729392638269331 0.22183055989623723 -6.7638746255888567  0.60981413853624145 0.22605666917818656 0  
1.531026977178622 0.22777831952788724 -6.7638746255888567  0.55788027106163296 0.22517454726244998 0  
1.4896084600168686 0.23199224391187306 -6.7638746255888567  0.50687934676606683 0.22228680145852026 0  
1.4489878262692721 0.23445708090920614 -6.7638746255888567  0.45718281015132189 0.21743364492925102 0  
1.4093865485397448 0.23524524831933968 -6.7638746255888567  0.40904504716576923 0.21074557231354688 0  
1.3710200258807494 0.23443924810745898 -6.7638746255888567  0.36271113805602795 0.2023641252265973 0  
1.3340965100380344 0.23214583207109812 -6.7638746255888567  0.31841282228011325 0.19245884983961931 0  
1.2988145380310814 0.22848950022622153 -6.7638746255888567  0.27636664233675989 0.18121892323055891 0  
1.2653607145111998 0.22361047896304725 -6.7638746255888567  0.23677164682439575 0.16885027546735576 0  
1.2339078991438912 0.21766123282375399 -6.7638746255888567  0.19980786728931285 0.15557101302240381 0  
1.2046137248357167 0.21080295327075105 -6.7638746255888567  0.16563520040547494 0.14160687815954928 0  
1.1776194554671762 0.20320184151961668 -6.7638746255888567  0.13439274128627549 0.12718652431041397 0  
1.1530491376374243 0.19502531629461251 -6.7638746255888567  0.10619848754626955 0.11253675722268948 0  
1.1310089492631277 0.1864381939171795 -6.7638746255888567  0.081149287234712653 0.09787778057692996 0  
1.1115866237754093 0.17759886953826914 -6.7638746255888567  0.059320878152024262 0.083418457579904515 0  
1.0948505955047911 0.16865532633345048 -6.7638746255888567  0.040767622527736726 0.069351310285902995 0  
1.0808489035943778 0.15974039442038618 -6.7638746255888567  0.025522093907170529 0.05584656318747229 0  
1.0696066500643577 0.15096534466178207 -6.7638746255888567  0.013593233444678603 0.043043890103073676 0  
1.0611258268259056 0.14240432038606399 -6.7638746255888567  0.0049691449960387107 0.031033516400901601 0  
1.0553961631953841 0.13407387040412833 -6.7638746255888567  -0.00036581057489460344 0.019833512341367869 0  
1.0524763458447346 0.12588866020793166 -6.7638746255888567  -0.0023240517781825828 0.009351803048808921 0  
1.0525964656003666 0.12050254965007126 -6.7638746255888567  -0.0011389722798784076 0.0028485304897769193 0  
1.0531479933020198 0.11806388377096255 -6.7638746255888567  -8.8883425117649087e-09 -3.0781338472042619e-09 0  

0 4
0.00049739984301800169 1
0.00198741502815918 1
0.0044635102977900153 1
0.0079148522906514057 1
0.012326395880791562 1
0.017679001628741791 1
0.023949581151797125 1
0.031111266611454625 1
0.039133600095283015 1
0.047982738444039219 1
0.057621669037433883 1
0.068010432190637585 1
0.079106346111928252 1
0.090864230813156949 1
0.10323662793382841 1
0.11617401412241497 1
0.129625006399325 1
0.14353655878335592 1
0.15785415036621575 1
0.17252196592359864 1
0.18748307099874312 1
0.20267958411747308 1
0.21805284932105037 1
0.2335436124699419 1
0.24909220473126328 1
0.26463873629818824 1
0.28012330272223812 1
0.29548620533261971 1
0.31104957869740602 1
0.3264784133363568 1
0.34162084310623081 1
0.35642269447770392 1
0.37082983330862862 1
0.38478841506599898 1
0.39824519846949297 1
0.41114792049166898 1
0.4234457334204193 1
0.43508970918060325 1
0.44603342303631127 1
0.45623363983425413 1
0.46565114465521051 1
0.47425179342967533 1
0.48200792301895584 1
0.48890038732574265 1
0.49492174892025381 1
0.50008171570891213 1
0.5044170938122049 1
0.50801066881149448 1
0.51102448248994026 1
0.51373719851529775 4

0 2
1 2

9 0 0 0 0 3 1 53 2 51 2 1.0531479933020198 0.11806388377096255 -6.7638746255888567  -8.8883425117649087e-09 -3.0781338472042619e-09 0  
1.0536994337539713 0.11562560368003924 -6.7638746255888567  0.0011387743232745906 -0.0028480860182625782 0  
1.055903552487456 0.11072486102444634 -6.7638746255888567  0.0047553994929630831 -0.0083610135975851242 0  
1.0619601930441389 0.10457315459805286 -6.7638746255888567  0.013281638989186564 -0.014646215596828084 0  
1.0704861397089056 0.09939636799717777 -6.7638746255888567  0.024611824056653214 -0.01927350804528714 0  
1.081425737064089 0.095019005013467495 -6.7638746255888567  0.03871238698506882 -0.022466284728211119 0  
1.0947453088863102 0.091356929917252125 -6.7638746255888567  0.055558759965322273 -0.024332994125890454 0  
1.1103874827095639 0.088348893904548212 -6.7638746255888567  0.075093244772465415 -0.024958925594685939 0  
1.1282717136813527 0.085936575550141059 -6.7638746255888567  0.097229499757249038 -0.024430293636656907 0  
1.148302001486956 0.08405478507589581 -6.7638746255888567  0.12186378118673571 -0.022844618201048439 0  
1.1703723910323878 0.082630334150871537 -6.7638746255888567  0.14888182666019315 -0.020311032528982326 0  
1.1943704355970624 0.081582122304038246 -6.7638746255888567  0.1781630348013499 -0.016949510051416448 0  
1.2201797990858962 0.080821945731256117 -6.7638746255888567  0.20958346235728501 -0.012889382102998377 0  
1.2476821679139589 0.080255475362459694 -6.7638746255888567  0.24301795209803281 -0.0082677837820396751 0  
1.2767587464048147 0.079783316112134114 -6.7638746255888567  0.27834174038305048 -0.0032280818216315807 0  
1.3072913693517689 0.079302138098845287 -6.7638746255888567  0.31543158694631851 0.002081710857376534 0  
1.339163246509151 0.078705892651926179 -6.7638746255888567  0.35416644231978472 0.007510552293562585 0  
1.3722593277449815 0.077887091791517649 -6.7638746255888567  0.39442764335430403 0.01290599233106156 0  
1.4064663872303673 0.076738402624988752 -6.7638746255888567  0.4360987075124983 0.018116120829687363 0  
1.4416723791572998 0.075153397026221633 -6.7638746255888567  0.47906440749005486 0.022990351718529534 0  
1.4777668824860652 0.073031893486093027 -6.7638746255888567  0.52321027913912577 0.027385981657984306 0  
1.5146368695487427 0.070266692856748622 -6.7638746255888567  0.56842005422491382 0.031151300814423626 0  
1.5522654252285752 0.066797845606748785 -6.7638746255888567  0.61468480672483483 0.034210402519246001 0  
1.5908576783644861 0.062348998685484047 -6.7638746255888567  0.66230643186359561 0.036268014554651964 0  
1.6303460167984094 0.05743577316415184 -6.7638746255888567  0.71110348696320957 0.037935875836054005 0  
1.6705302224537171 0.052270603395436543 -6.7638746255888567  0.76079236367790859 0.039432754825617491 0  
1.7109071814213506 0.046808840222831827 -6.7638746255888567  0.81077204636972455 0.040607447467481288 0  
1.7513249609905452 0.041055548140146919 -6.7638746255888567  0.86085745773585154 0.041436767249726114 0  
1.791630170699686 0.035001457711611353 -6.7638746255888567  0.91086452055971934 0.041879877608389043 0  
1.8316674631878112 0.028652995207160262 -6.7638746255888567  0.960603757114875 0.041914583089407043 0  
1.8712820585370216 0.022024403378218829 -6.7638746255888567  1.0098848686632134 0.041528269140164539 0  
1.9103192004776397 0.015139844021609269 -6.7638746255888567  1.0585156707298691 0.040720344874160708 0  
1.9486254115373765 0.0080324731548611222 -6.7638746255888567  1.1063037924847523 0.039501364688598439 0  
1.9860489522498859 0.00074397264765066473 -6.7638746255888567  1.1530573235704529 0.037892549361000179 0  
2.0224405540547181 -0.006676312915615476 -6.7638746255888567  1.1985858687584148 0.035924881619535616 0  
2.0576540465761393 -0.014172390170231849 -6.7638746255888567  1.2427015037259717 0.033637998604597007 0  
2.0915469827661752 -0.021682783366952993 -6.7638746255888567  1.2852197576707081 0.031078899177784957 0  
2.123981239086274 -0.02914180125274772 -6.7638746255888567  1.3259605850723883 0.02830052465366489 0  
2.1548236000970249 -0.03648086158976642 -6.7638746255888567  1.3647493296860895 0.025360266680900405 0  
2.1839463335645601 -0.043629831491716772 -6.7638746255888567  1.4014176800970037 0.022318454126827068 0  
2.2112277640088638 -0.050518346223299107 -6.7638746255888567  1.4358046192305933 0.019236865758043661 0  
2.2365528424653176 -0.057077071902864193 -6.7638746255888567  1.4677573584474941 0.016177310163720048 0  
2.2598137882966673 -0.063238907240125555 -6.7638746255888567  1.4971323471769884 0.013200293457172496 0  
2.2809103678697324 -0.068939978112042125 -6.7638746255888567  1.5237958025497926 0.010363867913802458 0  
2.2997518028737334 -0.074120993633109047 -6.7638746255888567  1.5476262834685817 0.0077223571026306965 0  
2.3162531312279073 -0.078726869235538607 -6.7638746255888567  1.5685102083021958 0.0053261102567337569 0  
2.3303466576685175 -0.082710623840076172 -6.7638746255888567  1.5863564819468974 0.0032189899766628155 0  
2.3419601440705722 -0.086027502237262451 -6.7638746255888567  1.6010689342212778 0.0014412849532989837 0  
2.3510543014769296 -0.088646186341740887 -6.7638746255888567  1.6125939134838843 2.3361093131807512e-05 0  
2.3575744287104268 -0.090535168861738749 -6.7638746255888567  1.6208590562866558 -0.0010071610155671805 0  
2.3615012414049907 -0.091677291097630689 -6.7638746255888567  1.6258376837280366 -0.0016332117535059921 0  
2.3632492500907305 -0.092186859430412701 -6.7638746255888567  1.6280541276682299 -0.0019132972043088867 0  
2.3636867833025166 -0.092314406315853928 -6.7638746255888567  1.628608912002377 -0.0019834036522836454 0  

0.51373719851529775 4
0.51644948617691111 1
0.51945299174717252 1
0.52300710312720133 1
0.52725421012781593 1
0.53225968459411821 1
0.5380450386039779 1
0.54460658329338163 1
0.55192538423716675 1
0.55997284499919975 1
0.56871411270903072 1
0.57811034666456584 1
0.58812034627883336 1
0.59870177875637987 1
0.60981212356491643 1
0.62140938996361605 1
0.63345263395937756 1
0.64590228737462307 1
0.65872030704952556 1
0.6718701528262635 1
0.68531660670748029 1
0.6990254509944126 1
0.7130608787820506 1
0.72766469754508867 1
0.74240472119014456 1
0.75722816342908195 1
0.7720813709306984 1
0.78690993897978068 1
0.8016588405242876 1
0.8162725697230786 1
0.83069530104595679 1
0.84487106493198205 1
0.85874394092667017 1
0.87225826905527759 1
0.88535887992530748 1
0.89799134367799749 1
0.91010223742768348 1
0.92163943024868977 1
0.93255238410553998 1
0.94279246839147035 1
0.9523132849642475 1
0.96107099977450028 1
0.96902467640447243 1
0.976136606116213 1
0.98237262839640516 1
0.98770243553302772 1
0.99209985451897442 1
0.995543099595391 1
0.99801498905577624 1
0.99950312054529189 1
1 4

0 2
1 2

9 0 0 0 0 1 1 2 2 2 2 2.3636867833025166 -0.092314406315853928 -6.7638746255888567  1.628608912002377 -0.0019834036522836454 0  
2.3650467013441721 -0.089257312207279352 -6.7638746255888567  1.629666727283595 0.0019834036522836454 0  

0 2
0.0041054273055002024 2

0 2
1 2

1 2.3650467013441721 -0.08925731220727938 -6.7638746255888567 0 0 -1 -0.98608230564873212 0.16625789150136738 0 0.16625789150136738 0.98608230564873212 0 
1 1.629666727283595 0.0019834036522836454 0 0 0 -1 -0.99995876582386489 0.0090811151304850991 0 0.0090811151304850991 0.99995876582386489 0 
Triangulations 0

TShapes 28
Ve
1.32774726650572e-07
2.36504670134417 -0.0892573122072794 -6.76387462558886
0 0

0101101
*
Ve
1.32774726650572e-07
1.05314800085045 0.118063885108958 -6.76387462558886
0 0

0101101
*
Ed
 1e-07 1 1 0
1  1 0 0 0.513737198904424
2  1 1 0 0 0.513737198904424
0

0101000
+28 0 -27 0 *
Ve
1.62913781964299e-07
0 0 0
0 0

0101101
*
Ed
 1e-07 1 1 0
1  2 0 0 1
2  2 1 0 0 1
2  3 2 0 0 1
4 G1 1 0 2 0
0

0101000
+27 0 -25 0 *
Ve
1.62913781964299e-07
1.62966672728359 0.00198340365228365 0
0 0

0101101
*
Ed
 1e-07 1 1 0
1  3 0 0 0.513737198904424
2  4 1 0 0 0.513737198904424
0

0101000
+23 0 -25 0 *
Ed
 1e-07 1 1 0
1  4 0 0 1
2  5 1 0 0 1
2  6 3 0 0 1
0

0101000
+28 0 -23 0 *
Wi

0101000
+26 0 +24 0 -22 0 -21 0 *
Fa
0  1e-07 1 0

0111000
+20 0 *
Ve
1.32774726650572e-07
2.36368678330252 -0.0923144063158539 -6.76387462558886
0 0

0101101
*
Ed
 1e-07 1 1 0
1  5 0 0.513737198904424 1
2  7 2 0 0.513737198904424 1
0

0101000
+27 0 -18 0 *
Ve
1.62913781964299e-07
1.62860891200238 -0.00198340365228365 0
0 0

0101101
*
Ed
 1e-07 1 1 0
1  6 0 0 1
2  8 2 0 0 1
2  9 3 0 0 1
0

0101000
+18 0 -16 0 *
Ed
 1e-07 1 1 0
1  7 0 0.513737198904424 1
2  10 2 0 0.513737198904424 1
0

0101000
+25 0 -16 0 *
Wi

0101000
+17 0 +15 0 -14 0 -24 0 *
Fa
0  1e-07 2 0

0111000
+13 0 *
Ed
 1e-07 1 1 0
1  8 0 0 0.00334592311159431
2  11 3 0 0 0.00334592311159431
0

0101000
+18 0 -28 0 *
Ed
 1e-07 1 1 0
1  9 0 0 0.0041054273055002
2  12 3 0 0 0.0041054273055002
0

0101000
+16 0 -23 0 *
Wi

0101000
+11 0 +21 0 -10 0 -15 0 *
Fa
0  1e-07 3 0

0111000
+9 0 *
Wi

0101100
+26 0 +17 0 +11 0 *
Fa
0  1e-07 4 0

0111000
-7 0 *
Wi

0101100
+22 0 +14 0 +10 0 *
Fa
0  1e-07 5 0

0111000
-5 0 *
Sh

0101100
+19 0 +12 0 +8 0 +6 0 -4 0 *
So

0100100
+3 0 *
Co

1100000
+2 0 *

+1 0 
##EGADS HEADER FILE-REV 1 ##
13
2 15 1
_cfgpmtr_series
 8.412000000000e+03
2 14 1
_cfgpmtr_nspar
 3.000000000000e+00
2 13 1
_cfgpmtr_nrib
 8.000000000000e+00
2 13 1
_despmtr_area
 2.000000000498e+01
2 15 1
_despmtr_aspect
 9.149999987857e+00
2 14 1
_despmtr_taper
 8.149999653170e-01
2 14 1
_despmtr_twist
 9.049999014106e+00
2 16 1
_despmtr_lesweep
 8.850000123615e+00
2 17 1
_despmtr_dihedral
 1.000000121545e+00
2 18 4
_cfgpmtr_rootFaces
 1.310000000000e+02  1.300000000000e+02  1.420000000000e+02  1.480000000000e+02 
2 18 11
_cfgpmtr_rootEdges
 2.000000000000e+02  1.920000000000e+02  1.790000000000e+02  1.770000000000e+02  1.760000000000e+02  1.690000000000e+02  1.870000000000e+02  1.970000000000e+02  1.950000000000e+02  1.600000000000e+02  1.820000000000e+02 
2 20 36
_cfgpmtr_bottomFaces
 1.250000000000e+02  1.220000000000e+02  1.370000000000e+02  1.450000000000e+02  1.090000000000e+02  1.060000000000e+02  1.230000000000e+02  1.380000000000e+02  9.300000000000e+01  9.000000000000e+01  1.070000000000e+02  1.240000000000e+02  7.700000000000e+01  7.400000000000e+01  9.100000000000e+01  1.080000000000e+02  5.800000000000e+01  5.300000000000e+01  7.500000000000e+01  9.200000000000e+01  3.700000000000e+01  3.200000000000e+01  5.400000000000e+01  7.600000000000e+01  1.600000000000e+01  1.200000000000e+01  3.300000000000e+01  5.500000000000e+01  3.000000000000e+00  2.000000000000e+00  1.400000000000e+01  3.500000000000e+01  1.700000000000e+01  1.500000000000e+01  3.600000000000e+01  5.700000000000e+01 
2 18 9
_cfgpmtr_rootNodes
 8.100000000000e+01  7.500000000000e+01  7.400000000000e+01  8.200000000000e+01  7.800000000000e+01  8.700000000000e+01  8.500000000000e+01  9.000000000000e+01  8.900000000000e+01 
  1  1  5  5  9  6  3
2 3 1
OML
 0.000000000000e+00
1 5 1
_body
7
1 5 1
_brch
17
    2 0 6
1 5 2
_body
7 3 
1 5 2
_brch
17 3 
2 3 1
OML
 0.000000000000e+00
1 5 1
_hist
7
1 7 3
_faceID
7 3 1 
1 9 2
__trace__
7 1 
    2 1 6
1 5 2
_body
7 4 
1 5 2
_brch
17 4 
2 3 1
OML
 0.000000000000e+00
1 5 1
_hist
7
1 7 3
_faceID
7 4 1 
1 9 2
__trace__
7 2 
    2 2 6
1 5 2
_body
7 5 
1 5 2
_brch
17 5 
2 3 1
OML
 0.000000000000e+00
1 5 1
_hist
7
1 7 3
_faceID
7 5 1 
1 9 2
__trace__
7 3 
    2 3 6
1 5 2
_body
7 1 
1 5 2
_brch
17 1 
2 3 1
OML
 0.000000000000e+00
1 5 1
_hist
7
1 7 3
_faceID
7 1 1 
1 9 2
__trace__
7 4 
    2 4 6
1 5 2
_body
7 2 
1 5 2
_brch
17 2 
2 3 1
OML
 0.000000000000e+00
1 5 1
_hist
7
1 7 3
_faceID
7 2 1 
1 9 2
__trace__
7 5 
    4 0 4
1 5 2
_body
7 30001 
1 7 5
_edgeID
7 1 7 3 1 
1 6 1
_nface
2
1 9 2
__trace__
7 1 
    4 1 4
1 5 2
_body
7 30004 
1 7 5
_edgeID
7 3 7 4 1 
1 6 1
_nface
2
1 9 2
__trace__
7 2 
    4 2 4
1 5 2
_body
7 20003 
1 7 5
_edgeID
7 2 7 3 1 
1 6 1
_nface
2
1 9 2
__trace__
7 3 
    4 3 4
1 5 2
_body
7 50003 
1 7 5
_edgeID
7 3 7 5 1 
1 6 1
_nface
2
1 9 2
__trace__
7 4 
    4 4 4
1 5 2
_body
7 40001 
1 7 5
_edgeID
7 1 7 4 1 
1 6 1
_nface
2
1 9 2
__trace__
7 5 
    4 5 4
1 5 2
_body
7 40005 
1 7 5
_edgeID
7 4 7 5 1 
1 6 1
_nface
2
1 9 2
__trace__
7 6 
    4 6 4
1 5 2
_body
7 20004 
1 7 5
_edgeID
7 2 7 4 1 
1 6 1
_nface
2
1 9 2
__trace__
7 7 
    4 7 4
1 5 2
_body
7 50001 
1 7 5
_edgeID
7 1 7 5 1 
1 6 1
_nface
2
1 9 2
__trace__
7 8 
    4 8 4
1 5 2
_body
7 20005 
1 7 5
_edgeID
7 2 7 5 1 
1 6 1
_nface
2
1 9 2
__trace__
7 9 
    5 0 3
1 9 10
__trace__
3 1 4 1 5 1 6 1 7 1 
1 7 1
_nodeID
1
1 6 1
_nedge
3
    5 1 3
1 9 10
__trace__
3 2 4 2 5 2 6 2 7 2 
1 7 1
_nodeID
2
1 6 1
_nedge
3
    5 2 3
1 9 6
__trace__
1 2 2 2 7 3 
1 7 1
_nodeID
3
1 6 1
_nedge
3
    5 3 3
1 9 6
__trace__
1 1 2 1 7 4 
1 7 1
_nodeID
4
1 6 1
_nedge
3
    5 4 3
1 9 10
__trace__
3 3 4 3 5 3 6 3 7 5 
1 7 1
_nodeID
5
1 6 1
_nedge
3
    5 5 3
1 9 6
__trace__
1 3 2 3 7 6 
1 7 1
_nodeID
6
1 6 1
_nedge
3
    0 0 0
