DBRep_DrawableShape

CASCADE Topology V1, (c) Matra-Datavision
Locations 0
Curve2ds 12
1 0 0 1 0 
1 0.51373719851529775 0 0 1 
1 0.51373719851529775 0 0 1 
1 0 1 1 0 
1 0 0 0 1 
1 0.0086754826955043555 0 0 1 
1 0 0 1 0 
1 1 0 0 1 
1 0 0 0 1 
1 0 1 1 0 
7 0 0  1 2 2  0 0  0.0086754826955043555 0 
 0 2 0.0043377413477521777 2
1 0 1 1 0 
Curves 9
7 0 0  3 103 101  6.1876510533307361 0.52969949237428549 -7.745966692414834  6.1871270834682459 0.52997386184752326 -7.745966692414834  6.1850334052103815 0.53107018715555476 -7.745966692414834  6.1803264676718079 0.53352723495107179 -7.745966692414834  6.172501095859829 0.53759034324971211 -7.745966692414834  6.1615654212804856 0.54322164543490614 -7.745966692414834  6.1475652065189772 0.55035249122997365 -7.745966692414834  6.1305230751141933 0.55891495782179246 -7.745966692414834  6.1104976576607193 0.56881281014723406 -7.745966692414834  6.0875393478039577 0.57994596930160758 -7.745966692414834  6.061717570019912 0.59219796784592682 -7.745966692414834  6.0331079512550954 0.60544439602407296 -7.745966692414834  6.0017976755874365 0.61955188619888124 -7.745966692414834  5.967884076285328 0.63438061874505236 -7.745966692414834  5.9314751217260291 0.64978578241385399 -7.745966692414834  5.8926893726962479 0.66561922373256044 -7.745966692414834  5.8516559385428009 0.68173098690422085 -7.745966692414834  5.8085143478587522 0.69797077622961023 -7.745966692414834  5.7634143498333348 0.71418933053593614 -7.745966692414834  5.7165156526337215 0.73023971300935098 -7.745966692414834  5.6679876045970028 0.74597852646697371 -7.745966692414834  5.6180088283805576 0.76126706926851173 -7.745966692414834  5.5667667771998373 0.77597244849579738 -7.745966692414834  5.5144573502285823 0.78996868730291925 -7.745966692414834  5.4612840450491653 0.80313771179705506 -7.745966692414834  5.407458224722153 0.81537094740365879 -7.745966692414834  5.3531962092004921 0.82656814979520643 -7.745966692414834  5.2987235321611257 0.83664775490004839 -7.745966692414834  5.2442623515242976 0.84551213711828321 -7.745966692414834  5.1896108684752056 0.85324685284823465 -7.745966692414834  5.1348228958131958 0.85946747905665699 -7.745966692414834  5.0800778188684461 0.863321463453393 -7.745966692414834  5.0261300330550283 0.86497848282393708 -7.745966692414834  4.9733742115196469 0.86444665868068105 -7.745966692414834  4.9220901293318029 0.86183991945105298 -7.745966692414834  4.8725487839838326 0.8572846781803386 -7.745966692414834  4.8250097097804749 0.85093805309277848 -7.745966692414834  4.7797182529849254 0.84297922470031561 -7.745966692414834  4.7369028891148108 0.83360661812439507 -7.745966692414834  4.696773198275987 0.82303322619948927 -7.745966692414834  4.6595182704474345 0.81148193311400485 -7.745966692414834  4.6253055686673488 0.79918060282397907 -7.745966692414834  4.594280179306212 0.78635709729794778 -7.745966692414834  4.5665643194426337 0.7732342770075854 -7.745966692414834  4.5422569418970307 0.76002500981947874 -7.745966692414834  4.5214329954609864 0.74692693188165138 -7.745966692414834  4.5041424415553353 0.73411621614997213 -7.745966692414834  4.4904075535953014 0.72173905522227633 -7.745966692414834  4.4802241187559693 0.70989151278005302 -7.745966692414834  4.4735773398587728 0.69859404914621903 -7.745966692414834  4.4705509232638985 0.68774168421186888 -7.745966692414834  4.4715065798175999 0.67749364413997248 -7.745966692414834  4.4763713812965031 0.66844583725743856 -7.745966692414834  4.4847670240562731 0.66104508202375345 -7.745966692414834  4.4962666789953287 0.65513117747208094 -7.745966692414834  4.5108144420242802 0.6504720779856723 -7.745966692414834  4.5283744671091695 0.6469558967331499 -7.745966692414834  4.5488781689263744 0.64449817430653789 -7.745966692414834  4.5722267278514392 0.6430161152308862 -7.745966692414834  4.5983019663173028 0.64241662681715916 -7.745966692414834  4.6269735657178908 0.64259536125653871 -7.745966692414834  4.6581035370050428 0.6434371444629402 -7.745966692414834  4.6915495118346167 0.64481726028133224 -7.745966692414834  4.7271671254394843 0.64660289036969765 -7.745966692414834  4.7648118534738986 0.64865462093180293 -7.745966692414834  4.8043403471876918 0.65082800746603298 -7.745966692414834  4.8456112848533186 0.65297521545862769 -7.745966692414834  4.8884857268248005 0.65494670842677249 -7.745966692414834  4.932827078423716 0.65659331748224592 -7.745966692414834  4.9785001881184447 0.6577671518159981 -7.745966692414834  5.0253714335537119 0.65832854743973446 -7.745966692414834  5.0733044640645844 0.65812852656653154 -7.745966692414834  5.1222828943404224 0.65708801436488684 -7.745966692414834  5.1725972981801878 0.65486841634646664 -7.745966692414834  5.224113028815343 0.65213033700267364 -7.745966692414834  5.2765517155378125 0.6491301615399917 -7.745966692414834  5.3292668254263891 0.64576408386454309 -7.745966692414834  5.3820614171343406 0.64202474199690229 -7.745966692414834  5.4347379766174155 0.63788610401003409 -7.745966692414834  5.4870950220551293 0.6333422563041109 -7.745966692414834  5.5389310897419737 0.62839744541948073 -7.745966692414834  5.5900438383423987 0.62306874725690242 -7.745966692414834  5.6402317567144085 0.61738498602939829 -7.745966692414834  5.6892948006377217 0.61138617061967193 -7.745966692414834  5.7370354196224778 0.60512244548683825 -7.745966692414834  5.7832594609372459 0.59865283689326554 -7.745966692414834  5.8277770848348052 0.59204380177463256 -7.745966692414834  5.8704036566987963 0.58536764437842215 -7.745966692414834  5.9109606243045443 0.5787008569377079 -7.745966692414834  5.9492763842644525 0.57212243902173554 -7.745966692414834  5.9851871444865044 0.56571224459516301 -7.745966692414834  6.0185377765994215 0.55954940127428276 -7.745966692414834  6.0491827559704907 0.5537108150195178 -7.745966692414834  6.0769866131528287 0.54826990947766885 -7.745966692414834  6.1018265258656976 0.54329504705766829 -7.745966692414834  6.1235875784505103 0.53884968315489257 -7.745966692414834  6.1421779264722431 0.53498837481809158 -7.745966692414834  6.1575000545260741 0.53176238467156089 -7.745966692414834  6.1695002870264819 0.52920861551071752 -7.745966692414834  6.1781050001585509 0.52736280363059984 -7.745966692414834  6.1832876845106526 0.52624537274075267 -7.745966692414834  6.1855948464874215 0.52574645672852649 -7.745966692414834  6.1861723378909383 0.52562157616032268 -7.745966692414834 
 0 4 0.00049739984301800169 1 0.00198741502815918 1 0.0044635102977900153 1 0.0079148522906514057 1 0.012326395880791562 1 0.017679001628741791 1 0.023949581151797125 1 0.031111266611454625 1 0.039133600095283015 1 0.047982738444039219 1 0.057621669037433883 1 0.068010432190637585 1 0.079106346111928252 1 0.090864230813156949 1 0.10323662793382841 1 0.11617401412241497 1 0.129625006399325 1 0.14353655878335592 1 0.15785415036621575 1 0.17252196592359864 1 0.18748307099874312 1 0.20267958411747308 1 0.21805284932105037 1 0.2335436124699419 1 0.24909220473126328 1 0.26463873629818824 1 0.28012330272223812 1 0.29548620533261971 1 0.31104957869740602 1 0.3264784133363568 1 0.34162084310623081 1 0.35642269447770392 1 0.37082983330862862 1 0.38478841506599898 1 0.39824519846949297 1 0.41114792049166898 1 0.4234457334204193 1 0.43508970918060325 1 0.44603342303631127 1 0.45623363983425413 1 0.46565114465521051 1 0.47425179342967533 1 0.48200792301895584 1 0.48890038732574265 1 0.49492174892025381 1 0.50008171570891213 1 0.5044170938122049 1 0.50801066881149448 1 0.51102448248994026 1 0.51373719851529775 1 0.51644948617691111 1 0.51945299174717252 1 0.52300710312720133 1 0.52725421012781593 1 0.53225968459411821 1 0.5380450386039779 1 0.54460658329338163 1 0.55192538423716675 1 0.55997284499919975 1 0.56871411270903072 1 0.57811034666456584 1 0.58812034627883336 1 0.59870177875637987 1 0.60981212356491643 1 0.62140938996361605 1 0.63345263395937756 1 0.64590228737462307 1 0.65872030704952556 1 0.6718701528262635 1 0.68531660670748029 1 0.6990254509944126 1 0.7130608787820506 1 0.72766469754508867 1 0.74240472119014456 1 0.75722816342908195 1 0.7720813709306984 1 0.78690993897978068 1 0.8016588405242876 1 0.8162725697230786 1 0.83069530104595679 1 0.84487106493198205 1 0.85874394092667017 1 0.87225826905527759 1 0.88535887992530748 1 0.89799134367799749 1 0.91010223742768348 1 0.92163943024868977 1 0.93255238410553998 1 0.94279246839147035 1 0.9523132849642475 1 0.96107099977450028 1 0.96902467640447243 1 0.976136606116213 1 0.98237262839640516 1 0.98770243553302772 1 0.99209985451897442 1 0.995543099595391 1 0.99801498905577624 1 0.99950312054529189 1 1 4
7 0 0  1 2 2  4.4721359453605505 0.67768427121426367 -7.745966692414834  -1.8782615283192625e-08 -6.5046327551651628e-09 0 
 0 2 1 2
7 0 0  3 103 101  3.4437695372285884 0.0041912772491511487 0  3.4426777594007194 0.0046465939226297374 0  3.4383152346301635 0.0064659479124375471 0  3.4285088898274343 0.010540868900129405 0  3.4122094543899686 0.017272107759998226 0  3.3894397300432786 0.026585636865598672 0  3.360302860231049 0.038352655095835776 0  3.3248557596016513 0.052441777310690683 0  3.2832320180385226 0.068671485800198634 0  3.2355494842422066 0.08685116862763001 0  3.1819667804532208 0.10676087881377463 0  3.1226562710882217 0.12816592635523277 0  3.0578149083342665 0.15081578820643377 0  2.9876609901754438 0.17444885557325443 0  2.9124348739726833 0.19879542822944934 0  2.8323986038800477 0.22358099331954009 0  2.7478355550570259 0.24852928579527833 0  2.6590499211075178 0.27336517958865469 0  2.5663660787123388 0.29781739138197622 0  2.4701278415507848 0.32162100485329714 0  2.37069761327461 0.34451983639945793 0  2.2684554571040518 0.3662686743901909 0  2.1637980176403433 0.38663541970218473 0  2.0571375615689638 0.40540322495141684 0  1.9489001169856996 0.42237231300609623 0  1.8395257272378762 0.43736320412107033 0  1.7294628596718462 0.45021387969176574 0  1.6191750827700246 0.46080114551788315 0  1.5091220389075166 0.46896921814669773 0  1.3988867527790494 0.4748533833150505 0  1.2886434499174442 0.47769710086725431 0  1.1788981456995469 0.47583302367240421 0  1.0711243128543924 0.46973071400114447 0  0.96610687828671638 0.45947514926812838 0  0.86438340379675216 0.44534208736587927 0  0.76647178661670889 0.42763063037120791 0  0.67286173256970117 0.40669905886370494 0  0.58401083365792983 0.38294713694683113 0  0.50033971422637158 0.35681003070877937 0  0.42222881227776715 0.32874863710039709 0  0.3500160173239299 0.29923998882934372 0  0.28399526155741334 0.2687672704076543 0  0.22441589448242413 0.23780976186951733 0  0.17148257288932464 0.2068327919317694 0  0.12535534393716558 0.17627772491564095 0  0.086149084481996804 0.14655139344200355 0  0.053932628096484539 0.11801351150152098 0  0.028724868996527517 0.090959234191313687 0  0.010500668558137685 0.065579223423582092 0  -0.00077302143630185764 0.041911664804802747 0  -0.0049111260496725716 0.019761988091473871 0  -0.001220731442782269 -0.00048951572184194683 0  0.010048987094751367 -0.017668277473954355 0  0.028066415660131898 -0.030950003619520126 0  0.052009069414585017 -0.040728278224422286 0  0.081806013941760194 -0.047475171252148653 0  0.11740533318348627 -0.051419853223597975 0  0.15868510074456718 -0.052742555398553492 0  0.20546286168713099 -0.051625464030737221 0  0.25751938744058289 -0.048274655752174489 0  0.31461322165786448 -0.042920748102624889 0  0.37648951263291952 -0.035817265830365166 0  0.44288634669247456 -0.027237508563479892 0  0.51353924481839441 -0.017471266641394732 0  0.58818455971552241 -0.0068214989328193266 0  0.66656186324430555 0.0043990174898525594 0  0.74841535680273708 0.015871104664108522 0  0.83349428449614504 0.027272608867396485 0  0.92155249844218867 0.03828251752431644 0  1.012346503284544 0.048582616048382481 0  1.1056344163493714 0.057871347436827918 0  1.2011705426129955 0.06582812239688543 0  1.2989360198355802 0.072292536921633885 0  1.3995688051901312 0.076640629404798905 0  1.5026854787069441 0.080165110684961821 0  1.6076867265721522 0.083328276612616659 0  1.7133024980994522 0.085810606691478941 0  1.8191416927240689 0.087563103784842486 0  1.9248153232375693 0.08849947312296931 0  2.0299229902138518 0.088572811846957283 0  2.134062559286245 0.087756463210800648 0  2.2368279111979792 0.086049178568443477 0  2.3378125328912454 0.083473261198809365 0  2.436610884367183 0.0800735542995685 0  2.532820627357999 0.075915529769769133 0  2.6260446450502561 0.071082947788311923 0  2.715893118520103 0.065675125132765452 0  2.801985580235423 0.059803936018457904 0  2.883952951141167 0.053590658991517798 0  2.9614395599130194 0.047162779452528884 0  3.0341051494376821 0.040650846691661101 0  3.1016268507180342 0.0341854730193695 0  3.1637013164044538 0.027894518387855474 0  3.2200458400011112 0.021900657362566862 0  3.2704037953251577 0.016318685103161291 0  3.3145351646141719 0.011254998305471685 0  3.3522474480533209 0.0068022862814124787 0  3.383337421305026 0.0030456860495092063 0  3.4076917091095704 4.9366057204700329e-05 0  3.4251573949019489 -0.0021283065834422519 0  3.4356781015180902 -0.0034512607948636491 0  3.4403618334704111 -0.0040431301182950125 0  3.4415341893623745 -0.0041912772491511487 0 
 0 4 0.00049739984301800169 1 0.00198741502815918 1 0.0044635102977900153 1 0.0079148522906514057 1 0.012326395880791562 1 0.017679001628741791 1 0.023949581151797125 1 0.031111266611454625 1 0.039133600095283015 1 0.047982738444039219 1 0.057621669037433883 1 0.068010432190637585 1 0.079106346111928252 1 0.090864230813156949 1 0.10323662793382841 1 0.11617401412241497 1 0.129625006399325 1 0.14353655878335592 1 0.15785415036621575 1 0.17252196592359864 1 0.18748307099874312 1 0.20267958411747308 1 0.21805284932105037 1 0.2335436124699419 1 0.24909220473126328 1 0.26463873629818824 1 0.28012330272223812 1 0.29548620533261971 1 0.31104957869740602 1 0.3264784133363568 1 0.34162084310623081 1 0.35642269447770392 1 0.37082983330862862 1 0.38478841506599898 1 0.39824519846949297 1 0.41114792049166898 1 0.4234457334204193 1 0.43508970918060325 1 0.44603342303631127 1 0.45623363983425413 1 0.46565114465521051 1 0.47425179342967533 1 0.48200792301895584 1 0.48890038732574265 1 0.49492174892025381 1 0.50008171570891213 1 0.5044170938122049 1 0.50801066881149448 1 0.51102448248994026 1 0.51373719851529775 1 0.51644948617691111 1 0.51945299174717252 1 0.52300710312720133 1 0.52725421012781593 1 0.53225968459411821 1 0.5380450386039779 1 0.54460658329338163 1 0.55192538423716675 1 0.55997284499919975 1 0.56871411270903072 1 0.57811034666456584 1 0.58812034627883336 1 0.59870177875637987 1 0.60981212356491643 1 0.62140938996361605 1 0.63345263395937756 1 0.64590228737462307 1 0.65872030704952556 1 0.6718701528262635 1 0.68531660670748029 1 0.6990254509944126 1 0.7130608787820506 1 0.72766469754508867 1 0.74240472119014456 1 0.75722816342908195 1 0.7720813709306984 1 0.78690993897978068 1 0.8016588405242876 1 0.8162725697230786 1 0.83069530104595679 1 0.84487106493198205 1 0.85874394092667017 1 0.87225826905527759 1 0.88535887992530748 1 0.89799134367799749 1 0.91010223742768348 1 0.92163943024868977 1 0.93255238410553998 1 0.94279246839147035 1 0.9523132849642475 1 0.96107099977450028 1 0.96902467640447243 1 0.976136606116213 1 0.98237262839640516 1 0.98770243553302772 1 0.99209985451897442 1 0.995543099595391 1 0.99801498905577624 1 0.99950312054529189 1 1 4
7 0 0  1 2 2  6.1876510533307361 0.52969949237428549 -7.745966692414834  3.4437695372285884 0.0041912772491511487 0 
 0 2 1 2
7 0 0  3 103 101  6.1876510533307361 0.52969949237428549 -7.745966692414834  6.1871270834682459 0.52997386184752326 -7.745966692414834  6.1850334052103815 0.53107018715555476 -7.745966692414834  6.1803264676718079 0.53352723495107179 -7.745966692414834  6.172501095859829 0.53759034324971211 -7.745966692414834  6.1615654212804856 0.54322164543490614 -7.745966692414834  6.1475652065189772 0.55035249122997365 -7.745966692414834  6.1305230751141933 0.55891495782179246 -7.745966692414834  6.1104976576607193 0.56881281014723406 -7.745966692414834  6.0875393478039577 0.57994596930160758 -7.745966692414834  6.061717570019912 0.59219796784592682 -7.745966692414834  6.0331079512550954 0.60544439602407296 -7.745966692414834  6.0017976755874365 0.61955188619888124 -7.745966692414834  5.967884076285328 0.63438061874505236 -7.745966692414834  5.9314751217260291 0.64978578241385399 -7.745966692414834  5.8926893726962479 0.66561922373256044 -7.745966692414834  5.8516559385428009 0.68173098690422085 -7.745966692414834  5.8085143478587522 0.69797077622961023 -7.745966692414834  5.7634143498333348 0.71418933053593614 -7.745966692414834  5.7165156526337215 0.73023971300935098 -7.745966692414834  5.6679876045970028 0.74597852646697371 -7.745966692414834  5.6180088283805576 0.76126706926851173 -7.745966692414834  5.5667667771998373 0.77597244849579738 -7.745966692414834  5.5144573502285823 0.78996868730291925 -7.745966692414834  5.4612840450491653 0.80313771179705506 -7.745966692414834  5.407458224722153 0.81537094740365879 -7.745966692414834  5.3531962092004921 0.82656814979520643 -7.745966692414834  5.2987235321611257 0.83664775490004839 -7.745966692414834  5.2442623515242976 0.84551213711828321 -7.745966692414834  5.1896108684752056 0.85324685284823465 -7.745966692414834  5.1348228958131958 0.85946747905665699 -7.745966692414834  5.0800778188684461 0.863321463453393 -7.745966692414834  5.0261300330550283 0.86497848282393708 -7.745966692414834  4.9733742115196469 0.86444665868068105 -7.745966692414834  4.9220901293318029 0.86183991945105298 -7.745966692414834  4.8725487839838326 0.8572846781803386 -7.745966692414834  4.8250097097804749 0.85093805309277848 -7.745966692414834  4.7797182529849254 0.84297922470031561 -7.745966692414834  4.7369028891148108 0.83360661812439507 -7.745966692414834  4.696773198275987 0.82303322619948927 -7.745966692414834  4.6595182704474345 0.81148193311400485 -7.745966692414834  4.6253055686673488 0.79918060282397907 -7.745966692414834  4.594280179306212 0.78635709729794778 -7.745966692414834  4.5665643194426337 0.7732342770075854 -7.745966692414834  4.5422569418970307 0.76002500981947874 -7.745966692414834  4.5214329954609864 0.74692693188165138 -7.745966692414834  4.5041424415553353 0.73411621614997213 -7.745966692414834  4.4904075535953014 0.72173905522227633 -7.745966692414834  4.4802241187559693 0.70989151278005302 -7.745966692414834  4.4735773398587728 0.69859404914621903 -7.745966692414834  4.4705509232638985 0.68774168421186888 -7.745966692414834  4.4715065798175999 0.67749364413997248 -7.745966692414834  4.4763713812965031 0.66844583725743856 -7.745966692414834  4.4847670240562731 0.66104508202375345 -7.745966692414834  4.4962666789953287 0.65513117747208094 -7.745966692414834  4.5108144420242802 0.6504720779856723 -7.745966692414834  4.5283744671091695 0.6469558967331499 -7.745966692414834  4.5488781689263744 0.64449817430653789 -7.745966692414834  4.5722267278514392 0.6430161152308862 -7.745966692414834  4.5983019663173028 0.64241662681715916 -7.745966692414834  4.6269735657178908 0.64259536125653871 -7.745966692414834  4.6581035370050428 0.6434371444629402 -7.745966692414834  4.6915495118346167 0.64481726028133224 -7.745966692414834  4.7271671254394843 0.64660289036969765 -7.745966692414834  4.7648118534738986 0.64865462093180293 -7.745966692414834  4.8043403471876918 0.65082800746603298 -7.745966692414834  4.8456112848533186 0.65297521545862769 -7.745966692414834  4.8884857268248005 0.65494670842677249 -7.745966692414834  4.932827078423716 0.65659331748224592 -7.745966692414834  4.9785001881184447 0.6577671518159981 -7.745966692414834  5.0253714335537119 0.65832854743973446 -7.745966692414834  5.0733044640645844 0.65812852656653154 -7.745966692414834  5.1222828943404224 0.65708801436488684 -7.745966692414834  5.1725972981801878 0.65486841634646664 -7.745966692414834  5.224113028815343 0.65213033700267364 -7.745966692414834  5.2765517155378125 0.6491301615399917 -7.745966692414834  5.3292668254263891 0.64576408386454309 -7.745966692414834  5.3820614171343406 0.64202474199690229 -7.745966692414834  5.4347379766174155 0.63788610401003409 -7.745966692414834  5.4870950220551293 0.6333422563041109 -7.745966692414834  5.5389310897419737 0.62839744541948073 -7.745966692414834  5.5900438383423987 0.62306874725690242 -7.745966692414834  5.6402317567144085 0.61738498602939829 -7.745966692414834  5.6892948006377217 0.61138617061967193 -7.745966692414834  5.7370354196224778 0.60512244548683825 -7.745966692414834  5.7832594609372459 0.59865283689326554 -7.745966692414834  5.8277770848348052 0.59204380177463256 -7.745966692414834  5.8704036566987963 0.58536764437842215 -7.745966692414834  5.9109606243045443 0.5787008569377079 -7.745966692414834  5.9492763842644525 0.57212243902173554 -7.745966692414834  5.9851871444865044 0.56571224459516301 -7.745966692414834  6.0185377765994215 0.55954940127428276 -7.745966692414834  6.0491827559704907 0.5537108150195178 -7.745966692414834  6.0769866131528287 0.54826990947766885 -7.745966692414834  6.1018265258656976 0.54329504705766829 -7.745966692414834  6.1235875784505103 0.53884968315489257 -7.745966692414834  6.1421779264722431 0.53498837481809158 -7.745966692414834  6.1575000545260741 0.53176238467156089 -7.745966692414834  6.1695002870264819 0.52920861551071752 -7.745966692414834  6.1781050001585509 0.52736280363059984 -7.745966692414834  6.1832876845106526 0.52624537274075267 -7.745966692414834  6.1855948464874215 0.52574645672852649 -7.745966692414834  6.1861723378909383 0.52562157616032268 -7.745966692414834 
 0 4 0.00049739984301800169 1 0.00198741502815918 1 0.0044635102977900153 1 0.0079148522906514057 1 0.012326395880791562 1 0.017679001628741791 1 0.023949581151797125 1 0.031111266611454625 1 0.039133600095283015 1 0.047982738444039219 1 0.057621669037433883 1 0.068010432190637585 1 0.079106346111928252 1 0.090864230813156949 1 0.10323662793382841 1 0.11617401412241497 1 0.129625006399325 1 0.14353655878335592 1 0.15785415036621575 1 0.17252196592359864 1 0.18748307099874312 1 0.20267958411747308 1 0.21805284932105037 1 0.2335436124699419 1 0.24909220473126328 1 0.26463873629818824 1 0.28012330272223812 1 0.29548620533261971 1 0.31104957869740602 1 0.3264784133363568 1 0.34162084310623081 1 0.35642269447770392 1 0.37082983330862862 1 0.38478841506599898 1 0.39824519846949297 1 0.41114792049166898 1 0.4234457334204193 1 0.43508970918060325 1 0.44603342303631127 1 0.45623363983425413 1 0.46565114465521051 1 0.47425179342967533 1 0.48200792301895584 1 0.48890038732574265 1 0.49492174892025381 1 0.50008171570891213 1 0.5044170938122049 1 0.50801066881149448 1 0.51102448248994026 1 0.51373719851529775 1 0.51644948617691111 1 0.51945299174717252 1 0.52300710312720133 1 0.52725421012781593 1 0.53225968459411821 1 0.5380450386039779 1 0.54460658329338163 1 0.55192538423716675 1 0.55997284499919975 1 0.56871411270903072 1 0.57811034666456584 1 0.58812034627883336 1 0.59870177875637987 1 0.60981212356491643 1 0.62140938996361605 1 0.63345263395937756 1 0.64590228737462307 1 0.65872030704952556 1 0.6718701528262635 1 0.68531660670748029 1 0.6990254509944126 1 0.7130608787820506 1 0.72766469754508867 1 0.74240472119014456 1 0.75722816342908195 1 0.7720813709306984 1 0.78690993897978068 1 0.8016588405242876 1 0.8162725697230786 1 0.83069530104595679 1 0.84487106493198205 1 0.85874394092667017 1 0.87225826905527759 1 0.88535887992530748 1 0.89799134367799749 1 0.91010223742768348 1 0.92163943024868977 1 0.93255238410553998 1 0.94279246839147035 1 0.9523132849642475 1 0.96107099977450028 1 0.96902467640447243 1 0.976136606116213 1 0.98237262839640516 1 0.98770243553302772 1 0.99209985451897442 1 0.995543099595391 1 0.99801498905577624 1 0.99950312054529189 1 1 4
7 0 0  1 2 2  6.1861723378909383 0.52562157616032268 -7.745966692414834  3.4415341893623745 -0.0041912772491511487 0 
 0 2 1 2
7 0 0  3 103 101  3.4437695372285884 0.0041912772491511487 0  3.4426777594007194 0.0046465939226297374 0  3.4383152346301635 0.0064659479124375471 0  3.4285088898274343 0.010540868900129405 0  3.4122094543899686 0.017272107759998226 0  3.3894397300432786 0.026585636865598672 0  3.360302860231049 0.038352655095835776 0  3.3248557596016513 0.052441777310690683 0  3.2832320180385226 0.068671485800198634 0  3.2355494842422066 0.08685116862763001 0  3.1819667804532208 0.10676087881377463 0  3.1226562710882217 0.12816592635523277 0  3.0578149083342665 0.15081578820643377 0  2.9876609901754438 0.17444885557325443 0  2.9124348739726833 0.19879542822944934 0  2.8323986038800477 0.22358099331954009 0  2.7478355550570259 0.24852928579527833 0  2.6590499211075178 0.27336517958865469 0  2.5663660787123388 0.29781739138197622 0  2.4701278415507848 0.32162100485329714 0  2.37069761327461 0.34451983639945793 0  2.2684554571040518 0.3662686743901909 0  2.1637980176403433 0.38663541970218473 0  2.0571375615689638 0.40540322495141684 0  1.9489001169856996 0.42237231300609623 0  1.8395257272378762 0.43736320412107033 0  1.7294628596718462 0.45021387969176574 0  1.6191750827700246 0.46080114551788315 0  1.5091220389075166 0.46896921814669773 0  1.3988867527790494 0.4748533833150505 0  1.2886434499174442 0.47769710086725431 0  1.1788981456995469 0.47583302367240421 0  1.0711243128543924 0.46973071400114447 0  0.96610687828671638 0.45947514926812838 0  0.86438340379675216 0.44534208736587927 0  0.76647178661670889 0.42763063037120791 0  0.67286173256970117 0.40669905886370494 0  0.58401083365792983 0.38294713694683113 0  0.50033971422637158 0.35681003070877937 0  0.42222881227776715 0.32874863710039709 0  0.3500160173239299 0.29923998882934372 0  0.28399526155741334 0.2687672704076543 0  0.22441589448242413 0.23780976186951733 0  0.17148257288932464 0.2068327919317694 0  0.12535534393716558 0.17627772491564095 0  0.086149084481996804 0.14655139344200355 0  0.053932628096484539 0.11801351150152098 0  0.028724868996527517 0.090959234191313687 0  0.010500668558137685 0.065579223423582092 0  -0.00077302143630185764 0.041911664804802747 0  -0.0049111260496725716 0.019761988091473871 0  -0.001220731442782269 -0.00048951572184194683 0  0.010048987094751367 -0.017668277473954355 0  0.028066415660131898 -0.030950003619520126 0  0.052009069414585017 -0.040728278224422286 0  0.081806013941760194 -0.047475171252148653 0  0.11740533318348627 -0.051419853223597975 0  0.15868510074456718 -0.052742555398553492 0  0.20546286168713099 -0.051625464030737221 0  0.25751938744058289 -0.048274655752174489 0  0.31461322165786448 -0.042920748102624889 0  0.37648951263291952 -0.035817265830365166 0  0.44288634669247456 -0.027237508563479892 0  0.51353924481839441 -0.017471266641394732 0  0.58818455971552241 -0.0068214989328193266 0  0.66656186324430555 0.0043990174898525594 0  0.74841535680273708 0.015871104664108522 0  0.83349428449614504 0.027272608867396485 0  0.92155249844218867 0.03828251752431644 0  1.012346503284544 0.048582616048382481 0  1.1056344163493714 0.057871347436827918 0  1.2011705426129955 0.06582812239688543 0  1.2989360198355802 0.072292536921633885 0  1.3995688051901312 0.076640629404798905 0  1.5026854787069441 0.080165110684961821 0  1.6076867265721522 0.083328276612616659 0  1.7133024980994522 0.085810606691478941 0  1.8191416927240689 0.087563103784842486 0  1.9248153232375693 0.08849947312296931 0  2.0299229902138518 0.088572811846957283 0  2.134062559286245 0.087756463210800648 0  2.2368279111979792 0.086049178568443477 0  2.3378125328912454 0.083473261198809365 0  2.436610884367183 0.0800735542995685 0  2.532820627357999 0.075915529769769133 0  2.6260446450502561 0.071082947788311923 0  2.715893118520103 0.065675125132765452 0  2.801985580235423 0.059803936018457904 0  2.883952951141167 0.053590658991517798 0  2.9614395599130194 0.047162779452528884 0  3.0341051494376821 0.040650846691661101 0  3.1016268507180342 0.0341854730193695 0  3.1637013164044538 0.027894518387855474 0  3.2200458400011112 0.021900657362566862 0  3.2704037953251577 0.016318685103161291 0  3.3145351646141719 0.011254998305471685 0  3.3522474480533209 0.0068022862814124787 0  3.383337421305026 0.0030456860495092063 0  3.4076917091095704 4.9366057204700329e-05 0  3.4251573949019489 -0.0021283065834422519 0  3.4356781015180902 -0.0034512607948636491 0  3.4403618334704111 -0.0040431301182950125 0  3.4415341893623745 -0.0041912772491511487 0 
 0 4 0.00049739984301800169 1 0.00198741502815918 1 0.0044635102977900153 1 0.0079148522906514057 1 0.012326395880791562 1 0.017679001628741791 1 0.023949581151797125 1 0.031111266611454625 1 0.039133600095283015 1 0.047982738444039219 1 0.057621669037433883 1 0.068010432190637585 1 0.079106346111928252 1 0.090864230813156949 1 0.10323662793382841 1 0.11617401412241497 1 0.129625006399325 1 0.14353655878335592 1 0.15785415036621575 1 0.17252196592359864 1 0.18748307099874312 1 0.20267958411747308 1 0.21805284932105037 1 0.2335436124699419 1 0.24909220473126328 1 0.26463873629818824 1 0.28012330272223812 1 0.29548620533261971 1 0.31104957869740602 1 0.3264784133363568 1 0.34162084310623081 1 0.35642269447770392 1 0.37082983330862862 1 0.38478841506599898 1 0.39824519846949297 1 0.41114792049166898 1 0.4234457334204193 1 0.43508970918060325 1 0.44603342303631127 1 0.45623363983425413 1 0.46565114465521051 1 0.47425179342967533 1 0.48200792301895584 1 0.48890038732574265 1 0.49492174892025381 1 0.50008171570891213 1 0.5044170938122049 1 0.50801066881149448 1 0.51102448248994026 1 0.51373719851529775 1 0.51644948617691111 1 0.51945299174717252 1 0.52300710312720133 1 0.52725421012781593 1 0.53225968459411821 1 0.5380450386039779 1 0.54460658329338163 1 0.55192538423716675 1 0.55997284499919975 1 0.56871411270903072 1 0.57811034666456584 1 0.58812034627883336 1 0.59870177875637987 1 0.60981212356491643 1 0.62140938996361605 1 0.63345263395937756 1 0.64590228737462307 1 0.65872030704952556 1 0.6718701528262635 1 0.68531660670748029 1 0.6990254509944126 1 0.7130608787820506 1 0.72766469754508867 1 0.74240472119014456 1 0.75722816342908195 1 0.7720813709306984 1 0.78690993897978068 1 0.8016588405242876 1 0.8162725697230786 1 0.83069530104595679 1 0.84487106493198205 1 0.85874394092667017 1 0.87225826905527759 1 0.88535887992530748 1 0.89799134367799749 1 0.91010223742768348 1 0.92163943024868977 1 0.93255238410553998 1 0.94279246839147035 1 0.9523132849642475 1 0.96107099977450028 1 0.96902467640447243 1 0.976136606116213 1 0.98237262839640516 1 0.98770243553302772 1 0.99209985451897442 1 0.995543099595391 1 0.99801498905577624 1 0.99950312054529189 1 1 4
1 6.1861723378909383 0.52562157616032268 -7.745966692414834 0.34089525429279144 0.94010128475641019 0 
1 3.4415341893623745 -0.0041912772491511487 0 0.25766265056033705 0.96623493960124507 0 
Polygon3D 0
PolygonOnTriangulations 0
Surfaces 5
9 0 0 0 0 3 1 53 2 51 2 6.1876510533307361 0.52969949237428549 -7.745966692414834  3.4437695372285884 0.0041912772491511487 0  
6.1871270834682459 0.52997386184752326 -7.745966692414834  3.4426777594007194 0.0046465939226297374 0  
6.1850334052103815 0.53107018715555476 -7.745966692414834  3.4383152346301635 0.0064659479124375471 0  
6.1803264676718079 0.53352723495107179 -7.745966692414834  3.4285088898274343 0.010540868900129405 0  
6.172501095859829 0.53759034324971211 -7.745966692414834  3.4122094543899686 0.017272107759998226 0  
6.1615654212804856 0.54322164543490614 -7.745966692414834  3.3894397300432786 0.026585636865598672 0  
6.1475652065189772 0.55035249122997365 -7.745966692414834  3.360302860231049 0.038352655095835776 0  
6.1305230751141933 0.55891495782179246 -7.745966692414834  3.3248557596016513 0.052441777310690683 0  
6.1104976576607193 0.56881281014723406 -7.745966692414834  3.2832320180385226 0.068671485800198634 0  
6.0875393478039577 0.57994596930160758 -7.745966692414834  3.2355494842422066 0.08685116862763001 0  
6.061717570019912 0.59219796784592682 -7.745966692414834  3.1819667804532208 0.10676087881377463 0  
6.0331079512550954 0.60544439602407296 -7.745966692414834  3.1226562710882217 0.12816592635523277 0  
6.0017976755874365 0.61955188619888124 -7.745966692414834  3.0578149083342665 0.15081578820643377 0  
5.967884076285328 0.63438061874505236 -7.745966692414834  2.9876609901754438 0.17444885557325443 0  
5.9314751217260291 0.64978578241385399 -7.745966692414834  2.9124348739726833 0.19879542822944934 0  
5.8926893726962479 0.66561922373256044 -7.745966692414834  2.8323986038800477 0.22358099331954009 0  
5.8516559385428009 0.68173098690422085 -7.745966692414834  2.7478355550570259 0.24852928579527833 0  
5.8085143478587522 0.69797077622961023 -7.745966692414834  2.6590499211075178 0.27336517958865469 0  
5.7634143498333348 0.71418933053593614 -7.745966692414834  2.5663660787123388 0.29781739138197622 0  
5.7165156526337215 0.73023971300935098 -7.745966692414834  2.4701278415507848 0.32162100485329714 0  
5.6679876045970028 0.74597852646697371 -7.745966692414834  2.37069761327461 0.34451983639945793 0  
5.6180088283805576 0.76126706926851173 -7.745966692414834  2.2684554571040518 0.3662686743901909 0  
5.5667667771998373 0.77597244849579738 -7.745966692414834  2.1637980176403433 0.38663541970218473 0  
5.5144573502285823 0.78996868730291925 -7.745966692414834  2.0571375615689638 0.40540322495141684 0  
5.4612840450491653 0.80313771179705506 -7.745966692414834  1.9489001169856996 0.42237231300609623 0  
5.407458224722153 0.81537094740365879 -7.745966692414834  1.8395257272378762 0.43736320412107033 0  
5.3531962092004921 0.82656814979520643 -7.745966692414834  1.7294628596718462 0.45021387969176574 0  
5.2987235321611257 0.83664775490004839 -7.745966692414834  1.6191750827700246 0.46080114551788315 0  
5.2442623515242976 0.84551213711828321 -7.745966692414834  1.5091220389075166 0.46896921814669773 0  
5.1896108684752056 0.85324685284823465 -7.745966692414834  1.3988867527790494 0.4748533833150505 0  
5.1348228958131958 0.85946747905665699 -7.745966692414834  1.2886434499174442 0.47769710086725431 0  
5.0800778188684461 0.863321463453393 -7.745966692414834  1.1788981456995469 0.47583302367240421 0  
5.0261300330550283 0.86497848282393708 -7.745966692414834  1.0711243128543924 0.46973071400114447 0  
4.9733742115196469 0.86444665868068105 -7.745966692414834  0.96610687828671638 0.45947514926812838 0  
4.9220901293318029 0.86183991945105298 -7.745966692414834  0.86438340379675216 0.44534208736587927 0  
4.8725487839838326 0.8572846781803386 -7.745966692414834  0.76647178661670889 0.42763063037120791 0  
4.8250097097804749 0.85093805309277848 -7.745966692414834  0.67286173256970117 0.40669905886370494 0  
4.7797182529849254 0.84297922470031561 -7.745966692414834  0.58401083365792983 0.38294713694683113 0  
4.7369028891148108 0.83360661812439507 -7.745966692414834  0.50033971422637158 0.35681003070877937 0  
4.696773198275987 0.82303322619948927 -7.745966692414834  0.42222881227776715 0.32874863710039709 0  
4.6595182704474345 0.81148193311400485 -7.745966692414834  0.3500160173239299 0.29923998882934372 0  
4.6253055686673488 0.79918060282397907 -7.745966692414834  0.28399526155741334 0.2687672704076543 0  
4.594280179306212 0.78635709729794778 -7.745966692414834  0.22441589448242413 0.23780976186951733 0  
4.5665643194426337 0.7732342770075854 -7.745966692414834  0.17148257288932464 0.2068327919317694 0  
4.5422569418970307 0.76002500981947874 -7.745966692414834  0.12535534393716558 0.17627772491564095 0  
4.5214329954609864 0.74692693188165138 -7.745966692414834  0.086149084481996804 0.14655139344200355 0  
4.5041424415553353 0.73411621614997213 -7.745966692414834  0.053932628096484539 0.11801351150152098 0  
4.4904075535953014 0.72173905522227633 -7.745966692414834  0.028724868996527517 0.090959234191313687 0  
4.4802241187559693 0.70989151278005302 -7.745966692414834  0.010500668558137685 0.065579223423582092 0  
4.4735773398587728 0.69859404914621903 -7.745966692414834  -0.00077302143630185764 0.041911664804802747 0  
4.4705509232638985 0.68774168421186888 -7.745966692414834  -0.0049111260496725716 0.019761988091473871 0  
4.4711994259836878 0.68078742660395319 -7.745966692414834  -0.0024068467346885238 0.0060194408846475159 0  
4.4721359453605505 0.67768427121426367 -7.745966692414834  -1.8782615283192625e-08 -6.5046327551651628e-09 0  

0 4
0.00049739984301800169 1
0.00198741502815918 1
0.0044635102977900153 1
0.0079148522906514057 1
0.012326395880791562 1
0.017679001628741791 1
0.023949581151797125 1
0.031111266611454625 1
0.039133600095283015 1
0.047982738444039219 1
0.057621669037433883 1
0.068010432190637585 1
0.079106346111928252 1
0.090864230813156949 1
0.10323662793382841 1
0.11617401412241497 1
0.129625006399325 1
0.14353655878335592 1
0.15785415036621575 1
0.17252196592359864 1
0.18748307099874312 1
0.20267958411747308 1
0.21805284932105037 1
0.2335436124699419 1
0.24909220473126328 1
0.26463873629818824 1
0.28012330272223812 1
0.29548620533261971 1
0.31104957869740602 1
0.3264784133363568 1
0.34162084310623081 1
0.35642269447770392 1
0.37082983330862862 1
0.38478841506599898 1
0.39824519846949297 1
0.41114792049166898 1
0.4234457334204193 1
0.43508970918060325 1
0.44603342303631127 1
0.45623363983425413 1
0.46565114465521051 1
0.47425179342967533 1
0.48200792301895584 1
0.48890038732574265 1
0.49492174892025381 1
0.50008171570891213 1
0.5044170938122049 1
0.50801066881149448 1
0.51102448248994026 1
0.51373719851529775 4

0 2
1 2

9 0 0 0 0 3 1 53 2 51 2 4.4721359453605505 0.67768427121426367 -7.745966692414834  -1.8782615283192625e-08 -6.5046327551651628e-09 0  
4.4730723165834103 0.67458160673261414 -7.745966692414834  0.002406428417918288 -0.0060185016389504497 0  
4.4763713812965031 0.66844583725743856 -7.745966692414834  0.010048987094751367 -0.017668277473954355 0  
4.4847670240562731 0.66104508202375345 -7.745966692414834  0.028066415660131898 -0.030950003619520126 0  
4.4962666789953287 0.65513117747208094 -7.745966692414834  0.052009069414585017 -0.040728278224422286 0  
4.5108144420242802 0.6504720779856723 -7.745966692414834  0.081806013941760194 -0.047475171252148653 0  
4.5283744671091695 0.6469558967331499 -7.745966692414834  0.11740533318348627 -0.051419853223597975 0  
4.5488781689263744 0.64449817430653789 -7.745966692414834  0.15868510074456718 -0.052742555398553492 0  
4.5722267278514392 0.6430161152308862 -7.745966692414834  0.20546286168713099 -0.051625464030737221 0  
4.5983019663173028 0.64241662681715916 -7.745966692414834  0.25751938744058289 -0.048274655752174489 0  
4.6269735657178908 0.64259536125653871 -7.745966692414834  0.31461322165786448 -0.042920748102624889 0  
4.6581035370050428 0.6434371444629402 -7.745966692414834  0.37648951263291952 -0.035817265830365166 0  
4.6915495118346167 0.64481726028133224 -7.745966692414834  0.44288634669247456 -0.027237508563479892 0  
4.7271671254394843 0.64660289036969765 -7.745966692414834  0.51353924481839441 -0.017471266641394732 0  
4.7648118534738986 0.64865462093180293 -7.745966692414834  0.58818455971552241 -0.0068214989328193266 0  
4.8043403471876918 0.65082800746603298 -7.745966692414834  0.66656186324430555 0.0043990174898525594 0  
4.8456112848533186 0.65297521545862769 -7.745966692414834  0.74841535680273708 0.015871104664108522 0  
4.8884857268248005 0.65494670842677249 -7.745966692414834  0.83349428449614504 0.027272608867396485 0  
4.932827078423716 0.65659331748224592 -7.745966692414834  0.92155249844218867 0.03828251752431644 0  
4.9785001881184447 0.6577671518159981 -7.745966692414834  1.012346503284544 0.048582616048382481 0  
5.0253714335537119 0.65832854743973446 -7.745966692414834  1.1056344163493714 0.057871347436827918 0  
5.0733044640645844 0.65812852656653154 -7.745966692414834  1.2011705426129955 0.06582812239688543 0  
5.1222828943404224 0.65708801436488684 -7.745966692414834  1.2989360198355802 0.072292536921633885 0  
5.1725972981801878 0.65486841634646664 -7.745966692414834  1.3995688051901312 0.076640629404798905 0  
5.224113028815343 0.65213033700267364 -7.745966692414834  1.5026854787069441 0.080165110684961821 0  
5.2765517155378125 0.6491301615399917 -7.745966692414834  1.6076867265721522 0.083328276612616659 0  
5.3292668254263891 0.64576408386454309 -7.745966692414834  1.7133024980994522 0.085810606691478941 0  
5.3820614171343406 0.64202474199690229 -7.745966692414834  1.8191416927240689 0.087563103784842486 0  
5.4347379766174155 0.63788610401003409 -7.745966692414834  1.9248153232375693 0.08849947312296931 0  
5.4870950220551293 0.6333422563041109 -7.745966692414834  2.0299229902138518 0.088572811846957283 0  
5.5389310897419737 0.62839744541948073 -7.745966692414834  2.134062559286245 0.087756463210800648 0  
5.5900438383423987 0.62306874725690242 -7.745966692414834  2.2368279111979792 0.086049178568443477 0  
5.6402317567144085 0.61738498602939829 -7.745966692414834  2.3378125328912454 0.083473261198809365 0  
5.6892948006377217 0.61138617061967193 -7.745966692414834  2.436610884367183 0.0800735542995685 0  
5.7370354196224778 0.60512244548683825 -7.745966692414834  2.532820627357999 0.075915529769769133 0  
5.7832594609372459 0.59865283689326554 -7.745966692414834  2.6260446450502561 0.071082947788311923 0  
5.8277770848348052 0.59204380177463256 -7.745966692414834  2.715893118520103 0.065675125132765452 0  
5.8704036566987963 0.58536764437842215 -7.745966692414834  2.801985580235423 0.059803936018457904 0  
5.9109606243045443 0.5787008569377079 -7.745966692414834  2.883952951141167 0.053590658991517798 0  
5.9492763842644525 0.57212243902173554 -7.745966692414834  2.9614395599130194 0.047162779452528884 0  
5.9851871444865044 0.56571224459516301 -7.745966692414834  3.0341051494376821 0.040650846691661101 0  
6.0185377765994215 0.55954940127428276 -7.745966692414834  3.1016268507180342 0.0341854730193695 0  
6.0491827559704907 0.5537108150195178 -7.745966692414834  3.1637013164044538 0.027894518387855474 0  
6.0769866131528287 0.54826990947766885 -7.745966692414834  3.2200458400011112 0.021900657362566862 0  
6.1018265258656976 0.54329504705766829 -7.745966692414834  3.2704037953251577 0.016318685103161291 0  
6.1235875784505103 0.53884968315489257 -7.745966692414834  3.3145351646141719 0.011254998305471685 0  
6.1421779264722431 0.53498837481809158 -7.745966692414834  3.3522474480533209 0.0068022862814124787 0  
6.1575000545260741 0.53176238467156089 -7.745966692414834  3.383337421305026 0.0030456860495092063 0  
6.1695002870264819 0.52920861551071752 -7.745966692414834  3.4076917091095704 4.9366057204700329e-05 0  
6.1781050001585509 0.52736280363059984 -7.745966692414834  3.4251573949019489 -0.0021283065834422519 0  
6.1832876845106526 0.52624537274075267 -7.745966692414834  3.4356781015180902 -0.0034512607948636491 0  
6.1855948464874215 0.52574645672852649 -7.745966692414834  3.4403618334704111 -0.0040431301182950125 0  
6.1861723378909383 0.52562157616032268 -7.745966692414834  3.4415341893623745 -0.0041912772491511487 0  

0.51373719851529775 4
0.51644948617691111 1
0.51945299174717252 1
0.52300710312720133 1
0.52725421012781593 1
0.53225968459411821 1
0.5380450386039779 1
0.54460658329338163 1
0.55192538423716675 1
0.55997284499919975 1
0.56871411270903072 1
0.57811034666456584 1
0.58812034627883336 1
0.59870177875637987 1
0.60981212356491643 1
0.62140938996361605 1
0.63345263395937756 1
0.64590228737462307 1
0.65872030704952556 1
0.6718701528262635 1
0.68531660670748029 1
0.6990254509944126 1
0.7130608787820506 1
0.72766469754508867 1
0.74240472119014456 1
0.75722816342908195 1
0.7720813709306984 1
0.78690993897978068 1
0.8016588405242876 1
0.8162725697230786 1
0.83069530104595679 1
0.84487106493198205 1
0.85874394092667017 1
0.87225826905527759 1
0.88535887992530748 1
0.89799134367799749 1
0.91010223742768348 1
0.92163943024868977 1
0.93255238410553998 1
0.94279246839147035 1
0.9523132849642475 1
0.96107099977450028 1
0.96902467640447243 1
0.976136606116213 1
0.98237262839640516 1
0.98770243553302772 1
0.99209985451897442 1
0.995543099595391 1
0.99801498905577624 1
0.99950312054529189 1
1 4

0 2
1 2

9 0 0 0 0 1 1 2 2 2 2 6.1861723378909383 0.52562157616032268 -7.745966692414834  3.4415341893623745 -0.0041912772491511487 0  
6.1876510533307369 0.52969949237428549 -7.745966692414834  3.4437695372285884 0.0041912772491511487 0  

0 2
0.0086754826955043555 2

0 2
1 2

1 6.1876510533307361 0.52969949237428549 -7.745966692414834 0 0 -1 -0.99536213270006801 0.096198881421626706 0 0.096198881421626706 0.99536213270006801 0 
1 3.4437695372285884 0.0041912772491511487 0 0 0 -1 -0.99995876582386478 0.0090811151304850991 0 0.0090811151304850991 0.99995876582386478 0 
Triangulations 0

TShapes 28
Ve
1.72132593164774e-07
6.18765105333074 0.529699492374285 -7.74596669241483
0 0

0101101
*
Ve
1.72132593164774e-07
4.47213595499958 0.677684273635696 -7.74596669241483
0 0

0101101
*
Ed
 1e-07 1 1 0
1  1 0 0 0.513737198904424
2  1 1 0 0 0.513737198904424
0

0101000
+28 0 -27 0 *
Ve
3.44265186329548e-07
0 0 0
0 0

0101101
*
Ed
 1e-07 1 1 0
1  2 0 0 1
2  2 1 0 0 1
2  3 2 0 0 1
4 G1 1 0 2 0
0

0101000
+27 0 -25 0 *
Ve
3.44265186329548e-07
3.44376953722859 0.00419127724915115 0
0 0

0101101
*
Ed
 1e-07 1 1 0
1  3 0 0 0.513737198904424
2  4 1 0 0 0.513737198904424
0

0101000
+23 0 -25 0 *
Ed
 1e-07 1 1 0
1  4 0 0 1
2  5 1 0 0 1
2  6 3 0 0 1
0

0101000
+28 0 -23 0 *
Wi

0101000
+26 0 +24 0 -22 0 -21 0 *
Fa
0  1e-07 1 0

0111000
+20 0 *
Ve
1.72132593164774e-07
6.18617233789094 0.525621576160323 -7.74596669241483
0 0

0101101
*
Ed
 1e-07 1 1 0
1  5 0 0.513737198904424 1
2  7 2 0 0.513737198904424 1
0

0101000
+27 0 -18 0 *
Ve
3.44265186329548e-07
3.44153418936237 -0.00419127724915115 0
0 0

0101101
*
Ed
 1e-07 1 1 0
1  6 0 0 1
2  8 2 0 0 1
2  9 3 0 0 1
0

0101000
+18 0 -16 0 *
Ed
 1e-07 1 1 0
1  7 0 0.513737198904424 1
2  10 2 0 0.513737198904424 1
0

0101000
+25 0 -16 0 *
Wi

0101000
+17 0 +15 0 -14 0 -24 0 *
Fa
0  1e-07 2 0

0111000
+13 0 *
Ed
 1e-07 1 1 0
1  8 0 0 0.00433774134775218
2  11 3 0 0 0.00433774134775218
0

0101000
+18 0 -28 0 *
Ed
 1e-07 1 1 0
1  9 0 0 0.00867548269550436
2  12 3 0 0 0.00867548269550436
0

0101000
+16 0 -23 0 *
Wi

0101000
+11 0 +21 0 -10 0 -15 0 *
Fa
0  1e-07 3 0

0111000
+9 0 *
Wi

0101100
+26 0 +17 0 +11 0 *
Fa
0  1e-07 4 0

0111000
-7 0 *
Wi

0101100
+22 0 +14 0 +10 0 *
Fa
0  1e-07 5 0

0111000
-5 0 *
Sh

0101100
+19 0 +12 0 +8 0 +6 0 -4 0 *
So

0100100
+3 0 *
Co

1100000
+2 0 *

+1 0 
##EGADS HEADER FILE-REV 1 ##
13
2 15 1
_cfgpmtr_series
 8.412000000000e+03
2 14 1
_cfgpmtr_nspar
 3.000000000000e+00
2 13 1
_cfgpmtr_nrib
 8.000000000000e+00
2 13 1
_despmtr_area
 4.000000000000e+01
2 15 1
_despmtr_aspect
 6.000000000000e+00
2 14 1
_despmtr_taper
 5.000000000000e-01
2 14 1
_despmtr_twist
 5.000010000000e+00
2 16 1
_despmtr_lesweep
 3.000000000000e+01
2 17 1
_despmtr_dihedral
 5.000000000000e+00
2 18 4
_cfgpmtr_rootFaces
 1.310000000000e+02  1.300000000000e+02  1.420000000000e+02  1.480000000000e+02 
2 18 11
_cfgpmtr_rootEdges
 2.000000000000e+02  1.920000000000e+02  1.790000000000e+02  1.770000000000e+02  1.760000000000e+02  1.690000000000e+02  1.870000000000e+02  1.970000000000e+02  1.950000000000e+02  1.600000000000e+02  1.820000000000e+02 
2 20 36
_cfgpmtr_bottomFaces
 1.250000000000e+02  1.220000000000e+02  1.370000000000e+02  1.450000000000e+02  1.090000000000e+02  1.060000000000e+02  1.230000000000e+02  1.380000000000e+02  9.300000000000e+01  9.000000000000e+01  1.070000000000e+02  1.240000000000e+02  7.700000000000e+01  7.400000000000e+01  9.100000000000e+01  1.080000000000e+02  5.800000000000e+01  5.300000000000e+01  7.500000000000e+01  9.200000000000e+01  3.700000000000e+01  3.200000000000e+01  5.400000000000e+01  7.600000000000e+01  1.600000000000e+01  1.200000000000e+01  3.300000000000e+01  5.500000000000e+01  3.000000000000e+00  2.000000000000e+00  1.400000000000e+01  3.500000000000e+01  1.700000000000e+01  1.500000000000e+01  3.600000000000e+01  5.700000000000e+01 
2 18 9
_cfgpmtr_rootNodes
 8.100000000000e+01  7.500000000000e+01  7.400000000000e+01  8.200000000000e+01  7.800000000000e+01  8.700000000000e+01  8.500000000000e+01  9.000000000000e+01  8.900000000000e+01 
  1  1  5  5  9  6  3
2 3 1
OML
 0.000000000000e+00
1 5 1
_body
7
1 5 1
_brch
17
    2 0 6
1 5 2
_body
7 3 
1 5 2
_brch
17 3 
2 3 1
OML
 0.000000000000e+00
1 5 1
_hist
7
1 7 3
_faceID
7 3 1 
1 9 2
__trace__
7 1 
    2 1 6
1 5 2
_body
7 4 
1 5 2
_brch
17 4 
2 3 1
OML
 0.000000000000e+00
1 5 1
_hist
7
1 7 3
_faceID
7 4 1 
1 9 2
__trace__
7 2 
    2 2 6
1 5 2
_body
7 5 
1 5 2
_brch
17 5 
2 3 1
OML
 0.000000000000e+00
1 5 1
_hist
7
1 7 3
_faceID
7 5 1 
1 9 2
__trace__
7 3 
    2 3 6
1 5 2
_body
7 1 
1 5 2
_brch
17 1 
2 3 1
OML
 0.000000000000e+00
1 5 1
_hist
7
1 7 3
_faceID
7 1 1 
1 9 2
__trace__
7 4 
    2 4 6
1 5 2
_body
7 2 
1 5 2
_brch
17 2 
2 3 1
OML
 0.000000000000e+00
1 5 1
_hist
7
1 7 3
_faceID
7 2 1 
1 9 2
__trace__
7 5 
    4 0 4
1 5 2
_body
7 30001 
1 7 5
_edgeID
7 1 7 3 1 
1 6 1
_nface
2
1 9 2
__trace__
7 1 
    4 1 4
1 5 2
_body
7 30004 
1 7 5
_edgeID
7 3 7 4 1 
1 6 1
_nface
2
1 9 2
__trace__
7 2 
    4 2 4
1 5 2
_body
7 20003 
1 7 5
_edgeID
7 2 7 3 1 
1 6 1
_nface
2
1 9 2
__trace__
7 3 
    4 3 4
1 5 2
_body
7 50003 
1 7 5
_edgeID
7 3 7 5 1 
1 6 1
_nface
2
1 9 2
__trace__
7 4 
    4 4 4
1 5 2
_body
7 40001 
1 7 5
_edgeID
7 1 7 4 1 
1 6 1
_nface
2
1 9 2
__trace__
7 5 
    4 5 4
1 5 2
_body
7 40005 
1 7 5
_edgeID
7 4 7 5 1 
1 6 1
_nface
2
1 9 2
__trace__
7 6 
    4 6 4
1 5 2
_body
7 20004 
1 7 5
_edgeID
7 2 7 4 1 
1 6 1
_nface
2
1 9 2
__trace__
7 7 
    4 7 4
1 5 2
_body
7 50001 
1 7 5
_edgeID
7 1 7 5 1 
1 6 1
_nface
2
1 9 2
__trace__
7 8 
    4 8 4
1 5 2
_body
7 20005 
1 7 5
_edgeID
7 2 7 5 1 
1 6 1
_nface
2
1 9 2
__trace__
7 9 
    5 0 3
1 9 10
__trace__
3 1 4 1 5 1 6 1 7 1 
1 7 1
_nodeID
1
1 6 1
_nedge
3
    5 1 3
1 9 10
__trace__
3 2 4 2 5 2 6 2 7 2 
1 7 1
_nodeID
2
1 6 1
_nedge
3
    5 2 3
1 9 6
__trace__
1 2 2 2 7 3 
1 7 1
_nodeID
3
1 6 1
_nedge
3
    5 3 3
1 9 6
__trace__
1 1 2 1 7 4 
1 7 1
_nodeID
4
1 6 1
_nedge
3
    5 4 3
1 9 10
__trace__
3 3 4 3 5 3 6 3 7 5 
1 7 1
_nodeID
5
1 6 1
_nedge
3
    5 5 3
1 9 6
__trace__
1 3 2 3 7 6 
1 7 1
_nodeID
6
1 6 1
_nedge
3
    0 0 0
